<?xml version="1.0" encoding="UTF-8" standalone="no"?>
<!-- Created with Inkscape (http://www.inkscape.org/) -->

<svg
   xmlns:ns0="http://www.iki.fi/pav/software/textext/"
   xmlns:dc="http://purl.org/dc/elements/1.1/"
   xmlns:cc="http://creativecommons.org/ns#"
   xmlns:rdf="http://www.w3.org/1999/02/22-rdf-syntax-ns#"
   xmlns:svg="http://www.w3.org/2000/svg"
   xmlns="http://www.w3.org/2000/svg"
   xmlns:xlink="http://www.w3.org/1999/xlink"
   xmlns:sodipodi="http://sodipodi.sourceforge.net/DTD/sodipodi-0.dtd"
   xmlns:inkscape="http://www.inkscape.org/namespaces/inkscape"
   sodipodi:docname="alternativeGeometry.svg"
   inkscape:version="0.48.2 r9819"
   version="1.1"
   id="svg2"
   height="243"
   width="243">
  <sodipodi:namedview
     id="base"
     pagecolor="#ffffff"
     bordercolor="#666666"
     borderopacity="1.0"
     inkscape:pageopacity="0.0"
     inkscape:pageshadow="2"
     inkscape:zoom="1.6636651"
     inkscape:cx="116.80608"
     inkscape:cy="114.6595"
     inkscape:document-units="px"
     inkscape:current-layer="svg2"
     showgrid="false"
     units="in"
     inkscape:window-width="1680"
     inkscape:window-height="1026"
     inkscape:window-x="1366"
     inkscape:window-y="24"
     inkscape:window-maximized="1"
     fit-margin-top="0"
     fit-margin-left="0"
     fit-margin-right="0"
     fit-margin-bottom="0" />
  <defs
     id="defs4">
    <marker
       style="overflow:visible"
       id="Arrow1Send"
       refX="0"
       refY="0"
       orient="auto"
       inkscape:stockid="Arrow1Send">
      <path
         transform="matrix(-0.2,0,0,-0.2,-1.2,0)"
         style="fill-rule:evenodd;stroke:#000000;stroke-width:1pt;marker-start:none"
         d="M 0,0 5,-5 -12.5,0 5,5 0,0 z"
         id="path3833"
         inkscape:connector-curvature="0" />
    </marker>
    <marker
       style="overflow:visible"
       id="Arrow1Sstart"
       refX="0"
       refY="0"
       orient="auto"
       inkscape:stockid="Arrow1Sstart">
      <path
         transform="matrix(0.2,0,0,0.2,1.2,0)"
         style="fill-rule:evenodd;stroke:#000000;stroke-width:1pt;marker-start:none"
         d="M 0,0 5,-5 -12.5,0 5,5 0,0 z"
         id="path3830"
         inkscape:connector-curvature="0" />
    </marker>
    <marker
       style="overflow:visible"
       id="Arrow1Mstart"
       refX="0"
       refY="0"
       orient="auto"
       inkscape:stockid="Arrow1Mstart">
      <path
         transform="matrix(0.4,0,0,0.4,4,0)"
         style="fill-rule:evenodd;stroke:#000000;stroke-width:1pt;marker-start:none"
         d="M 0,0 5,-5 -12.5,0 5,5 0,0 z"
         id="path3824"
         inkscape:connector-curvature="0" />
    </marker>
  </defs>
  <metadata
     id="metadata7">
    <rdf:RDF>
      <cc:Work
         rdf:about="">
        <dc:format>image/svg+xml</dc:format>
        <dc:type
           rdf:resource="http://purl.org/dc/dcmitype/StillImage" />
        <dc:title />
      </cc:Work>
    </rdf:RDF>
  </metadata>
  <g
     transform="translate(-8.8021718,-763.09377)"
     id="layer1"
     inkscape:groupmode="layer"
     inkscape:label="Layer 1">
    <path
       sodipodi:nodetypes="cc"
       inkscape:connector-curvature="0"
       id="path2985"
       d="m 15.51705,1002 230.19071,0"
       style="fill:none;stroke:#000000;stroke-width:1px;stroke-linecap:butt;stroke-linejoin:miter;stroke-opacity:1" />
    <rect
       y="972.03546"
       x="105.45981"
       height="10.200724"
       width="39.527737"
       id="rect2987"
       style="fill:none;stroke:#000000;stroke-width:1;stroke-linecap:round;stroke-linejoin:round;stroke-miterlimit:4;stroke-opacity:1;stroke-dasharray:none;stroke-dashoffset:0" />
    <path
       sodipodi:nodetypes="cc"
       inkscape:connector-curvature="0"
       id="path2997"
       d="m 98.862697,977.19165 c 72.648563,0.32926 101.083543,1.43173 112.417663,-13.01928"
       style="fill:none;stroke:#000000;stroke-width:5;stroke-linecap:butt;stroke-linejoin:miter;stroke-miterlimit:4;stroke-opacity:1;stroke-dasharray:none" />
    <path
       transform="matrix(0.51855344,0,0,0.46299415,146.39607,917.00661)"
       d="m 129.20897,103.7072 a 5.3128691,5.9504132 0 1 1 -10.62574,0 5.3128691,5.9504132 0 1 1 10.62574,0 z"
       sodipodi:ry="5.9504132"
       sodipodi:rx="5.3128691"
       sodipodi:cy="103.7072"
       sodipodi:cx="123.8961"
       id="path3021-4"
       style="fill:#ffffff;fill-opacity:1;stroke:#000000;stroke-width:2.04087067;stroke-linecap:round;stroke-linejoin:round;stroke-miterlimit:4;stroke-opacity:1;stroke-dasharray:none;stroke-dashoffset:0"
       sodipodi:type="arc" />
    <path
       sodipodi:nodetypes="cccccc"
       inkscape:connector-curvature="0"
       id="path3809"
       d="M 114.68532,970.33531 85.5708,867.90319 l 66.30461,-73.31759 33.1523,74.16765 -48.87839,101.36954 z"
       style="fill:none;stroke:#000000;stroke-width:3;stroke-linecap:butt;stroke-linejoin:miter;stroke-miterlimit:4;stroke-opacity:1;stroke-dasharray:none" />
    <path
       inkscape:connector-curvature="0"
       id="path3811"
       d="m 86.420859,868.11571 97.119241,0.42503"
       style="fill:none;stroke:#000000;stroke-width:3;stroke-linecap:butt;stroke-linejoin:miter;stroke-miterlimit:4;stroke-opacity:1;stroke-dasharray:none" />
    <path
       transform="matrix(0.51855344,0,0,0.46299415,87.578475,746.19491)"
       d="m 129.20897,103.7072 a 5.3128691,5.9504132 0 1 1 -10.62574,0 5.3128691,5.9504132 0 1 1 10.62574,0 z"
       sodipodi:ry="5.9504132"
       sodipodi:rx="5.3128691"
       sodipodi:cy="103.7072"
       sodipodi:cx="123.8961"
       id="path3021"
       style="fill:#ffffff;fill-opacity:1;stroke:#000000;stroke-width:2.04087067;stroke-linecap:round;stroke-linejoin:round;stroke-miterlimit:4;stroke-opacity:1;stroke-dasharray:none;stroke-dashoffset:0"
       sodipodi:type="arc" />
    <path
       sodipodi:nodetypes="cc"
       inkscape:connector-curvature="0"
       id="path3813"
       d="m 154.1068,789.91027 8.28808,-13.38842"
       style="fill:none;stroke:#000000;stroke-width:1px;stroke-linecap:butt;stroke-linejoin:miter;stroke-opacity:1;marker-start:url(#Arrow1Sstart)" />
    <path
       sodipodi:nodetypes="cc"
       inkscape:connector-curvature="0"
       id="path4445"
       d="m 171.11029,793.95968 54.67128,160.4303"
       style="fill:none;stroke:#000000;stroke-width:1px;stroke-linecap:butt;stroke-linejoin:miter;stroke-opacity:1;marker-start:url(#Arrow1Sstart);marker-end:url(#Arrow1Send)" />
    <path
       sodipodi:nodetypes="cc"
       inkscape:connector-curvature="0"
       id="path4447"
       d="m 155.80693,796.60449 18.06375,-5.52538"
       style="fill:none;stroke:#000000;stroke-width:1px;stroke-linecap:butt;stroke-linejoin:miter;stroke-opacity:1" />
    <path
       sodipodi:nodetypes="cc"
       inkscape:connector-curvature="0"
       id="path4447-1"
       d="m 211.28035,960.98465 19.03579,-6.02398"
       style="fill:none;stroke:#000000;stroke-width:1px;stroke-linecap:butt;stroke-linejoin:miter;stroke-opacity:1" />
    <path
       sodipodi:nodetypes="cc"
       inkscape:connector-curvature="0"
       id="path4839"
       d="m 97.259112,975.11688 -11.570079,0"
       style="fill:none;stroke:#000000;stroke-width:1px;stroke-linecap:butt;stroke-linejoin:miter;stroke-opacity:1" />
    <path
       sodipodi:nodetypes="cc"
       inkscape:connector-curvature="0"
       id="path4841"
       d="m 103.95333,972.03542 -36.35513,0"
       style="fill:none;stroke:#000000;stroke-width:1px;stroke-linecap:butt;stroke-linejoin:miter;stroke-opacity:1" />
    <path
       sodipodi:nodetypes="cc"
       inkscape:connector-curvature="0"
       id="path4843"
       d="m 147.83763,791.61039 -105.188556,0"
       style="fill:none;stroke:#000000;stroke-width:1px;stroke-linecap:butt;stroke-linejoin:miter;stroke-opacity:1" />
    <path
       sodipodi:nodetypes="cc"
       inkscape:connector-curvature="0"
       id="path4845"
       d="m 88.527117,977.24203 0,22.73907"
       style="fill:none;stroke:#000000;stroke-width:1px;stroke-linecap:butt;stroke-linejoin:miter;stroke-opacity:1;marker-start:url(#Arrow1Sstart);marker-end:url(#Arrow1Send)" />
    <path
       sodipodi:nodetypes="cc"
       inkscape:connector-curvature="0"
       id="path4847"
       d="m 70.18237,974.16057 0,25.71433"
       style="fill:none;stroke:#000000;stroke-width:1px;stroke-linecap:butt;stroke-linejoin:miter;stroke-opacity:1;marker-start:url(#Arrow1Sstart);marker-end:url(#Arrow1Send)" />
    <path
       sodipodi:nodetypes="cc"
       inkscape:connector-curvature="0"
       id="path4851"
       d="m 30.42654,983.18955 -8.978748,0"
       style="fill:none;stroke:#000000;stroke-width:1px;stroke-linecap:butt;stroke-linejoin:miter;stroke-opacity:1" />
    <path
       sodipodi:nodetypes="cc"
       inkscape:connector-curvature="0"
       id="path4853"
       d="m 24.992042,985.37693 0,14.71047"
       style="fill:none;stroke:#000000;stroke-width:1px;stroke-linecap:butt;stroke-linejoin:miter;stroke-opacity:1;marker-start:url(#Arrow1Sstart);marker-end:url(#Arrow1Send)" />
    <path
       sodipodi:nodetypes="cc"
       inkscape:connector-curvature="0"
       id="path4855"
       d="m 46.631012,980.9946 0,-187.36532"
       style="fill:none;stroke:#000000;stroke-width:1px;stroke-linecap:butt;stroke-linejoin:miter;stroke-opacity:1;marker-start:url(#Arrow1Sstart);marker-end:url(#Arrow1Send)" />
    <path
       inkscape:connector-curvature="0"
       id="path4857"
       d="m 213.9368,962.366 23.80165,0"
       style="fill:none;stroke:#000000;stroke-width:1px;stroke-linecap:butt;stroke-linejoin:miter;stroke-opacity:1" />
    <path
       sodipodi:nodetypes="cc"
       inkscape:connector-curvature="0"
       id="path4859"
       d="m 233.16939,964.27863 0,35.70247"
       style="fill:none;stroke:#000000;stroke-width:1px;stroke-linecap:butt;stroke-linejoin:miter;stroke-opacity:1;marker-start:url(#Arrow1Sstart);marker-end:url(#Arrow1Send)" />
    <path
       sodipodi:nodetypes="cc"
       inkscape:connector-curvature="0"
       id="path4861"
       d="M 207.34884,961.51594 197.4669,951.20898"
       style="fill:none;stroke:#000000;stroke-width:1px;stroke-linecap:butt;stroke-linejoin:miter;stroke-opacity:1;marker-start:url(#Arrow1Sstart)" />
    <path
       sodipodi:nodetypes="cc"
       inkscape:connector-curvature="0"
       id="path4863"
       d="m 101.50941,981.0673 -2.231408,8.81937"
       style="fill:none;stroke:#000000;stroke-width:1px;stroke-linecap:butt;stroke-linejoin:miter;stroke-opacity:1;marker-start:url(#Arrow1Sstart)" />
    <path
       sodipodi:nodetypes="cc"
       inkscape:connector-curvature="0"
       id="path4865"
       d="m 142.49973,983.44142 4.03778,6.80048"
       style="fill:none;stroke:#000000;stroke-width:1px;stroke-linecap:butt;stroke-linejoin:miter;stroke-opacity:1;marker-start:url(#Arrow1Sstart)" />
    <rect
       y="983.20154"
       x="32.119957"
       height="17.85124"
       width="21.676506"
       id="rect5444"
       style="fill:#000000;fill-opacity:1;stroke:#000000;stroke-width:1;stroke-linecap:round;stroke-linejoin:round;stroke-miterlimit:4;stroke-opacity:1;stroke-dasharray:none;stroke-dashoffset:0" />
    <rect
       y="981.14966"
       x="110.75947"
       height="20.011768"
       width="28.357134"
       id="rect5446"
       style="fill:#000000;fill-opacity:1;stroke:#000000;stroke-width:1;stroke-linecap:round;stroke-linejoin:round;stroke-miterlimit:4;stroke-opacity:1;stroke-dasharray:none;stroke-dashoffset:0" />
  </g>
  <g
     id="g5579"
     ns0:preamble=""
     ns0:text="$d$"
     transform="translate(-29.342766,-24.45066)">
    <defs
       id="defs5581">
      <g
         id="g5583">
        <symbol
           id="textext-2c4fa00a-0"
           overflow="visible"
           style="overflow:visible">
          <path
             id="path5586"
             d="m 5.140625,-6.8125 c 0,0 0,-0.109375 -0.125,-0.109375 -0.15625,0 -1.09375,0.09375 -1.265625,0.109375 -0.078125,0.015625 -0.140625,0.0625 -0.140625,0.1875 0,0.125 0.09375,0.125 0.234375,0.125 0.484375,0 0.5,0.0625 0.5,0.171875 L 4.3125,-6.125 3.71875,-3.765625 C 3.53125,-4.140625 3.25,-4.40625 2.796875,-4.40625 c -1.15625,0 -2.390625,1.46875 -2.390625,2.921875 0,0.9375 0.546875,1.59375 1.3125,1.59375 0.203125,0 0.703125,-0.046875 1.296875,-0.75 0.078125,0.421875 0.4375,0.75 0.90625,0.75 0.359375,0 0.578125,-0.234375 0.75,-0.546875 0.15625,-0.359375 0.296875,-0.96875 0.296875,-0.984375 0,-0.109375 -0.09375,-0.109375 -0.125,-0.109375 -0.09375,0 -0.109375,0.046875 -0.140625,0.1875 -0.171875,0.640625 -0.34375,1.234375 -0.75,1.234375 -0.28125,0 -0.296875,-0.265625 -0.296875,-0.453125 0,-0.25 0.015625,-0.3125 0.046875,-0.484375 z m -2.0625,5.625 C 3.015625,-1 3.015625,-0.984375 2.875,-0.8125 2.4375,-0.265625 2.03125,-0.109375 1.75,-0.109375 c -0.5,0 -0.640625,-0.546875 -0.640625,-0.9375 0,-0.5 0.3125,-1.71875 0.546875,-2.1875 0.3125,-0.578125 0.75,-0.953125 1.15625,-0.953125 0.640625,0 0.78125,0.8125 0.78125,0.875 0,0.0625 -0.015625,0.125 -0.03125,0.171875 z m 0,0"
             style="stroke:none"
             inkscape:connector-curvature="0" />
        </symbol>
      </g>
    </defs>
    <g
       id="textext-2c4fa00a-1">
      <g
         id="g5589"
         style="fill:#000000;fill-opacity:1">
        <use
           id="use5591"
           y="134.765"
           x="223.43201"
           xlink:href="#textext-2c4fa00a-0"
           width="270"
           height="360" />
      </g>
    </g>
  </g>
  <g
     transform="translate(-198.83721,-11.527386)"
     ns0:text="$h_1$"
     ns0:preamble=""
     id="g5681">
    <defs
       id="defs5683">
      <g
         id="g5685">
        <symbol
           style="overflow:visible"
           overflow="visible"
           id="textext-3e130687-0">
          <path
             inkscape:connector-curvature="0"
             style="stroke:none"
             d="m 2.859375,-6.8125 c 0,0 0,-0.109375 -0.125,-0.109375 -0.234375,0 -0.953125,0.078125 -1.21875,0.109375 -0.078125,0 -0.1875,0.015625 -0.1875,0.1875 0,0.125 0.09375,0.125 0.234375,0.125 0.484375,0 0.5,0.0625 0.5,0.171875 L 2.03125,-6.125 0.59375,-0.390625 c -0.046875,0.140625 -0.046875,0.15625 -0.046875,0.21875 0,0.234375 0.203125,0.28125 0.296875,0.28125 0.15625,0 0.3125,-0.125 0.359375,-0.265625 l 0.1875,-0.75 0.21875,-0.890625 C 1.671875,-2.03125 1.734375,-2.25 1.78125,-2.46875 1.796875,-2.53125 1.890625,-2.859375 1.890625,-2.921875 1.921875,-3.015625 2.234375,-3.5625 2.578125,-3.84375 2.796875,-4 3.09375,-4.1875 3.53125,-4.1875 c 0.421875,0 0.53125,0.34375 0.53125,0.703125 0,0.53125 -0.375,1.625 -0.609375,2.234375 C 3.375,-1.03125 3.3125,-0.90625 3.3125,-0.703125 c 0,0.46875 0.359375,0.8125 0.828125,0.8125 0.9375,0 1.296875,-1.453125 1.296875,-1.53125 0,-0.109375 -0.078125,-0.109375 -0.109375,-0.109375 -0.109375,0 -0.109375,0.03125 -0.15625,0.1875 -0.140625,0.53125 -0.46875,1.234375 -1.015625,1.234375 -0.171875,0 -0.234375,-0.09375 -0.234375,-0.328125 0,-0.25 0.078125,-0.484375 0.171875,-0.703125 0.15625,-0.4375 0.609375,-1.625 0.609375,-2.203125 0,-0.640625 -0.390625,-1.0625 -1.140625,-1.0625 -0.625,0 -1.109375,0.3125 -1.484375,0.765625 z m 0,0"
             id="path5688" />
        </symbol>
        <symbol
           style="overflow:visible"
           overflow="visible"
           id="textext-3e130687-1">
          <path
             inkscape:connector-curvature="0"
             style="stroke:none"
             d="m 2.328125,-4.4375 c 0,-0.1875 0,-0.1875 -0.203125,-0.1875 -0.453125,0.4375 -1.078125,0.4375 -1.359375,0.4375 l 0,0.25 c 0.15625,0 0.625,0 1,-0.1875 l 0,3.546875 c 0,0.234375 0,0.328125 -0.6875,0.328125 l -0.265625,0 0,0.25 c 0.125,0 0.984375,-0.03125 1.234375,-0.03125 0.21875,0 1.09375,0.03125 1.25,0.03125 l 0,-0.25 -0.265625,0 c -0.703125,0 -0.703125,-0.09375 -0.703125,-0.328125 z m 0,0"
             id="path5691" />
        </symbol>
      </g>
    </defs>
    <g
       id="textext-3e130687-2">
      <g
         style="fill:#000000;fill-opacity:1"
         id="g5694">
        <use
           height="360"
           width="270"
           xlink:href="#textext-3e130687-0"
           x="223.43201"
           y="134.765"
           id="use5696" />
      </g>
      <g
         style="fill:#000000;fill-opacity:1"
         id="g5698">
        <use
           height="360"
           width="270"
           xlink:href="#textext-3e130687-1"
           x="229.172"
           y="136.259"
           id="use5700" />
      </g>
    </g>
  </g>
  <g
     id="g5814"
     ns0:preamble=""
     ns0:text="$h_2$"
     transform="translate(-219.57455,96.366922)">
    <defs
       id="defs5816">
      <g
         id="g5818">
        <symbol
           id="textext-34f8d3f7-0"
           overflow="visible"
           style="overflow:visible">
          <path
             id="path5821"
             d="m 2.859375,-6.8125 c 0,0 0,-0.109375 -0.125,-0.109375 -0.234375,0 -0.953125,0.078125 -1.21875,0.109375 -0.078125,0 -0.1875,0.015625 -0.1875,0.1875 0,0.125 0.09375,0.125 0.234375,0.125 0.484375,0 0.5,0.0625 0.5,0.171875 L 2.03125,-6.125 0.59375,-0.390625 c -0.046875,0.140625 -0.046875,0.15625 -0.046875,0.21875 0,0.234375 0.203125,0.28125 0.296875,0.28125 0.15625,0 0.3125,-0.125 0.359375,-0.265625 l 0.1875,-0.75 0.21875,-0.890625 C 1.671875,-2.03125 1.734375,-2.25 1.78125,-2.46875 1.796875,-2.53125 1.890625,-2.859375 1.890625,-2.921875 1.921875,-3.015625 2.234375,-3.5625 2.578125,-3.84375 2.796875,-4 3.09375,-4.1875 3.53125,-4.1875 c 0.421875,0 0.53125,0.34375 0.53125,0.703125 0,0.53125 -0.375,1.625 -0.609375,2.234375 C 3.375,-1.03125 3.3125,-0.90625 3.3125,-0.703125 c 0,0.46875 0.359375,0.8125 0.828125,0.8125 0.9375,0 1.296875,-1.453125 1.296875,-1.53125 0,-0.109375 -0.078125,-0.109375 -0.109375,-0.109375 -0.109375,0 -0.109375,0.03125 -0.15625,0.1875 -0.140625,0.53125 -0.46875,1.234375 -1.015625,1.234375 -0.171875,0 -0.234375,-0.09375 -0.234375,-0.328125 0,-0.25 0.078125,-0.484375 0.171875,-0.703125 0.15625,-0.4375 0.609375,-1.625 0.609375,-2.203125 0,-0.640625 -0.390625,-1.0625 -1.140625,-1.0625 -0.625,0 -1.109375,0.3125 -1.484375,0.765625 z m 0,0"
             style="stroke:none"
             inkscape:connector-curvature="0" />
        </symbol>
        <symbol
           id="textext-34f8d3f7-1"
           overflow="visible"
           style="overflow:visible">
          <path
             id="path5824"
             d="m 3.515625,-1.265625 -0.234375,0 c -0.015625,0.15625 -0.09375,0.5625 -0.1875,0.625 -0.046875,0.046875 -0.578125,0.046875 -0.6875,0.046875 l -1.28125,0 c 0.734375,-0.640625 0.984375,-0.84375 1.390625,-1.171875 0.515625,-0.40625 1,-0.84375 1,-1.5 0,-0.84375 -0.734375,-1.359375 -1.625,-1.359375 -0.859375,0 -1.453125,0.609375 -1.453125,1.25 0,0.34375 0.296875,0.390625 0.375,0.390625 0.15625,0 0.359375,-0.125 0.359375,-0.375 0,-0.125 -0.046875,-0.375 -0.40625,-0.375 C 0.984375,-4.21875 1.453125,-4.375 1.78125,-4.375 c 0.703125,0 1.0625,0.546875 1.0625,1.109375 0,0.609375 -0.4375,1.078125 -0.65625,1.328125 L 0.515625,-0.265625 C 0.4375,-0.203125 0.4375,-0.1875 0.4375,0 l 2.875,0 z m 0,0"
             style="stroke:none"
             inkscape:connector-curvature="0" />
        </symbol>
      </g>
    </defs>
    <g
       id="textext-34f8d3f7-2">
      <g
         id="g5827"
         style="fill:#000000;fill-opacity:1">
        <use
           id="use5829"
           y="134.765"
           x="223.43201"
           xlink:href="#textext-34f8d3f7-0"
           width="270"
           height="360" />
      </g>
      <g
         id="g5831"
         style="fill:#000000;fill-opacity:1">
        <use
           id="use5833"
           y="136.259"
           x="229.172"
           xlink:href="#textext-34f8d3f7-1"
           width="270"
           height="360" />
      </g>
    </g>
  </g>
  <g
     transform="translate(-174.29661,89.755012)"
     ns0:text="$h_3$"
     ns0:preamble=""
     id="g5971">
    <defs
       id="defs5973">
      <g
         id="g5975">
        <symbol
           style="overflow:visible"
           overflow="visible"
           id="textext-dd4e3663-0">
          <path
             inkscape:connector-curvature="0"
             style="stroke:none"
             d="m 2.859375,-6.8125 c 0,0 0,-0.109375 -0.125,-0.109375 -0.234375,0 -0.953125,0.078125 -1.21875,0.109375 -0.078125,0 -0.1875,0.015625 -0.1875,0.1875 0,0.125 0.09375,0.125 0.234375,0.125 0.484375,0 0.5,0.0625 0.5,0.171875 L 2.03125,-6.125 0.59375,-0.390625 c -0.046875,0.140625 -0.046875,0.15625 -0.046875,0.21875 0,0.234375 0.203125,0.28125 0.296875,0.28125 0.15625,0 0.3125,-0.125 0.359375,-0.265625 l 0.1875,-0.75 0.21875,-0.890625 C 1.671875,-2.03125 1.734375,-2.25 1.78125,-2.46875 1.796875,-2.53125 1.890625,-2.859375 1.890625,-2.921875 1.921875,-3.015625 2.234375,-3.5625 2.578125,-3.84375 2.796875,-4 3.09375,-4.1875 3.53125,-4.1875 c 0.421875,0 0.53125,0.34375 0.53125,0.703125 0,0.53125 -0.375,1.625 -0.609375,2.234375 C 3.375,-1.03125 3.3125,-0.90625 3.3125,-0.703125 c 0,0.46875 0.359375,0.8125 0.828125,0.8125 0.9375,0 1.296875,-1.453125 1.296875,-1.53125 0,-0.109375 -0.078125,-0.109375 -0.109375,-0.109375 -0.109375,0 -0.109375,0.03125 -0.15625,0.1875 -0.140625,0.53125 -0.46875,1.234375 -1.015625,1.234375 -0.171875,0 -0.234375,-0.09375 -0.234375,-0.328125 0,-0.25 0.078125,-0.484375 0.171875,-0.703125 0.15625,-0.4375 0.609375,-1.625 0.609375,-2.203125 0,-0.640625 -0.390625,-1.0625 -1.140625,-1.0625 -0.625,0 -1.109375,0.3125 -1.484375,0.765625 z m 0,0"
             id="path5978" />
        </symbol>
        <symbol
           style="overflow:visible"
           overflow="visible"
           id="textext-dd4e3663-1">
          <path
             inkscape:connector-curvature="0"
             style="stroke:none"
             d="m 1.90625,-2.328125 c 0.546875,0 0.9375,0.375 0.9375,1.125 0,0.859375 -0.515625,1.125 -0.90625,1.125 -0.28125,0 -0.90625,-0.078125 -1.1875,-0.5 0.328125,0 0.40625,-0.234375 0.40625,-0.390625 0,-0.21875 -0.171875,-0.375 -0.390625,-0.375 -0.1875,0 -0.390625,0.125 -0.390625,0.40625 0,0.65625 0.71875,1.078125 1.5625,1.078125 0.96875,0 1.640625,-0.65625 1.640625,-1.34375 0,-0.546875 -0.4375,-1.09375 -1.203125,-1.25 0.71875,-0.265625 0.984375,-0.78125 0.984375,-1.21875 0,-0.546875 -0.625,-0.953125 -1.40625,-0.953125 -0.765625,0 -1.359375,0.375 -1.359375,0.9375 0,0.234375 0.15625,0.359375 0.359375,0.359375 0.21875,0 0.359375,-0.15625 0.359375,-0.34375 0,-0.203125 -0.140625,-0.359375 -0.359375,-0.375 0.25,-0.296875 0.71875,-0.375 0.984375,-0.375 0.3125,0 0.75,0.15625 0.75,0.75 0,0.296875 -0.09375,0.625 -0.28125,0.828125 -0.21875,0.265625 -0.421875,0.28125 -0.765625,0.3125 -0.171875,0.015625 -0.1875,0.015625 -0.21875,0.015625 -0.015625,0 -0.078125,0.015625 -0.078125,0.09375 0,0.09375 0.0625,0.09375 0.1875,0.09375 z m 0,0"
             id="path5981" />
        </symbol>
      </g>
    </defs>
    <g
       id="textext-dd4e3663-2">
      <g
         style="fill:#000000;fill-opacity:1"
         id="g5984">
        <use
           height="360"
           width="270"
           xlink:href="#textext-dd4e3663-0"
           x="223.43201"
           y="134.765"
           id="use5986" />
      </g>
      <g
         style="fill:#000000;fill-opacity:1"
         id="g5988">
        <use
           height="360"
           width="270"
           xlink:href="#textext-dd4e3663-1"
           x="229.172"
           y="136.259"
           id="use5990" />
      </g>
    </g>
  </g>
  <g
     id="g6152"
     ns0:preamble=""
     ns0:text="$h_4$"
     transform="translate(4.6183958,87.951772)">
    <defs
       id="defs6154">
      <g
         id="g6156">
        <symbol
           id="textext-787d1cc9-0"
           overflow="visible"
           style="overflow:visible">
          <path
             id="path6159"
             d="m 2.859375,-6.8125 c 0,0 0,-0.109375 -0.125,-0.109375 -0.234375,0 -0.953125,0.078125 -1.21875,0.109375 -0.078125,0 -0.1875,0.015625 -0.1875,0.1875 0,0.125 0.09375,0.125 0.234375,0.125 0.484375,0 0.5,0.0625 0.5,0.171875 L 2.03125,-6.125 0.59375,-0.390625 c -0.046875,0.140625 -0.046875,0.15625 -0.046875,0.21875 0,0.234375 0.203125,0.28125 0.296875,0.28125 0.15625,0 0.3125,-0.125 0.359375,-0.265625 l 0.1875,-0.75 0.21875,-0.890625 C 1.671875,-2.03125 1.734375,-2.25 1.78125,-2.46875 1.796875,-2.53125 1.890625,-2.859375 1.890625,-2.921875 1.921875,-3.015625 2.234375,-3.5625 2.578125,-3.84375 2.796875,-4 3.09375,-4.1875 3.53125,-4.1875 c 0.421875,0 0.53125,0.34375 0.53125,0.703125 0,0.53125 -0.375,1.625 -0.609375,2.234375 C 3.375,-1.03125 3.3125,-0.90625 3.3125,-0.703125 c 0,0.46875 0.359375,0.8125 0.828125,0.8125 0.9375,0 1.296875,-1.453125 1.296875,-1.53125 0,-0.109375 -0.078125,-0.109375 -0.109375,-0.109375 -0.109375,0 -0.109375,0.03125 -0.15625,0.1875 -0.140625,0.53125 -0.46875,1.234375 -1.015625,1.234375 -0.171875,0 -0.234375,-0.09375 -0.234375,-0.328125 0,-0.25 0.078125,-0.484375 0.171875,-0.703125 0.15625,-0.4375 0.609375,-1.625 0.609375,-2.203125 0,-0.640625 -0.390625,-1.0625 -1.140625,-1.0625 -0.625,0 -1.109375,0.3125 -1.484375,0.765625 z m 0,0"
             style="stroke:none"
             inkscape:connector-curvature="0" />
        </symbol>
        <symbol
           id="textext-787d1cc9-1"
           overflow="visible"
           style="overflow:visible">
          <path
             id="path6162"
             d="m 3.6875,-1.140625 0,-0.25 -0.78125,0 0,-3.109375 c 0,-0.140625 0,-0.203125 -0.140625,-0.203125 -0.09375,0 -0.125,0 -0.1875,0.109375 l -2.3125,3.203125 0,0.25 2.0625,0 0,0.5625 c 0,0.25 0,0.328125 -0.578125,0.328125 l -0.1875,0 0,0.25 C 1.921875,-0.015625 2.359375,-0.03125 2.609375,-0.03125 2.875,-0.03125 3.3125,-0.015625 3.671875,0 l 0,-0.25 -0.1875,0 C 2.90625,-0.25 2.90625,-0.328125 2.90625,-0.578125 l 0,-0.5625 z M 2.375,-3.9375 l 0,2.546875 -1.84375,0 z m 0,0"
             style="stroke:none"
             inkscape:connector-curvature="0" />
        </symbol>
      </g>
    </defs>
    <g
       id="textext-787d1cc9-2">
      <g
         id="g6165"
         style="fill:#000000;fill-opacity:1">
        <use
           id="use6167"
           y="134.765"
           x="223.43201"
           xlink:href="#textext-787d1cc9-0"
           width="270"
           height="360" />
      </g>
      <g
         id="g6169"
         style="fill:#000000;fill-opacity:1">
        <use
           id="use6171"
           y="136.259"
           x="229.172"
           xlink:href="#textext-787d1cc9-1"
           width="270"
           height="360" />
      </g>
    </g>
  </g>
  <g
     transform="translate(-155.87063,92.159352)"
     ns0:text="$h_5$"
     ns0:preamble=""
     id="g6357">
    <defs
       id="defs6359">
      <g
         id="g6361">
        <symbol
           style="overflow:visible"
           overflow="visible"
           id="textext-2c700db9-0">
          <path
             inkscape:connector-curvature="0"
             style="stroke:none"
             d="m 2.859375,-6.8125 c 0,0 0,-0.109375 -0.125,-0.109375 -0.234375,0 -0.953125,0.078125 -1.21875,0.109375 -0.078125,0 -0.1875,0.015625 -0.1875,0.1875 0,0.125 0.09375,0.125 0.234375,0.125 0.484375,0 0.5,0.0625 0.5,0.171875 L 2.03125,-6.125 0.59375,-0.390625 c -0.046875,0.140625 -0.046875,0.15625 -0.046875,0.21875 0,0.234375 0.203125,0.28125 0.296875,0.28125 0.15625,0 0.3125,-0.125 0.359375,-0.265625 l 0.1875,-0.75 0.21875,-0.890625 C 1.671875,-2.03125 1.734375,-2.25 1.78125,-2.46875 1.796875,-2.53125 1.890625,-2.859375 1.890625,-2.921875 1.921875,-3.015625 2.234375,-3.5625 2.578125,-3.84375 2.796875,-4 3.09375,-4.1875 3.53125,-4.1875 c 0.421875,0 0.53125,0.34375 0.53125,0.703125 0,0.53125 -0.375,1.625 -0.609375,2.234375 C 3.375,-1.03125 3.3125,-0.90625 3.3125,-0.703125 c 0,0.46875 0.359375,0.8125 0.828125,0.8125 0.9375,0 1.296875,-1.453125 1.296875,-1.53125 0,-0.109375 -0.078125,-0.109375 -0.109375,-0.109375 -0.109375,0 -0.109375,0.03125 -0.15625,0.1875 -0.140625,0.53125 -0.46875,1.234375 -1.015625,1.234375 -0.171875,0 -0.234375,-0.09375 -0.234375,-0.328125 0,-0.25 0.078125,-0.484375 0.171875,-0.703125 0.15625,-0.4375 0.609375,-1.625 0.609375,-2.203125 0,-0.640625 -0.390625,-1.0625 -1.140625,-1.0625 -0.625,0 -1.109375,0.3125 -1.484375,0.765625 z m 0,0"
             id="path6364" />
        </symbol>
        <symbol
           style="overflow:visible"
           overflow="visible"
           id="textext-2c700db9-1">
          <path
             inkscape:connector-curvature="0"
             style="stroke:none"
             d="m 1.078125,-3.890625 c 0.359375,0.09375 0.5625,0.09375 0.671875,0.09375 0.921875,0 1.46875,-0.625 1.46875,-0.734375 0,-0.078125 -0.046875,-0.09375 -0.078125,-0.09375 -0.015625,0 -0.03125,0 -0.0625,0.015625 -0.171875,0.0625 -0.53125,0.203125 -1.046875,0.203125 -0.203125,0 -0.5625,-0.015625 -1.015625,-0.1875 C 0.9375,-4.625 0.921875,-4.625 0.921875,-4.625 c -0.09375,0 -0.09375,0.078125 -0.09375,0.1875 l 0,2.046875 c 0,0.125 0,0.203125 0.109375,0.203125 0.0625,0 0.078125,0 0.140625,-0.09375 0.296875,-0.375 0.734375,-0.4375 0.96875,-0.4375 0.421875,0 0.609375,0.328125 0.640625,0.390625 0.125,0.234375 0.171875,0.5 0.171875,0.90625 0,0.203125 0,0.609375 -0.21875,0.921875 -0.171875,0.25 -0.46875,0.421875 -0.8125,0.421875 -0.453125,0 -0.921875,-0.25 -1.09375,-0.71875 0.265625,0.015625 0.40625,-0.15625 0.40625,-0.34375 0,-0.296875 -0.265625,-0.34375 -0.359375,-0.34375 0,0 -0.34375,0 -0.34375,0.375 0,0.625 0.578125,1.25 1.40625,1.25 0.890625,0 1.671875,-0.65625 1.671875,-1.546875 0,-0.78125 -0.59375,-1.5 -1.453125,-1.5 -0.3125,0 -0.671875,0.0625 -0.984375,0.328125 z m 0,0"
             id="path6367" />
        </symbol>
      </g>
    </defs>
    <g
       id="textext-2c700db9-2">
      <g
         style="fill:#000000;fill-opacity:1"
         id="g6370">
        <use
           height="360"
           width="270"
           xlink:href="#textext-2c700db9-0"
           x="223.43201"
           y="134.765"
           id="use6372" />
      </g>
      <g
         style="fill:#000000;fill-opacity:1"
         id="g6374">
        <use
           height="360"
           width="270"
           xlink:href="#textext-2c700db9-1"
           x="229.172"
           y="136.259"
           id="use6376" />
      </g>
    </g>
  </g>
  <g
     ns0:text="\\o$d_2$"
     ns0:preamble=""
     transform="translate(-74.423955,-124.23036)"
     id="g8043">
    <defs
       id="defs8045">
      <g
         id="g8047">
        <symbol
           style="overflow:visible"
           overflow="visible"
           id="textext-c4c55bd3-0">
          <path
             inkscape:connector-curvature="0"
             style="stroke:none"
             d="m 4.375,-5.203125 -0.1875,-0.125 -0.65625,1.15625 C 3.296875,-4.3125 2.921875,-4.46875 2.5,-4.46875 c -1.1875,0 -2.15625,1.0625 -2.15625,2.34375 0,0.796875 0.40625,1.46875 0.9375,1.84375 l -0.609375,1.078125 -0.078125,0.09375 0.1875,0.125 0.6875,-1.171875 c 0.21875,0.125 0.59375,0.265625 1.015625,0.265625 1.1875,0 2.140625,-1 2.140625,-2.234375 0,-0.96875 -0.53125,-1.640625 -0.921875,-1.921875 z M 1.453125,-0.59375 C 1.09375,-1 1.03125,-1.578125 1.03125,-2.140625 c 0,-0.40625 0.03125,-0.96875 0.296875,-1.421875 C 1.625,-4.078125 2.125,-4.25 2.484375,-4.25 2.875,-4.25 3.1875,-4.0625 3.375,-3.90625 z M 3.53125,-3.734375 c 0.390625,0.46875 0.40625,1.1875 0.40625,1.59375 0,0.34375 0,0.9375 -0.28125,1.390625 C 3.359375,-0.296875 2.875,-0.109375 2.5,-0.109375 c -0.25,0 -0.59375,-0.0625 -0.875,-0.3125 z m 0,0"
             id="path8050" />
        </symbol>
        <symbol
           style="overflow:visible"
           overflow="visible"
           id="textext-c4c55bd3-1">
          <path
             inkscape:connector-curvature="0"
             style="stroke:none"
             d="m 5.140625,-6.8125 c 0,0 0,-0.109375 -0.125,-0.109375 -0.15625,0 -1.09375,0.09375 -1.265625,0.109375 -0.078125,0.015625 -0.140625,0.0625 -0.140625,0.1875 0,0.125 0.09375,0.125 0.234375,0.125 0.484375,0 0.5,0.0625 0.5,0.171875 L 4.3125,-6.125 3.71875,-3.765625 C 3.53125,-4.140625 3.25,-4.40625 2.796875,-4.40625 c -1.15625,0 -2.390625,1.46875 -2.390625,2.921875 0,0.9375 0.546875,1.59375 1.3125,1.59375 0.203125,0 0.703125,-0.046875 1.296875,-0.75 0.078125,0.421875 0.4375,0.75 0.90625,0.75 0.359375,0 0.578125,-0.234375 0.75,-0.546875 0.15625,-0.359375 0.296875,-0.96875 0.296875,-0.984375 0,-0.109375 -0.09375,-0.109375 -0.125,-0.109375 -0.09375,0 -0.109375,0.046875 -0.140625,0.1875 -0.171875,0.640625 -0.34375,1.234375 -0.75,1.234375 -0.28125,0 -0.296875,-0.265625 -0.296875,-0.453125 0,-0.25 0.015625,-0.3125 0.046875,-0.484375 z m -2.0625,5.625 C 3.015625,-1 3.015625,-0.984375 2.875,-0.8125 2.4375,-0.265625 2.03125,-0.109375 1.75,-0.109375 c -0.5,0 -0.640625,-0.546875 -0.640625,-0.9375 0,-0.5 0.3125,-1.71875 0.546875,-2.1875 0.3125,-0.578125 0.75,-0.953125 1.15625,-0.953125 0.640625,0 0.78125,0.8125 0.78125,0.875 0,0.0625 -0.015625,0.125 -0.03125,0.171875 z m 0,0"
             id="path8053" />
        </symbol>
        <symbol
           style="overflow:visible"
           overflow="visible"
           id="textext-c4c55bd3-2">
          <path
             inkscape:connector-curvature="0"
             style="stroke:none"
             d="m 3.515625,-1.265625 -0.234375,0 c -0.015625,0.15625 -0.09375,0.5625 -0.1875,0.625 -0.046875,0.046875 -0.578125,0.046875 -0.6875,0.046875 l -1.28125,0 c 0.734375,-0.640625 0.984375,-0.84375 1.390625,-1.171875 0.515625,-0.40625 1,-0.84375 1,-1.5 0,-0.84375 -0.734375,-1.359375 -1.625,-1.359375 -0.859375,0 -1.453125,0.609375 -1.453125,1.25 0,0.34375 0.296875,0.390625 0.375,0.390625 0.15625,0 0.359375,-0.125 0.359375,-0.375 0,-0.125 -0.046875,-0.375 -0.40625,-0.375 C 0.984375,-4.21875 1.453125,-4.375 1.78125,-4.375 c 0.703125,0 1.0625,0.546875 1.0625,1.109375 0,0.609375 -0.4375,1.078125 -0.65625,1.328125 L 0.515625,-0.265625 C 0.4375,-0.203125 0.4375,-0.1875 0.4375,0 l 2.875,0 z m 0,0"
             id="path8056" />
        </symbol>
      </g>
    </defs>
    <g
       id="textext-c4c55bd3-3">
      <g
         style="fill:#000000;fill-opacity:1"
         id="g8059">
        <use
           height="360"
           width="270"
           xlink:href="#textext-c4c55bd3-0"
           x="223.43201"
           y="134.765"
           id="use8061" />
      </g>
      <g
         style="fill:#000000;fill-opacity:1"
         id="g8063">
        <use
           height="360"
           width="270"
           xlink:href="#textext-c4c55bd3-1"
           x="228.41299"
           y="134.765"
           id="use8065" />
      </g>
      <g
         style="fill:#000000;fill-opacity:1"
         id="g8067">
        <use
           height="360"
           width="270"
           xlink:href="#textext-c4c55bd3-2"
           x="233.599"
           y="136.259"
           id="use8069" />
      </g>
    </g>
  </g>
  <g
     id="g8371"
     transform="matrix(1.007623,0,0,1,-91.256884,98.771255)"
     ns0:preamble=""
     ns0:text="\\o$d_1$">
    <defs
       id="defs8373">
      <g
         id="g8375">
        <symbol
           id="textext-70952ff0-0"
           overflow="visible"
           style="overflow:visible">
          <path
             id="path8378"
             d="m 4.375,-5.203125 -0.1875,-0.125 -0.65625,1.15625 C 3.296875,-4.3125 2.921875,-4.46875 2.5,-4.46875 c -1.1875,0 -2.15625,1.0625 -2.15625,2.34375 0,0.796875 0.40625,1.46875 0.9375,1.84375 l -0.609375,1.078125 -0.078125,0.09375 0.1875,0.125 0.6875,-1.171875 c 0.21875,0.125 0.59375,0.265625 1.015625,0.265625 1.1875,0 2.140625,-1 2.140625,-2.234375 0,-0.96875 -0.53125,-1.640625 -0.921875,-1.921875 z M 1.453125,-0.59375 C 1.09375,-1 1.03125,-1.578125 1.03125,-2.140625 c 0,-0.40625 0.03125,-0.96875 0.296875,-1.421875 C 1.625,-4.078125 2.125,-4.25 2.484375,-4.25 2.875,-4.25 3.1875,-4.0625 3.375,-3.90625 z M 3.53125,-3.734375 c 0.390625,0.46875 0.40625,1.1875 0.40625,1.59375 0,0.34375 0,0.9375 -0.28125,1.390625 C 3.359375,-0.296875 2.875,-0.109375 2.5,-0.109375 c -0.25,0 -0.59375,-0.0625 -0.875,-0.3125 z m 0,0"
             style="stroke:none"
             inkscape:connector-curvature="0" />
        </symbol>
        <symbol
           id="textext-70952ff0-1"
           overflow="visible"
           style="overflow:visible">
          <path
             id="path8381"
             d="m 5.140625,-6.8125 c 0,0 0,-0.109375 -0.125,-0.109375 -0.15625,0 -1.09375,0.09375 -1.265625,0.109375 -0.078125,0.015625 -0.140625,0.0625 -0.140625,0.1875 0,0.125 0.09375,0.125 0.234375,0.125 0.484375,0 0.5,0.0625 0.5,0.171875 L 4.3125,-6.125 3.71875,-3.765625 C 3.53125,-4.140625 3.25,-4.40625 2.796875,-4.40625 c -1.15625,0 -2.390625,1.46875 -2.390625,2.921875 0,0.9375 0.546875,1.59375 1.3125,1.59375 0.203125,0 0.703125,-0.046875 1.296875,-0.75 0.078125,0.421875 0.4375,0.75 0.90625,0.75 0.359375,0 0.578125,-0.234375 0.75,-0.546875 0.15625,-0.359375 0.296875,-0.96875 0.296875,-0.984375 0,-0.109375 -0.09375,-0.109375 -0.125,-0.109375 -0.09375,0 -0.109375,0.046875 -0.140625,0.1875 -0.171875,0.640625 -0.34375,1.234375 -0.75,1.234375 -0.28125,0 -0.296875,-0.265625 -0.296875,-0.453125 0,-0.25 0.015625,-0.3125 0.046875,-0.484375 z m -2.0625,5.625 C 3.015625,-1 3.015625,-0.984375 2.875,-0.8125 2.4375,-0.265625 2.03125,-0.109375 1.75,-0.109375 c -0.5,0 -0.640625,-0.546875 -0.640625,-0.9375 0,-0.5 0.3125,-1.71875 0.546875,-2.1875 0.3125,-0.578125 0.75,-0.953125 1.15625,-0.953125 0.640625,0 0.78125,0.8125 0.78125,0.875 0,0.0625 -0.015625,0.125 -0.03125,0.171875 z m 0,0"
             style="stroke:none"
             inkscape:connector-curvature="0" />
        </symbol>
        <symbol
           id="textext-70952ff0-2"
           overflow="visible"
           style="overflow:visible">
          <path
             id="path8384"
             d="m 2.328125,-4.4375 c 0,-0.1875 0,-0.1875 -0.203125,-0.1875 -0.453125,0.4375 -1.078125,0.4375 -1.359375,0.4375 l 0,0.25 c 0.15625,0 0.625,0 1,-0.1875 l 0,3.546875 c 0,0.234375 0,0.328125 -0.6875,0.328125 l -0.265625,0 0,0.25 c 0.125,0 0.984375,-0.03125 1.234375,-0.03125 0.21875,0 1.09375,0.03125 1.25,0.03125 l 0,-0.25 -0.265625,0 c -0.703125,0 -0.703125,-0.09375 -0.703125,-0.328125 z m 0,0"
             style="stroke:none"
             inkscape:connector-curvature="0" />
        </symbol>
      </g>
    </defs>
    <g
       id="textext-70952ff0-3">
      <g
         id="g8387"
         style="fill:#000000;fill-opacity:1">
        <use
           id="use8389"
           y="134.765"
           x="223.43201"
           xlink:href="#textext-70952ff0-0"
           width="270"
           height="360" />
      </g>
      <g
         id="g8391"
         style="fill:#000000;fill-opacity:1">
        <use
           id="use8393"
           y="134.765"
           x="228.41299"
           xlink:href="#textext-70952ff0-1"
           width="270"
           height="360" />
      </g>
      <g
         id="g8395"
         style="fill:#000000;fill-opacity:1">
        <use
           id="use8397"
           y="136.259"
           x="233.599"
           xlink:href="#textext-70952ff0-2"
           width="270"
           height="360" />
      </g>
    </g>
  </g>
  <g
     ns0:text="\\o$d_3$"
     ns0:preamble=""
     transform="translate(-50.981736,53.389532)"
     id="g8707">
    <defs
       id="defs8709">
      <g
         id="g8711">
        <symbol
           overflow="visible"
           id="textext-0fceeab9-0"
           style="overflow:visible">
          <path
             style="stroke:none"
             d="m 4.375,-5.203125 -0.1875,-0.125 -0.65625,1.15625 C 3.296875,-4.3125 2.921875,-4.46875 2.5,-4.46875 c -1.1875,0 -2.15625,1.0625 -2.15625,2.34375 0,0.796875 0.40625,1.46875 0.9375,1.84375 l -0.609375,1.078125 -0.078125,0.09375 0.1875,0.125 0.6875,-1.171875 c 0.21875,0.125 0.59375,0.265625 1.015625,0.265625 1.1875,0 2.140625,-1 2.140625,-2.234375 0,-0.96875 -0.53125,-1.640625 -0.921875,-1.921875 z M 1.453125,-0.59375 C 1.09375,-1 1.03125,-1.578125 1.03125,-2.140625 c 0,-0.40625 0.03125,-0.96875 0.296875,-1.421875 C 1.625,-4.078125 2.125,-4.25 2.484375,-4.25 2.875,-4.25 3.1875,-4.0625 3.375,-3.90625 z M 3.53125,-3.734375 c 0.390625,0.46875 0.40625,1.1875 0.40625,1.59375 0,0.34375 0,0.9375 -0.28125,1.390625 C 3.359375,-0.296875 2.875,-0.109375 2.5,-0.109375 c -0.25,0 -0.59375,-0.0625 -0.875,-0.3125 z m 0,0"
             id="path8714"
             inkscape:connector-curvature="0" />
        </symbol>
        <symbol
           overflow="visible"
           id="textext-0fceeab9-1"
           style="overflow:visible">
          <path
             style="stroke:none"
             d="m 5.140625,-6.8125 c 0,0 0,-0.109375 -0.125,-0.109375 -0.15625,0 -1.09375,0.09375 -1.265625,0.109375 -0.078125,0.015625 -0.140625,0.0625 -0.140625,0.1875 0,0.125 0.09375,0.125 0.234375,0.125 0.484375,0 0.5,0.0625 0.5,0.171875 L 4.3125,-6.125 3.71875,-3.765625 C 3.53125,-4.140625 3.25,-4.40625 2.796875,-4.40625 c -1.15625,0 -2.390625,1.46875 -2.390625,2.921875 0,0.9375 0.546875,1.59375 1.3125,1.59375 0.203125,0 0.703125,-0.046875 1.296875,-0.75 0.078125,0.421875 0.4375,0.75 0.90625,0.75 0.359375,0 0.578125,-0.234375 0.75,-0.546875 0.15625,-0.359375 0.296875,-0.96875 0.296875,-0.984375 0,-0.109375 -0.09375,-0.109375 -0.125,-0.109375 -0.09375,0 -0.109375,0.046875 -0.140625,0.1875 -0.171875,0.640625 -0.34375,1.234375 -0.75,1.234375 -0.28125,0 -0.296875,-0.265625 -0.296875,-0.453125 0,-0.25 0.015625,-0.3125 0.046875,-0.484375 z m -2.0625,5.625 C 3.015625,-1 3.015625,-0.984375 2.875,-0.8125 2.4375,-0.265625 2.03125,-0.109375 1.75,-0.109375 c -0.5,0 -0.640625,-0.546875 -0.640625,-0.9375 0,-0.5 0.3125,-1.71875 0.546875,-2.1875 0.3125,-0.578125 0.75,-0.953125 1.15625,-0.953125 0.640625,0 0.78125,0.8125 0.78125,0.875 0,0.0625 -0.015625,0.125 -0.03125,0.171875 z m 0,0"
             id="path8717"
             inkscape:connector-curvature="0" />
        </symbol>
        <symbol
           overflow="visible"
           id="textext-0fceeab9-2"
           style="overflow:visible">
          <path
             style="stroke:none"
             d="m 1.90625,-2.328125 c 0.546875,0 0.9375,0.375 0.9375,1.125 0,0.859375 -0.515625,1.125 -0.90625,1.125 -0.28125,0 -0.90625,-0.078125 -1.1875,-0.5 0.328125,0 0.40625,-0.234375 0.40625,-0.390625 0,-0.21875 -0.171875,-0.375 -0.390625,-0.375 -0.1875,0 -0.390625,0.125 -0.390625,0.40625 0,0.65625 0.71875,1.078125 1.5625,1.078125 0.96875,0 1.640625,-0.65625 1.640625,-1.34375 0,-0.546875 -0.4375,-1.09375 -1.203125,-1.25 0.71875,-0.265625 0.984375,-0.78125 0.984375,-1.21875 0,-0.546875 -0.625,-0.953125 -1.40625,-0.953125 -0.765625,0 -1.359375,0.375 -1.359375,0.9375 0,0.234375 0.15625,0.359375 0.359375,0.359375 0.21875,0 0.359375,-0.15625 0.359375,-0.34375 0,-0.203125 -0.140625,-0.359375 -0.359375,-0.375 0.25,-0.296875 0.71875,-0.375 0.984375,-0.375 0.3125,0 0.75,0.15625 0.75,0.75 0,0.296875 -0.09375,0.625 -0.28125,0.828125 -0.21875,0.265625 -0.421875,0.28125 -0.765625,0.3125 -0.171875,0.015625 -0.1875,0.015625 -0.21875,0.015625 -0.015625,0 -0.078125,0.015625 -0.078125,0.09375 0,0.09375 0.0625,0.09375 0.1875,0.09375 z m 0,0"
             id="path8720"
             inkscape:connector-curvature="0" />
        </symbol>
      </g>
    </defs>
    <g
       id="textext-0fceeab9-3">
      <g
         style="fill:#000000;fill-opacity:1"
         id="g8723">
        <use
           xlink:href="#textext-0fceeab9-0"
           x="223.43201"
           y="134.765"
           id="use8725"
           width="270"
           height="360" />
      </g>
      <g
         style="fill:#000000;fill-opacity:1"
         id="g8727">
        <use
           xlink:href="#textext-0fceeab9-1"
           x="228.41299"
           y="134.765"
           id="use8729"
           width="270"
           height="360" />
      </g>
      <g
         style="fill:#000000;fill-opacity:1"
         id="g8731">
        <use
           xlink:href="#textext-0fceeab9-2"
           x="233.599"
           y="136.259"
           id="use8733"
           width="270"
           height="360" />
      </g>
    </g>
  </g>
  <g
     id="g9051"
     transform="translate(-139.94195,98.170175)"
     ns0:preamble=""
     ns0:text="\\o$d_4$">
    <defs
       id="defs9053">
      <g
         id="g9055">
        <symbol
           id="textext-b397087c-0"
           overflow="visible"
           style="overflow:visible">
          <path
             id="path9058"
             d="m 4.375,-5.203125 -0.1875,-0.125 -0.65625,1.15625 C 3.296875,-4.3125 2.921875,-4.46875 2.5,-4.46875 c -1.1875,0 -2.15625,1.0625 -2.15625,2.34375 0,0.796875 0.40625,1.46875 0.9375,1.84375 l -0.609375,1.078125 -0.078125,0.09375 0.1875,0.125 0.6875,-1.171875 c 0.21875,0.125 0.59375,0.265625 1.015625,0.265625 1.1875,0 2.140625,-1 2.140625,-2.234375 0,-0.96875 -0.53125,-1.640625 -0.921875,-1.921875 z M 1.453125,-0.59375 C 1.09375,-1 1.03125,-1.578125 1.03125,-2.140625 c 0,-0.40625 0.03125,-0.96875 0.296875,-1.421875 C 1.625,-4.078125 2.125,-4.25 2.484375,-4.25 2.875,-4.25 3.1875,-4.0625 3.375,-3.90625 z M 3.53125,-3.734375 c 0.390625,0.46875 0.40625,1.1875 0.40625,1.59375 0,0.34375 0,0.9375 -0.28125,1.390625 C 3.359375,-0.296875 2.875,-0.109375 2.5,-0.109375 c -0.25,0 -0.59375,-0.0625 -0.875,-0.3125 z m 0,0"
             style="stroke:none"
             inkscape:connector-curvature="0" />
        </symbol>
        <symbol
           id="textext-b397087c-1"
           overflow="visible"
           style="overflow:visible">
          <path
             id="path9061"
             d="m 5.140625,-6.8125 c 0,0 0,-0.109375 -0.125,-0.109375 -0.15625,0 -1.09375,0.09375 -1.265625,0.109375 -0.078125,0.015625 -0.140625,0.0625 -0.140625,0.1875 0,0.125 0.09375,0.125 0.234375,0.125 0.484375,0 0.5,0.0625 0.5,0.171875 L 4.3125,-6.125 3.71875,-3.765625 C 3.53125,-4.140625 3.25,-4.40625 2.796875,-4.40625 c -1.15625,0 -2.390625,1.46875 -2.390625,2.921875 0,0.9375 0.546875,1.59375 1.3125,1.59375 0.203125,0 0.703125,-0.046875 1.296875,-0.75 0.078125,0.421875 0.4375,0.75 0.90625,0.75 0.359375,0 0.578125,-0.234375 0.75,-0.546875 0.15625,-0.359375 0.296875,-0.96875 0.296875,-0.984375 0,-0.109375 -0.09375,-0.109375 -0.125,-0.109375 -0.09375,0 -0.109375,0.046875 -0.140625,0.1875 -0.171875,0.640625 -0.34375,1.234375 -0.75,1.234375 -0.28125,0 -0.296875,-0.265625 -0.296875,-0.453125 0,-0.25 0.015625,-0.3125 0.046875,-0.484375 z m -2.0625,5.625 C 3.015625,-1 3.015625,-0.984375 2.875,-0.8125 2.4375,-0.265625 2.03125,-0.109375 1.75,-0.109375 c -0.5,0 -0.640625,-0.546875 -0.640625,-0.9375 0,-0.5 0.3125,-1.71875 0.546875,-2.1875 0.3125,-0.578125 0.75,-0.953125 1.15625,-0.953125 0.640625,0 0.78125,0.8125 0.78125,0.875 0,0.0625 -0.015625,0.125 -0.03125,0.171875 z m 0,0"
             style="stroke:none"
             inkscape:connector-curvature="0" />
        </symbol>
        <symbol
           id="textext-b397087c-2"
           overflow="visible"
           style="overflow:visible">
          <path
             id="path9064"
             d="m 3.6875,-1.140625 0,-0.25 -0.78125,0 0,-3.109375 c 0,-0.140625 0,-0.203125 -0.140625,-0.203125 -0.09375,0 -0.125,0 -0.1875,0.109375 l -2.3125,3.203125 0,0.25 2.0625,0 0,0.5625 c 0,0.25 0,0.328125 -0.578125,0.328125 l -0.1875,0 0,0.25 C 1.921875,-0.015625 2.359375,-0.03125 2.609375,-0.03125 2.875,-0.03125 3.3125,-0.015625 3.671875,0 l 0,-0.25 -0.1875,0 C 2.90625,-0.25 2.90625,-0.328125 2.90625,-0.578125 l 0,-0.5625 z M 2.375,-3.9375 l 0,2.546875 -1.84375,0 z m 0,0"
             style="stroke:none"
             inkscape:connector-curvature="0" />
        </symbol>
      </g>
    </defs>
    <g
       id="textext-b397087c-3">
      <g
         id="g9067"
         style="fill:#000000;fill-opacity:1">
        <use
           id="use9069"
           y="134.765"
           x="223.43201"
           xlink:href="#textext-b397087c-0"
           width="270"
           height="360" />
      </g>
      <g
         id="g9071"
         style="fill:#000000;fill-opacity:1">
        <use
           id="use9073"
           y="134.765"
           x="228.41299"
           xlink:href="#textext-b397087c-1"
           width="270"
           height="360" />
      </g>
      <g
         id="g9075"
         style="fill:#000000;fill-opacity:1">
        <use
           id="use9077"
           y="136.259"
           x="233.599"
           xlink:href="#textext-b397087c-2"
           width="270"
           height="360" />
      </g>
    </g>
  </g>
</svg>
