<?xml version="1.0" encoding="UTF-8" standalone="no"?>
<!-- Created with Inkscape (http://www.inkscape.org/) -->

<svg
   xmlns:ns0="http://www.iki.fi/pav/software/textext/"
   xmlns:dc="http://purl.org/dc/elements/1.1/"
   xmlns:cc="http://creativecommons.org/ns#"
   xmlns:rdf="http://www.w3.org/1999/02/22-rdf-syntax-ns#"
   xmlns:svg="http://www.w3.org/2000/svg"
   xmlns="http://www.w3.org/2000/svg"
   xmlns:xlink="http://www.w3.org/1999/xlink"
   xmlns:sodipodi="http://sodipodi.sourceforge.net/DTD/sodipodi-0.dtd"
   xmlns:inkscape="http://www.inkscape.org/namespaces/inkscape"
   id="svg2443"
   sodipodi:version="0.32"
   inkscape:version="0.48.2 r9819"
   width="320.625"
   height="240.46875"
   version="1.0"
   sodipodi:docname="BatavusBrowserDim.svg"
   inkscape:output_extension="org.inkscape.output.svg.inkscape"
   inkscape:export-filename="D:\Jason's Documents\TU Delft\MSNDC 2009\BatavusBrowserDim.png"
   inkscape:export-xdpi="45"
   inkscape:export-ydpi="45">
  <sodipodi:namedview
     inkscape:window-height="744"
     inkscape:window-width="1366"
     inkscape:pageshadow="2"
     inkscape:pageopacity="0.0"
     guidetolerance="10.0"
     gridtolerance="10.0"
     objecttolerance="10.0"
     borderopacity="1.0"
     bordercolor="#666666"
     pagecolor="#ffffff"
     id="base"
     showgrid="false"
     inkscape:zoom="2.245614"
     inkscape:cx="248.80211"
     inkscape:cy="120.23438"
     inkscape:window-x="0"
     inkscape:window-y="24"
     inkscape:current-layer="svg2443"
     inkscape:window-maximized="1" />
  <metadata
     id="metadata2448">
    <rdf:RDF>
      <cc:Work
         rdf:about="">
        <dc:format>image/svg+xml</dc:format>
        <dc:type
           rdf:resource="http://purl.org/dc/dcmitype/StillImage" />
      </cc:Work>
    </rdf:RDF>
  </metadata>
  <defs
     id="defs2446">
    <marker
       style="overflow:visible"
       id="Arrow1Send"
       refX="0"
       refY="0"
       orient="auto"
       inkscape:stockid="Arrow1Send">
      <path
         transform="matrix(-0.2,0,0,-0.2,-1.2,0)"
         style="fill-rule:evenodd;stroke:#000000;stroke-width:1pt;marker-start:none"
         d="M 0,0 L 5,-5 L -12.5,0 L 5,5 L 0,0 z"
         id="path3282" />
    </marker>
    <marker
       style="overflow:visible"
       id="Arrow1Sstart"
       refX="0"
       refY="0"
       orient="auto"
       inkscape:stockid="Arrow1Sstart">
      <path
         transform="matrix(0.2,0,0,0.2,1.2,0)"
         style="fill-rule:evenodd;stroke:#000000;stroke-width:1pt;marker-start:none"
         d="M 0,0 L 5,-5 L -12.5,0 L 5,5 L 0,0 z"
         id="path3279" />
    </marker>
    <marker
       style="overflow:visible"
       id="Arrow1Mend"
       refX="0"
       refY="0"
       orient="auto"
       inkscape:stockid="Arrow1Mend">
      <path
         transform="matrix(-0.4,0,0,-0.4,-4,0)"
         style="fill-rule:evenodd;stroke:#000000;stroke-width:1pt;marker-start:none"
         d="M 0,0 L 5,-5 L -12.5,0 L 5,5 L 0,0 z"
         id="path3276" />
    </marker>
    <marker
       style="overflow:visible"
       id="Arrow1Mstart"
       refX="0"
       refY="0"
       orient="auto"
       inkscape:stockid="Arrow1Mstart">
      <path
         transform="matrix(0.4,0,0,0.4,4,0)"
         style="fill-rule:evenodd;stroke:#000000;stroke-width:1pt;marker-start:none"
         d="M 0,0 L 5,-5 L -12.5,0 L 5,5 L 0,0 z"
         id="path3273" />
    </marker>
    <inkscape:perspective
       id="perspective2450"
       inkscape:persp3d-origin="372.04724 : 350.78739 : 1"
       inkscape:vp_z="744.09448 : 526.18109 : 1"
       inkscape:vp_y="0 : 1000 : 0"
       inkscape:vp_x="0 : 526.18109 : 1"
       sodipodi:type="inkscape:persp3d" />
  </defs>
  <path
     transform="matrix(0.1756678,0,0,0.173066,-117.13014,-59.71405)"
     d="M 2390.3223,1253.3334 A 301.43341,311.11111 0 1 1 1787.4555,1253.3334 A 301.43341,311.11111 0 1 1 2390.3223,1253.3334 z"
     sodipodi:ry="311.11111"
     sodipodi:rx="301.43341"
     sodipodi:cy="1253.3334"
     sodipodi:cx="2088.8889"
     id="path2454"
     style="fill:none;fill-opacity:1;stroke:#000000;stroke-width:14.54371165999999960;stroke-miterlimit:4;stroke-dasharray:none;stroke-opacity:1"
     sodipodi:type="arc" />
  <path
     transform="matrix(0.1103238,0,0,0.1172013,4.0830979,6.91215)"
     d="M 1105.7778,1274.6666 A 488.88889,464 0 1 1 128.00003,1274.6666 A 488.88889,464 0 1 1 1105.7778,1274.6666 z"
     sodipodi:ry="464"
     sodipodi:rx="488.88889"
     sodipodi:cy="1274.6666"
     sodipodi:cx="616.88892"
     id="path2456"
     style="fill:none;fill-opacity:1;stroke:#000000;stroke-width:21.21814155999999940;stroke-miterlimit:4;stroke-dasharray:none;stroke-opacity:1"
     sodipodi:type="arc" />
  <path
     sodipodi:nodetypes="cc"
     id="path3230"
     d="M 101.97656,50.09765 L 144.94921,166.76955"
     style="fill:none;fill-rule:evenodd;stroke:#000000;stroke-width:2.50488280999999979;stroke-linecap:round;stroke-linejoin:round;stroke-miterlimit:4;stroke-dasharray:none;stroke-opacity:1" />
  <path
     sodipodi:nodetypes="ccc"
     id="path3234"
     d="M 207.29297,85.49995 L 186.36328,38.29685 L 168.77343,38.29685"
     style="fill:none;fill-rule:evenodd;stroke:#000000;stroke-width:2.50488280999999979;stroke-linecap:round;stroke-linejoin:round;stroke-miterlimit:4;stroke-dasharray:none;stroke-opacity:1" />
  <path
     sodipodi:nodetypes="cc"
     id="path3236"
     d="M 70.359375,212.80375 L 299.69531,213.24905"
     style="fill:none;fill-rule:evenodd;stroke:#000000;stroke-width:1.25244141000000009;stroke-linecap:butt;stroke-linejoin:miter;marker-start:none;marker-mid:none;marker-end:url(#Arrow1Send);stroke-miterlimit:4;stroke-dasharray:none;stroke-opacity:1" />
  <path
     sodipodi:nodetypes="cc"
     id="path3238"
     d="M 148.95704,167.88285 L 162.53907,167.88285"
     style="fill:none;fill-rule:evenodd;stroke:#000000;stroke-width:1.25244141000000009;stroke-linecap:butt;stroke-linejoin:miter;stroke-miterlimit:4;stroke-dasharray:none;stroke-opacity:1" />
  <path
     sodipodi:nodetypes="cc"
     id="path3242"
     d="M 157.41797,170.10935 L 157.19532,209.51955"
     style="fill:none;fill-rule:evenodd;stroke:#000000;stroke-width:1.25244141000000009;stroke-linecap:butt;stroke-linejoin:miter;marker-start:url(#Arrow1Sstart);marker-end:url(#Arrow1Send);stroke-miterlimit:4;stroke-dasharray:none;stroke-opacity:1" />
  <path
     sodipodi:nodetypes="cc"
     id="path3244"
     d="M 69.691406,175.00785 L 140.9414,183.02345"
     style="fill:none;fill-rule:evenodd;stroke:#000000;stroke-width:1.25244141000000009;stroke-linecap:butt;stroke-linejoin:miter;marker-start:url(#Arrow1Sstart);marker-end:url(#Arrow1Send);stroke-miterlimit:4;stroke-dasharray:none;stroke-opacity:1" />
  <path
     sodipodi:nodetypes="cc"
     id="path3246"
     d="M 221.32031,92.62495 L 261.6211,150.73825"
     style="fill:none;fill-rule:evenodd;stroke:#000000;stroke-width:1.25244141000000009;stroke-linecap:butt;stroke-linejoin:miter;marker-start:url(#Arrow1Sstart);marker-mid:none;marker-end:url(#Arrow1Send);stroke-miterlimit:4;stroke-dasharray:none;stroke-opacity:1" />
  <path
     sodipodi:nodetypes="cc"
     id="path3250"
     d="M 171.00001,21.37505 L 185.25,21.59765"
     style="fill:none;fill-rule:evenodd;stroke:#000000;stroke-width:1.25244141;stroke-linecap:butt;stroke-linejoin:miter;marker-start:url(#Arrow1Sstart);marker-end:url(#Arrow1Send);stroke-miterlimit:4;stroke-dasharray:none;stroke-opacity:1" />
  <path
     sodipodi:nodetypes="cc"
     id="path3252"
     d="M 199.72266,34.95705 L 218.8711,76.81645"
     style="fill:none;fill-rule:evenodd;stroke:#000000;stroke-width:1.25244141000000009;stroke-linecap:butt;stroke-linejoin:miter;marker-start:url(#Arrow1Sstart);marker-end:url(#Arrow1Send);stroke-miterlimit:4;stroke-dasharray:none;stroke-opacity:1" />
  <path
     sodipodi:nodetypes="cc"
     id="path3254"
     d="M 209.51953,84.60935 L 223.54688,77.48435"
     style="fill:none;fill-rule:evenodd;stroke:#000000;stroke-width:1.25244141000000009;stroke-linecap:butt;stroke-linejoin:miter;stroke-miterlimit:4;stroke-dasharray:none;stroke-opacity:1" />
  <path
     sodipodi:nodetypes="cccc"
     id="path3256"
     d="M 186.36328,34.28905 L 186.8086,17.58985 M 201.94923,31.61715 L 188.81249,37.40625"
     style="fill:none;fill-rule:evenodd;stroke:#000000;stroke-width:1.25244141;stroke-linecap:butt;stroke-linejoin:miter;stroke-miterlimit:4;stroke-dasharray:none;stroke-opacity:1" />
  <path
     sodipodi:nodetypes="cc"
     id="path3258"
     d="M 169.21875,34.06645 L 169.88673,16.92185"
     style="fill:none;fill-rule:evenodd;stroke:#000000;stroke-width:1.25244141;stroke-linecap:butt;stroke-linejoin:miter;stroke-miterlimit:4;stroke-dasharray:none;stroke-opacity:1" />
  <path
     sodipodi:nodetypes="cc"
     id="path3260"
     d="M 214.41797,95.07425 L 224.21485,88.17185"
     style="fill:none;fill-rule:evenodd;stroke:#000000;stroke-width:1.25244141000000009;stroke-linecap:butt;stroke-linejoin:miter;stroke-miterlimit:4;stroke-dasharray:none;stroke-opacity:1" />
  <path
     sodipodi:nodetypes="cc"
     id="path3262"
     d="M 256.27734,157.41795 L 265.62891,150.96095"
     style="fill:none;fill-rule:evenodd;stroke:#000000;stroke-width:1.25244141000000009;stroke-linecap:butt;stroke-linejoin:miter;stroke-miterlimit:4;stroke-dasharray:none;stroke-opacity:1" />
  <path
     id="path14582"
     d="M 69.023437,162.53905 L 66.796875,178.12495"
     style="fill:none;fill-rule:evenodd;stroke:#000000;stroke-width:1.25244141000000009;stroke-linecap:butt;stroke-linejoin:miter;stroke-miterlimit:4;stroke-dasharray:none;stroke-opacity:1" />
  <path
     sodipodi:nodetypes="cc"
     id="path14584"
     d="M 144.72657,170.33205 L 141.83203,187.03125"
     style="fill:none;fill-rule:evenodd;stroke:#000000;stroke-width:1.25244141000000009;stroke-linecap:butt;stroke-linejoin:miter;stroke-miterlimit:4;stroke-dasharray:none;stroke-opacity:1" />
  <path
     sodipodi:nodetypes="cc"
     id="path15652"
     d="M 69.691407,159.19925 L 28.277344,182.13285"
     style="fill:none;fill-rule:evenodd;stroke:#000000;stroke-width:1.25244141000000009;stroke-linecap:round;stroke-linejoin:miter;marker-start:none;marker-end:url(#Arrow1Send);stroke-miterlimit:4;stroke-dasharray:none;stroke-opacity:1" />
  <path
     sodipodi:nodetypes="cc"
     id="path17253"
     d="M 212.1914,98.19145 L 261.17578,213.30465"
     style="fill:none;fill-rule:evenodd;stroke:#000000;stroke-width:1.25244141000000009;stroke-linecap:butt;stroke-linejoin:miter;stroke-miterlimit:4;stroke-dasharray:2.50488280999999979, 1.25244141000000009;stroke-dashoffset:0;stroke-opacity:1" />
  <path
     id="path17255"
     d="M 260.95313,216.64455 L 260.95313,224.88285"
     style="fill:none;fill-rule:evenodd;stroke:#000000;stroke-width:1.25244141000000009;stroke-linecap:butt;stroke-linejoin:miter;stroke-miterlimit:4;stroke-dasharray:none;stroke-opacity:1" />
  <path
     id="path17257"
     d="M 250.48828,216.64455 L 250.26562,224.88285"
     style="fill:none;fill-rule:evenodd;stroke:#000000;stroke-width:1.25244141000000009;stroke-linecap:butt;stroke-linejoin:miter;stroke-miterlimit:4;stroke-dasharray:none;stroke-opacity:1" />
  <path
     sodipodi:nodetypes="cc"
     id="path17259"
     d="M 251.82422,220.87505 L 260.4044,220.87505"
     style="fill:none;fill-rule:evenodd;stroke:#000000;stroke-width:1.25244141000000009;stroke-linecap:butt;stroke-linejoin:miter;marker-start:url(#Arrow1Sstart);marker-end:none;stroke-miterlimit:4;stroke-dasharray:none;stroke-opacity:1" />
  <path
     sodipodi:nodetypes="cc"
     id="path18333"
     d="M 104.87109,48.98435 L 115.55859,44.75395"
     style="fill:none;fill-rule:evenodd;stroke:#000000;stroke-width:1.25244141000000009;stroke-linecap:butt;stroke-linejoin:miter;stroke-miterlimit:4;stroke-dasharray:none;stroke-opacity:1" />
  <path
     sodipodi:nodetypes="cc"
     id="path18335"
     d="M 113.10937,48.31645 L 124.91016,79.71095"
     style="fill:none;fill-rule:evenodd;stroke:#000000;stroke-width:1.25244141000000009;stroke-linecap:butt;stroke-linejoin:miter;marker-start:url(#Arrow1Sstart);marker-end:url(#Arrow1Send);stroke-miterlimit:4;stroke-dasharray:none;stroke-opacity:1" />
  <path
     sodipodi:open="true"
     sodipodi:end="4.3304361"
     sodipodi:start="3.1968111"
     transform="matrix(0.1790021,0,0,0.1936236,-109.93477,-111.42615)"
     d="M 1777.9279,1659.5981 A 274.67169,253.9299 0 0 1 1949.8016,1437.9812"
     sodipodi:ry="253.9299"
     sodipodi:rx="274.67169"
     sodipodi:cy="1673.6125"
     sodipodi:cx="2052.1809"
     id="path8137"
     style="fill:none;fill-opacity:1;stroke:#000000;stroke-width:6.72743130000000011;marker-start:url(#Arrow1Sstart);marker-end:url(#Arrow1Send);stroke-miterlimit:4;stroke-dasharray:none;stroke-dashoffset:0;stroke-opacity:1"
     sodipodi:type="arc" />
  <path
     sodipodi:nodetypes="cc"
     id="path12940"
     d="M 70.848786,212.84465 L 70.848786,231.98005"
     style="fill:none;fill-rule:evenodd;stroke:#000000;stroke-width:1.25244141000000009;stroke-linecap:butt;stroke-linejoin:miter;marker-start:none;marker-mid:none;marker-end:url(#Arrow1Send);stroke-miterlimit:4;stroke-dasharray:none;stroke-opacity:1" />
  <path
     sodipodi:nodetypes="cc"
     id="path12942"
     d="M 73.390231,220.63105 L 248.44307,220.63105"
     style="fill:none;fill-rule:evenodd;stroke:#000000;stroke-width:1.25244141000000009;stroke-linecap:butt;stroke-linejoin:miter;marker-start:url(#Arrow1Sstart);marker-end:url(#Arrow1Send);stroke-miterlimit:4;stroke-dasharray:none;stroke-opacity:1" />
  <text
     id="text14014"
     y="133.802"
     x="2033.7778"
     style="font-size:40px;font-style:normal;font-weight:normal;fill:#000000;fill-opacity:1;stroke:none;stroke-width:1px;stroke-linecap:butt;stroke-linejoin:miter;stroke-opacity:1;font-family:Bitstream Vera Sans"
     xml:space="preserve"><tspan
       y="133.802"
       x="2033.7778"
       id="tspan14016"
       sodipodi:role="line" /></text>
  <path
     sodipodi:nodetypes="cc"
     id="path3248"
     d="M 296.57812,173.44925 L 253.65532,159.03135"
     style="fill:none;fill-rule:evenodd;stroke:#000000;stroke-width:1.25244141000000009;stroke-linecap:round;stroke-linejoin:miter;marker-start:url(#Arrow1Sstart);marker-end:none;stroke-miterlimit:4;stroke-dasharray:none;stroke-opacity:1" />
  <path
     sodipodi:nodetypes="cc"
     id="path3232"
     d="M 211.7461,97.07815 L 253.82812,158.97655"
     style="fill:none;fill-rule:evenodd;stroke:#000000;stroke-width:2.50488280999999979;stroke-linecap:round;stroke-linejoin:round;stroke-miterlimit:4;stroke-dasharray:none;stroke-opacity:1" />
  <path
     sodipodi:nodetypes="cccccc"
     id="path3228"
     d="M 207.51563,86.16795 L 114.89062,85.94535 L 70.136719,158.97655 L 145.17187,167.88285 L 211.96876,97.07815 L 207.51563,86.16795 z"
     style="fill:none;fill-rule:evenodd;stroke:#000000;stroke-width:2.50488280999999979;stroke-linecap:round;stroke-linejoin:round;stroke-miterlimit:4;stroke-dasharray:none;stroke-opacity:1" />
  <path
     transform="matrix(0.2448927,0,0,0.2480219,-92.870639,-145.15605)"
     sodipodi:open="true"
     sodipodi:end="4.3069752"
     sodipodi:start="3.1709459"
     d="M 691.70759,1431.5513 A 352.88889,348.44446 0 0 1 905.26542,1121.5785"
     sodipodi:ry="348.44446"
     sodipodi:rx="352.88889"
     sodipodi:cy="1441.7778"
     sodipodi:cx="1044.4445"
     id="path10806"
     style="fill:none;fill-opacity:1;stroke:#000000;stroke-width:5.08188104999999979;marker-start:url(#Arrow1Sstart);marker-end:url(#Arrow1Send);stroke-miterlimit:4;stroke-dasharray:none;stroke-dashoffset:0;stroke-opacity:1"
     sodipodi:type="arc" />
  <path
     sodipodi:nodetypes="cc"
     id="path18331"
     d="M 126.69141,83.49605 L 155.85937,161.42575"
     style="fill:none;fill-rule:evenodd;stroke:#000000;stroke-width:1.25244141000000009;stroke-linecap:butt;stroke-linejoin:miter;marker-start:url(#Arrow1Sstart);marker-end:url(#Arrow1Send);stroke-miterlimit:4;stroke-dasharray:none;stroke-opacity:1" />
  <path
     sodipodi:nodetypes="cc"
     id="path18327"
     d="M 118.23047,84.83205 L 129.14062,80.37895"
     style="fill:none;fill-rule:evenodd;stroke:#000000;stroke-width:1.25244141000000009;stroke-linecap:butt;stroke-linejoin:miter;stroke-miterlimit:4;stroke-dasharray:none;stroke-opacity:1" />
  <path
     sodipodi:nodetypes="cc"
     id="path18329"
     d="M 148.51172,166.10155 L 160.53516,161.64845"
     style="fill:none;fill-rule:evenodd;stroke:#000000;stroke-width:1.25244141000000009;stroke-linecap:butt;stroke-linejoin:miter;stroke-miterlimit:4;stroke-dasharray:none;stroke-opacity:1" />
  <path
     transform="matrix(0.1107012,0,0,0.1048748,13.414661,33.68815)"
     d="M 529.23015,1706.9252 A 11.313708,11.942248 0 1 1 506.60273,1706.9252 A 11.313708,11.942248 0 1 1 529.23015,1706.9252 z"
     sodipodi:ry="11.942248"
     sodipodi:rx="11.313708"
     sodipodi:cy="1706.9252"
     sodipodi:cx="517.91644"
     id="path2487"
     style="fill:#000000;fill-opacity:1;stroke:#000000;stroke-width:2;stroke-linecap:round;stroke-linejoin:round;stroke-miterlimit:4;stroke-dasharray:none;stroke-dashoffset:0;stroke-opacity:1"
     sodipodi:type="arc" />
  <g
     id="g7226"
     ns0:preamble=""
     ns0:text="$l_s$"
     transform="matrix(1.0019531,0,0,1.0019531,-7.7446039,-69.87355)"
     style="stroke:#000000;stroke-opacity:1">
    <defs
       id="defs7228">
      <g
         id="g7230">
        <symbol
           style="overflow:visible"
           id="textext-f9aa9fb8-0"
           overflow="visible">
          <path
             id="path7233"
             d=""
             style="stroke:none" />
        </symbol>
        <symbol
           style="overflow:visible"
           id="textext-f9aa9fb8-1"
           overflow="visible">
          <path
             id="path7236"
             d="M 2.578125,-6.8125 C 2.578125,-6.8125 2.578125,-6.921875 2.4375,-6.921875 C 2.21875,-6.921875 1.484375,-6.84375 1.21875,-6.8125 C 1.140625,-6.8125 1.03125,-6.796875 1.03125,-6.609375 C 1.03125,-6.5 1.140625,-6.5 1.28125,-6.5 C 1.765625,-6.5 1.78125,-6.40625 1.78125,-6.328125 L 1.75,-6.125 L 0.484375,-1.140625 C 0.453125,-1.03125 0.4375,-0.96875 0.4375,-0.8125 C 0.4375,-0.234375 0.875,0.109375 1.34375,0.109375 C 1.671875,0.109375 1.921875,-0.09375 2.09375,-0.453125 C 2.265625,-0.828125 2.390625,-1.40625 2.390625,-1.421875 C 2.390625,-1.53125 2.296875,-1.53125 2.265625,-1.53125 C 2.171875,-1.53125 2.15625,-1.484375 2.140625,-1.34375 C 1.96875,-0.703125 1.78125,-0.109375 1.375,-0.109375 C 1.078125,-0.109375 1.078125,-0.421875 1.078125,-0.5625 C 1.078125,-0.8125 1.09375,-0.859375 1.140625,-1.046875 L 2.578125,-6.8125 z"
             style="stroke:none" />
        </symbol>
        <symbol
           style="overflow:visible"
           id="textext-f9aa9fb8-2"
           overflow="visible">
          <path
             id="path7239"
             d=""
             style="stroke:none" />
        </symbol>
        <symbol
           style="overflow:visible"
           id="textext-f9aa9fb8-3"
           overflow="visible">
          <path
             id="path7242"
             d="M 3,-2.625 C 2.828125,-2.578125 2.703125,-2.4375 2.703125,-2.296875 C 2.703125,-2.125 2.84375,-2.0625 2.9375,-2.0625 C 3.015625,-2.0625 3.28125,-2.109375 3.28125,-2.46875 C 3.28125,-2.921875 2.78125,-3.078125 2.34375,-3.078125 C 1.265625,-3.078125 1.0625,-2.265625 1.0625,-2.0625 C 1.0625,-1.796875 1.21875,-1.625 1.3125,-1.546875 C 1.484375,-1.40625 1.609375,-1.375 2.09375,-1.296875 C 2.25,-1.265625 2.6875,-1.1875 2.6875,-0.84375 C 2.6875,-0.71875 2.609375,-0.453125 2.328125,-0.28125 C 2.046875,-0.125 1.703125,-0.125 1.625,-0.125 C 1.34375,-0.125 0.953125,-0.1875 0.78125,-0.421875 C 1.015625,-0.453125 1.171875,-0.625 1.171875,-0.8125 C 1.171875,-0.984375 1.046875,-1.078125 0.90625,-1.078125 C 0.703125,-1.078125 0.5,-0.90625 0.5,-0.609375 C 0.5,-0.1875 0.9375,0.0625 1.609375,0.0625 C 2.90625,0.0625 3.140625,-0.8125 3.140625,-1.078125 C 3.140625,-1.71875 2.4375,-1.84375 2.171875,-1.890625 C 2.109375,-1.90625 1.9375,-1.9375 1.890625,-1.953125 C 1.640625,-2 1.515625,-2.140625 1.515625,-2.296875 C 1.515625,-2.453125 1.640625,-2.640625 1.796875,-2.75 C 1.984375,-2.859375 2.21875,-2.875 2.34375,-2.875 C 2.484375,-2.875 2.84375,-2.859375 3,-2.625 z"
             style="stroke:none" />
        </symbol>
      </g>
    </defs>
    <g
       id="textext-f9aa9fb8-4"
       style="stroke:#000000;stroke-opacity:1">
      <g
         id="g7245"
         style="fill:#000000;fill-opacity:1;stroke:#000000;stroke-opacity:1">
        <use
           height="1920"
           width="2560"
           id="use7247"
           y="134.765"
           x="223.43201"
           xlink:href="#textext-f9aa9fb8-1"
           style="stroke:#000000;stroke-opacity:1" />
      </g>
      <g
         id="g7249"
         style="fill:#000000;fill-opacity:1;stroke:#000000;stroke-opacity:1">
        <use
           height="1920"
           width="2560"
           id="use7251"
           y="136.259"
           x="226.405"
           xlink:href="#textext-f9aa9fb8-3"
           style="stroke:#000000;stroke-opacity:1" />
      </g>
    </g>
  </g>
  <g
     transform="matrix(1.0019531,0,0,1.0019531,-50.521519,-118.94035)"
     ns0:text="$l_{hb}$"
     ns0:preamble=""
     id="g7485">
    <defs
       id="defs7487">
      <g
         id="g7489">
        <symbol
           style="overflow:visible"
           overflow="visible"
           id="textext-1e0f97e2-0">
          <path
             style="stroke:none"
             d=""
             id="path7492" />
        </symbol>
        <symbol
           style="overflow:visible"
           overflow="visible"
           id="textext-1e0f97e2-1">
          <path
             style="stroke:none"
             d="M 2.578125,-6.8125 C 2.578125,-6.8125 2.578125,-6.921875 2.4375,-6.921875 C 2.21875,-6.921875 1.484375,-6.84375 1.21875,-6.8125 C 1.140625,-6.8125 1.03125,-6.796875 1.03125,-6.609375 C 1.03125,-6.5 1.140625,-6.5 1.28125,-6.5 C 1.765625,-6.5 1.78125,-6.40625 1.78125,-6.328125 L 1.75,-6.125 L 0.484375,-1.140625 C 0.453125,-1.03125 0.4375,-0.96875 0.4375,-0.8125 C 0.4375,-0.234375 0.875,0.109375 1.34375,0.109375 C 1.671875,0.109375 1.921875,-0.09375 2.09375,-0.453125 C 2.265625,-0.828125 2.390625,-1.40625 2.390625,-1.421875 C 2.390625,-1.53125 2.296875,-1.53125 2.265625,-1.53125 C 2.171875,-1.53125 2.15625,-1.484375 2.140625,-1.34375 C 1.96875,-0.703125 1.78125,-0.109375 1.375,-0.109375 C 1.078125,-0.109375 1.078125,-0.421875 1.078125,-0.5625 C 1.078125,-0.8125 1.09375,-0.859375 1.140625,-1.046875 L 2.578125,-6.8125 z"
             id="path7495" />
        </symbol>
        <symbol
           style="overflow:visible"
           overflow="visible"
           id="textext-1e0f97e2-2">
          <path
             style="stroke:none"
             d=""
             id="path7498" />
        </symbol>
        <symbol
           style="overflow:visible"
           overflow="visible"
           id="textext-1e0f97e2-3">
          <path
             style="stroke:none"
             d="M 2.1875,-4.625 C 2.1875,-4.640625 2.203125,-4.734375 2.203125,-4.734375 C 2.203125,-4.78125 2.1875,-4.84375 2.09375,-4.84375 C 1.953125,-4.84375 1.375,-4.78125 1.203125,-4.765625 C 1.15625,-4.765625 1.046875,-4.75 1.046875,-4.609375 C 1.046875,-4.515625 1.15625,-4.515625 1.234375,-4.515625 C 1.5625,-4.515625 1.5625,-4.453125 1.5625,-4.40625 C 1.5625,-4.359375 1.546875,-4.3125 1.546875,-4.25 L 0.5625,-0.3125 C 0.515625,-0.1875 0.515625,-0.171875 0.515625,-0.15625 C 0.515625,-0.046875 0.609375,0.0625 0.765625,0.0625 C 0.84375,0.0625 0.96875,0.03125 1.046875,-0.109375 C 1.0625,-0.15625 1.125,-0.40625 1.15625,-0.546875 L 1.328125,-1.171875 C 1.34375,-1.28125 1.421875,-1.546875 1.4375,-1.640625 C 1.5,-1.90625 1.5,-1.921875 1.640625,-2.140625 C 1.875,-2.484375 2.21875,-2.875 2.765625,-2.875 C 3.15625,-2.875 3.171875,-2.5625 3.171875,-2.390625 C 3.171875,-1.96875 2.875,-1.203125 2.765625,-0.90625 C 2.6875,-0.703125 2.65625,-0.640625 2.65625,-0.53125 C 2.65625,-0.15625 2.96875,0.0625 3.3125,0.0625 C 4.015625,0.0625 4.328125,-0.890625 4.328125,-1 C 4.328125,-1.09375 4.234375,-1.09375 4.203125,-1.09375 C 4.109375,-1.09375 4.109375,-1.046875 4.078125,-0.96875 C 3.921875,-0.40625 3.609375,-0.125 3.34375,-0.125 C 3.1875,-0.125 3.15625,-0.21875 3.15625,-0.375 C 3.15625,-0.53125 3.203125,-0.625 3.328125,-0.9375 C 3.40625,-1.15625 3.6875,-1.890625 3.6875,-2.28125 C 3.6875,-2.390625 3.6875,-2.6875 3.4375,-2.890625 C 3.3125,-2.96875 3.109375,-3.078125 2.78125,-3.078125 C 2.28125,-3.078125 1.90625,-2.796875 1.65625,-2.5 L 2.1875,-4.625 z"
             id="path7501" />
        </symbol>
        <symbol
           style="overflow:visible"
           overflow="visible"
           id="textext-1e0f97e2-4">
          <path
             style="stroke:none"
             d="M 1.84375,-4.625 C 1.84375,-4.640625 1.875,-4.734375 1.875,-4.734375 C 1.875,-4.78125 1.84375,-4.84375 1.75,-4.84375 C 1.609375,-4.84375 1.03125,-4.78125 0.859375,-4.765625 C 0.8125,-4.765625 0.703125,-4.75 0.703125,-4.609375 C 0.703125,-4.515625 0.8125,-4.515625 0.890625,-4.515625 C 1.21875,-4.515625 1.21875,-4.453125 1.21875,-4.40625 C 1.21875,-4.359375 1.15625,-4.078125 1.109375,-3.921875 L 0.953125,-3.28125 C 0.890625,-3.03125 0.515625,-1.515625 0.5,-1.421875 C 0.453125,-1.25 0.453125,-1.15625 0.453125,-1.078125 C 0.453125,-0.375 0.90625,0.0625 1.484375,0.0625 C 2.359375,0.0625 3.28125,-0.875 3.28125,-1.90625 C 3.28125,-2.71875 2.71875,-3.078125 2.234375,-3.078125 C 1.875,-3.078125 1.5625,-2.875 1.359375,-2.6875 L 1.84375,-4.625 z M 1.484375,-0.125 C 1.15625,-0.125 0.953125,-0.421875 0.953125,-0.84375 C 0.953125,-1.09375 1.015625,-1.328125 1.21875,-2.125 C 1.25,-2.25 1.25,-2.265625 1.390625,-2.421875 C 1.65625,-2.71875 1.96875,-2.875 2.21875,-2.875 C 2.484375,-2.875 2.71875,-2.671875 2.71875,-2.203125 C 2.71875,-1.921875 2.578125,-1.203125 2.359375,-0.796875 C 2.1875,-0.453125 1.84375,-0.125 1.484375,-0.125 z"
             id="path7504" />
        </symbol>
      </g>
    </defs>
    <g
       id="textext-1e0f97e2-5">
      <g
         style="fill:#000000;fill-opacity:1"
         id="g7507">
        <use
           height="1920"
           width="2560"
           xlink:href="#textext-1e0f97e2-1"
           x="223.43201"
           y="134.765"
           id="use7509" />
      </g>
      <g
         style="fill:#000000;fill-opacity:1"
         id="g7511">
        <use
           height="1920"
           width="2560"
           xlink:href="#textext-1e0f97e2-3"
           x="226.405"
           y="136.259"
           id="use7513" />
        <use
           height="1920"
           width="2560"
           xlink:href="#textext-1e0f97e2-4"
           x="231.06908"
           y="136.259"
           id="use7515" />
      </g>
    </g>
  </g>
  <g
     id="g7780"
     ns0:preamble=""
     ns0:text="$l_{sp}$"
     transform="matrix(1.0019531,0,0,1.0019531,-99.303033,-65.57095)"
     style="stroke:#000000;stroke-opacity:1">
    <defs
       id="defs7782">
      <g
         id="g7784">
        <symbol
           id="textext-fe6e1251-0"
           overflow="visible"
           style="overflow:visible">
          <path
             id="path7787"
             d=""
             style="stroke:none" />
        </symbol>
        <symbol
           id="textext-fe6e1251-1"
           overflow="visible"
           style="overflow:visible">
          <path
             id="path7790"
             d="M 2.578125,-6.8125 C 2.578125,-6.8125 2.578125,-6.921875 2.4375,-6.921875 C 2.21875,-6.921875 1.484375,-6.84375 1.21875,-6.8125 C 1.140625,-6.8125 1.03125,-6.796875 1.03125,-6.609375 C 1.03125,-6.5 1.140625,-6.5 1.28125,-6.5 C 1.765625,-6.5 1.78125,-6.40625 1.78125,-6.328125 L 1.75,-6.125 L 0.484375,-1.140625 C 0.453125,-1.03125 0.4375,-0.96875 0.4375,-0.8125 C 0.4375,-0.234375 0.875,0.109375 1.34375,0.109375 C 1.671875,0.109375 1.921875,-0.09375 2.09375,-0.453125 C 2.265625,-0.828125 2.390625,-1.40625 2.390625,-1.421875 C 2.390625,-1.53125 2.296875,-1.53125 2.265625,-1.53125 C 2.171875,-1.53125 2.15625,-1.484375 2.140625,-1.34375 C 1.96875,-0.703125 1.78125,-0.109375 1.375,-0.109375 C 1.078125,-0.109375 1.078125,-0.421875 1.078125,-0.5625 C 1.078125,-0.8125 1.09375,-0.859375 1.140625,-1.046875 L 2.578125,-6.8125 z"
             style="stroke:none" />
        </symbol>
        <symbol
           id="textext-fe6e1251-2"
           overflow="visible"
           style="overflow:visible">
          <path
             id="path7793"
             d=""
             style="stroke:none" />
        </symbol>
        <symbol
           id="textext-fe6e1251-3"
           overflow="visible"
           style="overflow:visible">
          <path
             id="path7796"
             d="M 3,-2.625 C 2.828125,-2.578125 2.703125,-2.4375 2.703125,-2.296875 C 2.703125,-2.125 2.84375,-2.0625 2.9375,-2.0625 C 3.015625,-2.0625 3.28125,-2.109375 3.28125,-2.46875 C 3.28125,-2.921875 2.78125,-3.078125 2.34375,-3.078125 C 1.265625,-3.078125 1.0625,-2.265625 1.0625,-2.0625 C 1.0625,-1.796875 1.21875,-1.625 1.3125,-1.546875 C 1.484375,-1.40625 1.609375,-1.375 2.09375,-1.296875 C 2.25,-1.265625 2.6875,-1.1875 2.6875,-0.84375 C 2.6875,-0.71875 2.609375,-0.453125 2.328125,-0.28125 C 2.046875,-0.125 1.703125,-0.125 1.625,-0.125 C 1.34375,-0.125 0.953125,-0.1875 0.78125,-0.421875 C 1.015625,-0.453125 1.171875,-0.625 1.171875,-0.8125 C 1.171875,-0.984375 1.046875,-1.078125 0.90625,-1.078125 C 0.703125,-1.078125 0.5,-0.90625 0.5,-0.609375 C 0.5,-0.1875 0.9375,0.0625 1.609375,0.0625 C 2.90625,0.0625 3.140625,-0.8125 3.140625,-1.078125 C 3.140625,-1.71875 2.4375,-1.84375 2.171875,-1.890625 C 2.109375,-1.90625 1.9375,-1.9375 1.890625,-1.953125 C 1.640625,-2 1.515625,-2.140625 1.515625,-2.296875 C 1.515625,-2.453125 1.640625,-2.640625 1.796875,-2.75 C 1.984375,-2.859375 2.21875,-2.875 2.34375,-2.875 C 2.484375,-2.875 2.84375,-2.859375 3,-2.625 z"
             style="stroke:none" />
        </symbol>
        <symbol
           id="textext-fe6e1251-4"
           overflow="visible"
           style="overflow:visible">
          <path
             id="path7799"
             d="M 0.515625,0.84375 C 0.46875,1.046875 0.453125,1.09375 0.1875,1.09375 C 0.09375,1.09375 0,1.09375 0,1.25 C 0,1.328125 0.0625,1.359375 0.09375,1.359375 C 0.265625,1.359375 0.5,1.328125 0.6875,1.328125 C 0.921875,1.328125 1.1875,1.359375 1.421875,1.359375 C 1.484375,1.359375 1.5625,1.328125 1.5625,1.203125 C 1.5625,1.09375 1.46875,1.09375 1.375,1.09375 C 1.21875,1.09375 1.03125,1.09375 1.03125,1.015625 C 1.03125,0.984375 1.09375,0.796875 1.109375,0.703125 C 1.203125,0.328125 1.296875,-0.046875 1.375,-0.34375 C 1.453125,-0.203125 1.671875,0.0625 2.09375,0.0625 C 2.9375,0.0625 3.875,-0.875 3.875,-1.90625 C 3.875,-2.71875 3.3125,-3.078125 2.84375,-3.078125 C 2.40625,-3.078125 2.03125,-2.78125 1.84375,-2.578125 C 1.734375,-2.984375 1.34375,-3.078125 1.125,-3.078125 C 0.859375,-3.078125 0.6875,-2.890625 0.578125,-2.703125 C 0.4375,-2.46875 0.328125,-2.046875 0.328125,-2 C 0.328125,-1.921875 0.421875,-1.921875 0.453125,-1.921875 C 0.546875,-1.921875 0.546875,-1.9375 0.59375,-2.125 C 0.703125,-2.53125 0.84375,-2.875 1.109375,-2.875 C 1.296875,-2.875 1.34375,-2.71875 1.34375,-2.53125 C 1.34375,-2.453125 1.328125,-2.375 1.3125,-2.328125 L 0.515625,0.84375 z M 1.84375,-2.234375 C 2.25,-2.78125 2.59375,-2.875 2.8125,-2.875 C 3.09375,-2.875 3.328125,-2.671875 3.328125,-2.203125 C 3.328125,-1.921875 3.171875,-1.203125 2.96875,-0.796875 C 2.78125,-0.453125 2.453125,-0.125 2.09375,-0.125 C 1.59375,-0.125 1.46875,-0.65625 1.46875,-0.734375 C 1.46875,-0.765625 1.484375,-0.8125 1.484375,-0.84375 L 1.84375,-2.234375 z"
             style="stroke:none" />
        </symbol>
      </g>
    </defs>
    <g
       id="textext-fe6e1251-5"
       style="stroke:#000000;stroke-opacity:1">
      <g
         id="g7802"
         style="fill:#000000;fill-opacity:1;stroke:#000000;stroke-opacity:1">
        <use
           id="use7804"
           y="134.765"
           x="223.43201"
           xlink:href="#textext-fe6e1251-1"
           width="2560"
           height="1920"
           style="stroke:#000000;stroke-opacity:1" />
      </g>
      <g
         id="g7806"
         style="fill:#000000;fill-opacity:1;stroke:#000000;stroke-opacity:1">
        <use
           id="use7808"
           y="136.259"
           x="226.405"
           xlink:href="#textext-fe6e1251-3"
           width="2560"
           height="1920"
           style="stroke:#000000;stroke-opacity:1" />
        <use
           id="use7810"
           y="136.259"
           x="230.16527"
           xlink:href="#textext-fe6e1251-4"
           width="2560"
           height="1920"
           style="stroke:#000000;stroke-opacity:1" />
      </g>
    </g>
  </g>
  <g
     transform="matrix(1.0019531,0,0,1.0019531,-80.37178,-19.10335)"
     ns0:text="$l_{st}$"
     ns0:preamble=""
     id="g8102"
     style="stroke:#000000;stroke-opacity:1">
    <defs
       id="defs8104">
      <g
         id="g8106">
        <symbol
           style="overflow:visible"
           overflow="visible"
           id="textext-438d0afd-0">
          <path
             style="stroke:none"
             d=""
             id="path8109" />
        </symbol>
        <symbol
           style="overflow:visible"
           overflow="visible"
           id="textext-438d0afd-1">
          <path
             style="stroke:none"
             d="M 2.578125,-6.8125 C 2.578125,-6.8125 2.578125,-6.921875 2.4375,-6.921875 C 2.21875,-6.921875 1.484375,-6.84375 1.21875,-6.8125 C 1.140625,-6.8125 1.03125,-6.796875 1.03125,-6.609375 C 1.03125,-6.5 1.140625,-6.5 1.28125,-6.5 C 1.765625,-6.5 1.78125,-6.40625 1.78125,-6.328125 L 1.75,-6.125 L 0.484375,-1.140625 C 0.453125,-1.03125 0.4375,-0.96875 0.4375,-0.8125 C 0.4375,-0.234375 0.875,0.109375 1.34375,0.109375 C 1.671875,0.109375 1.921875,-0.09375 2.09375,-0.453125 C 2.265625,-0.828125 2.390625,-1.40625 2.390625,-1.421875 C 2.390625,-1.53125 2.296875,-1.53125 2.265625,-1.53125 C 2.171875,-1.53125 2.15625,-1.484375 2.140625,-1.34375 C 1.96875,-0.703125 1.78125,-0.109375 1.375,-0.109375 C 1.078125,-0.109375 1.078125,-0.421875 1.078125,-0.5625 C 1.078125,-0.8125 1.09375,-0.859375 1.140625,-1.046875 L 2.578125,-6.8125 z"
             id="path8112" />
        </symbol>
        <symbol
           style="overflow:visible"
           overflow="visible"
           id="textext-438d0afd-2">
          <path
             style="stroke:none"
             d=""
             id="path8115" />
        </symbol>
        <symbol
           style="overflow:visible"
           overflow="visible"
           id="textext-438d0afd-3">
          <path
             style="stroke:none"
             d="M 3,-2.625 C 2.828125,-2.578125 2.703125,-2.4375 2.703125,-2.296875 C 2.703125,-2.125 2.84375,-2.0625 2.9375,-2.0625 C 3.015625,-2.0625 3.28125,-2.109375 3.28125,-2.46875 C 3.28125,-2.921875 2.78125,-3.078125 2.34375,-3.078125 C 1.265625,-3.078125 1.0625,-2.265625 1.0625,-2.0625 C 1.0625,-1.796875 1.21875,-1.625 1.3125,-1.546875 C 1.484375,-1.40625 1.609375,-1.375 2.09375,-1.296875 C 2.25,-1.265625 2.6875,-1.1875 2.6875,-0.84375 C 2.6875,-0.71875 2.609375,-0.453125 2.328125,-0.28125 C 2.046875,-0.125 1.703125,-0.125 1.625,-0.125 C 1.34375,-0.125 0.953125,-0.1875 0.78125,-0.421875 C 1.015625,-0.453125 1.171875,-0.625 1.171875,-0.8125 C 1.171875,-0.984375 1.046875,-1.078125 0.90625,-1.078125 C 0.703125,-1.078125 0.5,-0.90625 0.5,-0.609375 C 0.5,-0.1875 0.9375,0.0625 1.609375,0.0625 C 2.90625,0.0625 3.140625,-0.8125 3.140625,-1.078125 C 3.140625,-1.71875 2.4375,-1.84375 2.171875,-1.890625 C 2.109375,-1.90625 1.9375,-1.9375 1.890625,-1.953125 C 1.640625,-2 1.515625,-2.140625 1.515625,-2.296875 C 1.515625,-2.453125 1.640625,-2.640625 1.796875,-2.75 C 1.984375,-2.859375 2.21875,-2.875 2.34375,-2.875 C 2.484375,-2.875 2.84375,-2.859375 3,-2.625 z"
             id="path8118" />
        </symbol>
        <symbol
           style="overflow:visible"
           overflow="visible"
           id="textext-438d0afd-4">
          <path
             style="stroke:none"
             d="M 1.71875,-2.75 L 2.421875,-2.75 C 2.5625,-2.75 2.640625,-2.75 2.640625,-2.90625 C 2.640625,-3 2.5625,-3 2.4375,-3 L 1.78125,-3 L 2.03125,-4.03125 C 2.046875,-4.0625 2.0625,-4.109375 2.0625,-4.125 C 2.0625,-4.265625 1.953125,-4.359375 1.8125,-4.359375 C 1.640625,-4.359375 1.546875,-4.234375 1.484375,-4.0625 C 1.4375,-3.875 1.53125,-4.21875 1.21875,-3 L 0.515625,-3 C 0.390625,-3 0.296875,-3 0.296875,-2.84375 C 0.296875,-2.75 0.375,-2.75 0.5,-2.75 L 1.15625,-2.75 C 1.03125,-2.203125 0.890625,-1.65625 0.75,-1.109375 C 0.703125,-0.9375 0.640625,-0.6875 0.640625,-0.59375 C 0.640625,-0.1875 1,0.0625 1.390625,0.0625 C 2.171875,0.0625 2.609375,-0.90625 2.609375,-1 C 2.609375,-1.09375 2.515625,-1.09375 2.5,-1.09375 C 2.40625,-1.09375 2.40625,-1.078125 2.34375,-0.953125 C 2.15625,-0.515625 1.796875,-0.125 1.421875,-0.125 C 1.265625,-0.125 1.171875,-0.21875 1.171875,-0.46875 C 1.171875,-0.53125 1.203125,-0.6875 1.21875,-0.75 L 1.71875,-2.75 z"
             id="path8121" />
        </symbol>
      </g>
    </defs>
    <g
       id="textext-438d0afd-5"
       style="stroke:#000000;stroke-opacity:1">
      <g
         style="fill:#000000;fill-opacity:1;stroke:#000000;stroke-opacity:1"
         id="g8124">
        <use
           height="1920"
           width="2560"
           xlink:href="#textext-438d0afd-1"
           x="223.43201"
           y="134.765"
           id="use8126"
           style="stroke:#000000;stroke-opacity:1" />
      </g>
      <g
         style="fill:#000000;fill-opacity:1;stroke:#000000;stroke-opacity:1"
         id="g8128">
        <use
           height="1920"
           width="2560"
           xlink:href="#textext-438d0afd-3"
           x="226.405"
           y="136.259"
           id="use8130"
           style="stroke:#000000;stroke-opacity:1" />
        <use
           height="1920"
           width="2560"
           xlink:href="#textext-438d0afd-4"
           x="230.16527"
           y="136.259"
           id="use8132"
           style="stroke:#000000;stroke-opacity:1" />
      </g>
    </g>
  </g>
  <g
     id="g8454"
     ns0:preamble=""
     ns0:text="$l_f$"
     transform="matrix(1.0019531,0,0,1.0019531,20.82438,-14.62865)"
     style="stroke:#000000;stroke-opacity:1">
    <defs
       id="defs8456">
      <g
         id="g8458">
        <symbol
           id="textext-59467c3a-0"
           overflow="visible"
           style="overflow:visible">
          <path
             id="path8461"
             d=""
             style="stroke:none" />
        </symbol>
        <symbol
           id="textext-59467c3a-1"
           overflow="visible"
           style="overflow:visible">
          <path
             id="path8464"
             d="M 2.578125,-6.8125 C 2.578125,-6.8125 2.578125,-6.921875 2.4375,-6.921875 C 2.21875,-6.921875 1.484375,-6.84375 1.21875,-6.8125 C 1.140625,-6.8125 1.03125,-6.796875 1.03125,-6.609375 C 1.03125,-6.5 1.140625,-6.5 1.28125,-6.5 C 1.765625,-6.5 1.78125,-6.40625 1.78125,-6.328125 L 1.75,-6.125 L 0.484375,-1.140625 C 0.453125,-1.03125 0.4375,-0.96875 0.4375,-0.8125 C 0.4375,-0.234375 0.875,0.109375 1.34375,0.109375 C 1.671875,0.109375 1.921875,-0.09375 2.09375,-0.453125 C 2.265625,-0.828125 2.390625,-1.40625 2.390625,-1.421875 C 2.390625,-1.53125 2.296875,-1.53125 2.265625,-1.53125 C 2.171875,-1.53125 2.15625,-1.484375 2.140625,-1.34375 C 1.96875,-0.703125 1.78125,-0.109375 1.375,-0.109375 C 1.078125,-0.109375 1.078125,-0.421875 1.078125,-0.5625 C 1.078125,-0.8125 1.09375,-0.859375 1.140625,-1.046875 L 2.578125,-6.8125 z"
             style="stroke:none" />
        </symbol>
        <symbol
           id="textext-59467c3a-2"
           overflow="visible"
           style="overflow:visible">
          <path
             id="path8467"
             d=""
             style="stroke:none" />
        </symbol>
        <symbol
           id="textext-59467c3a-3"
           overflow="visible"
           style="overflow:visible">
          <path
             id="path8470"
             d="M 2.84375,-2.75 L 3.515625,-2.75 C 3.65625,-2.75 3.75,-2.75 3.75,-2.90625 C 3.75,-3 3.65625,-3 3.53125,-3 L 2.890625,-3 C 3.046875,-3.890625 3.09375,-4.203125 3.15625,-4.40625 C 3.1875,-4.5625 3.34375,-4.703125 3.515625,-4.703125 C 3.515625,-4.703125 3.703125,-4.703125 3.84375,-4.625 C 3.546875,-4.53125 3.53125,-4.28125 3.53125,-4.25 C 3.53125,-4.09375 3.65625,-3.984375 3.8125,-3.984375 C 4,-3.984375 4.203125,-4.140625 4.203125,-4.40625 C 4.203125,-4.734375 3.875,-4.90625 3.515625,-4.90625 C 3.203125,-4.90625 2.859375,-4.734375 2.671875,-4.390625 C 2.53125,-4.125 2.484375,-3.8125 2.328125,-3 L 1.78125,-3 C 1.640625,-3 1.546875,-3 1.546875,-2.84375 C 1.546875,-2.75 1.640625,-2.75 1.765625,-2.75 L 2.28125,-2.75 C 2.28125,-2.703125 1.84375,-0.203125 1.671875,0.546875 C 1.640625,0.703125 1.515625,1.21875 1.1875,1.21875 C 1.171875,1.21875 1.015625,1.21875 0.875,1.140625 C 1.15625,1.046875 1.1875,0.796875 1.1875,0.765625 C 1.1875,0.609375 1.0625,0.5 0.90625,0.5 C 0.71875,0.5 0.515625,0.65625 0.515625,0.921875 C 0.515625,1.234375 0.84375,1.421875 1.1875,1.421875 C 1.625,1.421875 1.9375,0.96875 2.015625,0.8125 C 2.265625,0.34375 2.4375,-0.515625 2.453125,-0.59375 L 2.84375,-2.75 z"
             style="stroke:none" />
        </symbol>
      </g>
    </defs>
    <g
       id="textext-59467c3a-4"
       style="stroke:#000000;stroke-opacity:1">
      <g
         id="g8473"
         style="fill:#000000;fill-opacity:1;stroke:#000000;stroke-opacity:1">
        <use
           id="use8475"
           y="134.765"
           x="223.43201"
           xlink:href="#textext-59467c3a-1"
           width="2560"
           height="1920"
           style="stroke:#000000;stroke-opacity:1" />
      </g>
      <g
         id="g8477"
         style="fill:#000000;fill-opacity:1;stroke:#000000;stroke-opacity:1">
        <use
           id="use8479"
           y="136.259"
           x="226.405"
           xlink:href="#textext-59467c3a-3"
           width="2560"
           height="1920"
           style="stroke:#000000;stroke-opacity:1" />
      </g>
    </g>
  </g>
  <g
     id="g9220"
     ns0:preamble=""
     ns0:text="$\\lambda_{ht}$"
     transform="matrix(1.0019531,0,0,1.0019531,-16.020846,40.02145)"
     style="stroke:#000000;stroke-opacity:1">
    <defs
       id="defs9222">
      <g
         id="g9224">
        <symbol
           id="textext-65effc74-0"
           overflow="visible"
           style="overflow:visible">
          <path
             id="path9227"
             d=""
             style="stroke:none" />
        </symbol>
        <symbol
           id="textext-65effc74-1"
           overflow="visible"
           style="overflow:visible">
          <path
             id="path9230"
             d="M 3.5625,-2.90625 C 3.96875,-1.859375 4.453125,-0.34375 4.609375,-0.109375 C 4.765625,0.109375 4.859375,0.109375 5.140625,0.109375 L 5.359375,0.109375 C 5.453125,0.09375 5.46875,0.046875 5.46875,0.015625 C 5.46875,-0.015625 5.4375,-0.046875 5.40625,-0.078125 C 5.3125,-0.1875 5.25,-0.34375 5.1875,-0.53125 L 3.15625,-6.203125 C 2.9375,-6.78125 2.40625,-6.921875 1.9375,-6.921875 C 1.890625,-6.921875 1.75,-6.921875 1.75,-6.8125 C 1.75,-6.734375 1.828125,-6.703125 1.84375,-6.703125 C 2.171875,-6.65625 2.25,-6.59375 2.5,-5.90625 C 2.75,-5.1875 3.296875,-3.671875 3.453125,-3.203125 L 0.703125,-0.46875 C 0.59375,-0.34375 0.53125,-0.296875 0.53125,-0.15625 C 0.53125,0.015625 0.671875,0.125 0.828125,0.125 C 0.984375,0.125 1.078125,0.015625 1.15625,-0.078125 L 3.5625,-2.90625 z"
             style="stroke:none" />
        </symbol>
        <symbol
           id="textext-65effc74-2"
           overflow="visible"
           style="overflow:visible">
          <path
             id="path9233"
             d=""
             style="stroke:none" />
        </symbol>
        <symbol
           id="textext-65effc74-3"
           overflow="visible"
           style="overflow:visible">
          <path
             id="path9236"
             d="M 2.1875,-4.625 C 2.1875,-4.640625 2.203125,-4.734375 2.203125,-4.734375 C 2.203125,-4.78125 2.1875,-4.84375 2.09375,-4.84375 C 1.953125,-4.84375 1.375,-4.78125 1.203125,-4.765625 C 1.15625,-4.765625 1.046875,-4.75 1.046875,-4.609375 C 1.046875,-4.515625 1.15625,-4.515625 1.234375,-4.515625 C 1.5625,-4.515625 1.5625,-4.453125 1.5625,-4.40625 C 1.5625,-4.359375 1.546875,-4.3125 1.546875,-4.25 L 0.5625,-0.3125 C 0.515625,-0.1875 0.515625,-0.171875 0.515625,-0.15625 C 0.515625,-0.046875 0.609375,0.0625 0.765625,0.0625 C 0.84375,0.0625 0.96875,0.03125 1.046875,-0.109375 C 1.0625,-0.15625 1.125,-0.40625 1.15625,-0.546875 L 1.328125,-1.171875 C 1.34375,-1.28125 1.421875,-1.546875 1.4375,-1.640625 C 1.5,-1.90625 1.5,-1.921875 1.640625,-2.140625 C 1.875,-2.484375 2.21875,-2.875 2.765625,-2.875 C 3.15625,-2.875 3.171875,-2.5625 3.171875,-2.390625 C 3.171875,-1.96875 2.875,-1.203125 2.765625,-0.90625 C 2.6875,-0.703125 2.65625,-0.640625 2.65625,-0.53125 C 2.65625,-0.15625 2.96875,0.0625 3.3125,0.0625 C 4.015625,0.0625 4.328125,-0.890625 4.328125,-1 C 4.328125,-1.09375 4.234375,-1.09375 4.203125,-1.09375 C 4.109375,-1.09375 4.109375,-1.046875 4.078125,-0.96875 C 3.921875,-0.40625 3.609375,-0.125 3.34375,-0.125 C 3.1875,-0.125 3.15625,-0.21875 3.15625,-0.375 C 3.15625,-0.53125 3.203125,-0.625 3.328125,-0.9375 C 3.40625,-1.15625 3.6875,-1.890625 3.6875,-2.28125 C 3.6875,-2.390625 3.6875,-2.6875 3.4375,-2.890625 C 3.3125,-2.96875 3.109375,-3.078125 2.78125,-3.078125 C 2.28125,-3.078125 1.90625,-2.796875 1.65625,-2.5 L 2.1875,-4.625 z"
             style="stroke:none" />
        </symbol>
        <symbol
           id="textext-65effc74-4"
           overflow="visible"
           style="overflow:visible">
          <path
             id="path9239"
             d="M 1.71875,-2.75 L 2.421875,-2.75 C 2.5625,-2.75 2.640625,-2.75 2.640625,-2.90625 C 2.640625,-3 2.5625,-3 2.4375,-3 L 1.78125,-3 L 2.03125,-4.03125 C 2.046875,-4.0625 2.0625,-4.109375 2.0625,-4.125 C 2.0625,-4.265625 1.953125,-4.359375 1.8125,-4.359375 C 1.640625,-4.359375 1.546875,-4.234375 1.484375,-4.0625 C 1.4375,-3.875 1.53125,-4.21875 1.21875,-3 L 0.515625,-3 C 0.390625,-3 0.296875,-3 0.296875,-2.84375 C 0.296875,-2.75 0.375,-2.75 0.5,-2.75 L 1.15625,-2.75 C 1.03125,-2.203125 0.890625,-1.65625 0.75,-1.109375 C 0.703125,-0.9375 0.640625,-0.6875 0.640625,-0.59375 C 0.640625,-0.1875 1,0.0625 1.390625,0.0625 C 2.171875,0.0625 2.609375,-0.90625 2.609375,-1 C 2.609375,-1.09375 2.515625,-1.09375 2.5,-1.09375 C 2.40625,-1.09375 2.40625,-1.078125 2.34375,-0.953125 C 2.15625,-0.515625 1.796875,-0.125 1.421875,-0.125 C 1.265625,-0.125 1.171875,-0.21875 1.171875,-0.46875 C 1.171875,-0.53125 1.203125,-0.6875 1.21875,-0.75 L 1.71875,-2.75 z"
             style="stroke:none" />
        </symbol>
      </g>
    </defs>
    <g
       id="textext-65effc74-5"
       style="stroke:#000000;stroke-opacity:1">
      <g
         id="g9242"
         style="fill:#000000;fill-opacity:1;stroke:#000000;stroke-opacity:1">
        <use
           id="use9244"
           y="134.765"
           x="223.43201"
           xlink:href="#textext-65effc74-1"
           width="2560"
           height="1920"
           style="stroke:#000000;stroke-opacity:1" />
      </g>
      <g
         id="g9246"
         style="fill:#000000;fill-opacity:1;stroke:#000000;stroke-opacity:1">
        <use
           id="use9248"
           y="136.259"
           x="229.244"
           xlink:href="#textext-65effc74-3"
           width="2560"
           height="1920"
           style="stroke:#000000;stroke-opacity:1" />
        <use
           id="use9250"
           y="136.259"
           x="233.90808"
           xlink:href="#textext-65effc74-4"
           width="2560"
           height="1920"
           style="stroke:#000000;stroke-opacity:1" />
      </g>
    </g>
  </g>
  <g
     id="g10047"
     ns0:preamble=""
     ns0:text="$h_{bb}$"
     transform="matrix(1.0019531,0,0,1.0019531,-62.645242,58.85895)"
     style="fill:#000000;stroke:#000000;stroke-opacity:1;fill-opacity:1">
    <defs
       id="defs10049">
      <g
         id="g10051">
        <symbol
           id="textext-57b64066-0"
           overflow="visible"
           style="overflow:visible">
          <path
             id="path10054"
             d=""
             style="stroke:none" />
        </symbol>
        <symbol
           id="textext-57b64066-1"
           overflow="visible"
           style="overflow:visible">
          <path
             id="path10057"
             d="M 2.859375,-6.8125 C 2.859375,-6.8125 2.859375,-6.921875 2.734375,-6.921875 C 2.5,-6.921875 1.78125,-6.84375 1.515625,-6.8125 C 1.4375,-6.8125 1.328125,-6.796875 1.328125,-6.625 C 1.328125,-6.5 1.421875,-6.5 1.5625,-6.5 C 2.046875,-6.5 2.0625,-6.4375 2.0625,-6.328125 L 2.03125,-6.125 L 0.59375,-0.390625 C 0.546875,-0.25 0.546875,-0.234375 0.546875,-0.171875 C 0.546875,0.0625 0.75,0.109375 0.84375,0.109375 C 1,0.109375 1.15625,-0.015625 1.203125,-0.15625 L 1.390625,-0.90625 C 1.46875,-1.203125 1.546875,-1.5 1.609375,-1.796875 C 1.671875,-2.03125 1.734375,-2.25 1.78125,-2.46875 C 1.796875,-2.53125 1.890625,-2.859375 1.890625,-2.921875 C 1.921875,-3.015625 2.234375,-3.5625 2.578125,-3.84375 C 2.796875,-4 3.09375,-4.1875 3.53125,-4.1875 C 3.953125,-4.1875 4.0625,-3.84375 4.0625,-3.484375 C 4.0625,-2.953125 3.6875,-1.859375 3.453125,-1.25 C 3.375,-1.03125 3.3125,-0.90625 3.3125,-0.703125 C 3.3125,-0.234375 3.671875,0.109375 4.140625,0.109375 C 5.078125,0.109375 5.4375,-1.34375 5.4375,-1.421875 C 5.4375,-1.53125 5.359375,-1.53125 5.328125,-1.53125 C 5.21875,-1.53125 5.21875,-1.5 5.171875,-1.34375 C 5.03125,-0.8125 4.703125,-0.109375 4.15625,-0.109375 C 3.984375,-0.109375 3.921875,-0.203125 3.921875,-0.4375 C 3.921875,-0.6875 4,-0.921875 4.09375,-1.140625 C 4.25,-1.578125 4.703125,-2.765625 4.703125,-3.34375 C 4.703125,-3.984375 4.3125,-4.40625 3.5625,-4.40625 C 2.9375,-4.40625 2.453125,-4.09375 2.078125,-3.640625 L 2.859375,-6.8125 z"
             style="stroke:none" />
        </symbol>
        <symbol
           id="textext-57b64066-2"
           overflow="visible"
           style="overflow:visible">
          <path
             id="path10060"
             d=""
             style="stroke:none" />
        </symbol>
        <symbol
           id="textext-57b64066-3"
           overflow="visible"
           style="overflow:visible">
          <path
             id="path10063"
             d="M 1.84375,-4.625 C 1.84375,-4.640625 1.875,-4.734375 1.875,-4.734375 C 1.875,-4.78125 1.84375,-4.84375 1.75,-4.84375 C 1.609375,-4.84375 1.03125,-4.78125 0.859375,-4.765625 C 0.8125,-4.765625 0.703125,-4.75 0.703125,-4.609375 C 0.703125,-4.515625 0.8125,-4.515625 0.890625,-4.515625 C 1.21875,-4.515625 1.21875,-4.453125 1.21875,-4.40625 C 1.21875,-4.359375 1.15625,-4.078125 1.109375,-3.921875 L 0.953125,-3.28125 C 0.890625,-3.03125 0.515625,-1.515625 0.5,-1.421875 C 0.453125,-1.25 0.453125,-1.15625 0.453125,-1.078125 C 0.453125,-0.375 0.90625,0.0625 1.484375,0.0625 C 2.359375,0.0625 3.28125,-0.875 3.28125,-1.90625 C 3.28125,-2.71875 2.71875,-3.078125 2.234375,-3.078125 C 1.875,-3.078125 1.5625,-2.875 1.359375,-2.6875 L 1.84375,-4.625 z M 1.484375,-0.125 C 1.15625,-0.125 0.953125,-0.421875 0.953125,-0.84375 C 0.953125,-1.09375 1.015625,-1.328125 1.21875,-2.125 C 1.25,-2.25 1.25,-2.265625 1.390625,-2.421875 C 1.65625,-2.71875 1.96875,-2.875 2.21875,-2.875 C 2.484375,-2.875 2.71875,-2.671875 2.71875,-2.203125 C 2.71875,-1.921875 2.578125,-1.203125 2.359375,-0.796875 C 2.1875,-0.453125 1.84375,-0.125 1.484375,-0.125 z"
             style="stroke:none" />
        </symbol>
      </g>
    </defs>
    <g
       id="textext-57b64066-4"
       style="fill:#000000;stroke:#000000;stroke-opacity:1;fill-opacity:1">
      <g
         id="g10066"
         style="fill:#000000;fill-opacity:1;stroke:#000000;stroke-opacity:1">
        <use
           id="use10068"
           y="134.765"
           x="223.43201"
           xlink:href="#textext-57b64066-1"
           width="2560"
           height="1920"
           style="fill:#000000;stroke:#000000;stroke-opacity:1;fill-opacity:1" />
      </g>
      <g
         id="g10070"
         style="fill:#000000;fill-opacity:1;stroke:#000000;stroke-opacity:1">
        <use
           id="use10072"
           y="136.259"
           x="229.172"
           xlink:href="#textext-57b64066-3"
           width="2560"
           height="1920"
           style="fill:#000000;stroke:#000000;stroke-opacity:1;fill-opacity:1" />
        <use
           id="use10074"
           y="136.259"
           x="232.67564"
           xlink:href="#textext-57b64066-3"
           width="2560"
           height="1920"
           style="fill:#000000;stroke:#000000;stroke-opacity:1;fill-opacity:1" />
      </g>
    </g>
  </g>
  <g
     id="g10919"
     transform="matrix(1.0019531,0,0,1.0019531,49.393363,26.15955)"
     ns0:preamble=""
     ns0:text="$r_\\mathrm{F}$"
     style="stroke:#000000;stroke-opacity:1">
    <defs
       id="defs10921">
      <g
         id="g10923">
        <symbol
           id="textext-d05cb5fd-0"
           overflow="visible"
           style="overflow:visible">
          <path
             id="path10926"
             d=""
             style="stroke:none" />
        </symbol>
        <symbol
           id="textext-d05cb5fd-1"
           overflow="visible"
           style="overflow:visible">
          <path
             id="path10929"
             d="M 0.875,-0.59375 C 0.84375,-0.4375 0.78125,-0.203125 0.78125,-0.15625 C 0.78125,0.015625 0.921875,0.109375 1.078125,0.109375 C 1.203125,0.109375 1.375,0.03125 1.453125,-0.171875 C 1.46875,-0.203125 1.796875,-1.5625 1.84375,-1.75 C 1.921875,-2.078125 2.109375,-2.765625 2.15625,-3.046875 C 2.203125,-3.171875 2.484375,-3.640625 2.71875,-3.859375 C 2.796875,-3.921875 3.09375,-4.1875 3.515625,-4.1875 C 3.78125,-4.1875 3.921875,-4.0625 3.9375,-4.0625 C 3.640625,-4.015625 3.421875,-3.78125 3.421875,-3.515625 C 3.421875,-3.359375 3.53125,-3.171875 3.796875,-3.171875 C 4.0625,-3.171875 4.34375,-3.40625 4.34375,-3.765625 C 4.34375,-4.109375 4.03125,-4.40625 3.515625,-4.40625 C 2.875,-4.40625 2.4375,-3.921875 2.25,-3.640625 C 2.15625,-4.09375 1.796875,-4.40625 1.328125,-4.40625 C 0.875,-4.40625 0.6875,-4.015625 0.59375,-3.84375 C 0.421875,-3.5 0.296875,-2.90625 0.296875,-2.875 C 0.296875,-2.765625 0.390625,-2.765625 0.40625,-2.765625 C 0.515625,-2.765625 0.515625,-2.78125 0.578125,-3 C 0.75,-3.703125 0.953125,-4.1875 1.3125,-4.1875 C 1.46875,-4.1875 1.609375,-4.109375 1.609375,-3.734375 C 1.609375,-3.515625 1.578125,-3.40625 1.453125,-2.890625 L 0.875,-0.59375 z"
             style="stroke:none" />
        </symbol>
        <symbol
           id="textext-d05cb5fd-2"
           overflow="visible"
           style="overflow:visible">
          <path
             id="path10932"
             d=""
             style="stroke:none" />
        </symbol>
        <symbol
           id="textext-d05cb5fd-3"
           overflow="visible"
           style="overflow:visible">
          <path
             id="path10935"
             d="M 4.546875,-4.734375 L 0.390625,-4.734375 L 0.390625,-4.484375 L 0.5625,-4.484375 C 1.09375,-4.484375 1.109375,-4.40625 1.109375,-4.171875 L 1.109375,-0.5625 C 1.109375,-0.328125 1.09375,-0.25 0.5625,-0.25 L 0.390625,-0.25 L 0.390625,0 C 0.390625,0 1.1875,-0.03125 1.453125,-0.03125 C 1.734375,-0.03125 2.5625,0 2.671875,0 L 2.671875,-0.25 L 2.421875,-0.25 C 1.765625,-0.25 1.765625,-0.34375 1.765625,-0.578125 L 1.765625,-2.25 L 2.453125,-2.25 C 3.140625,-2.25 3.234375,-2.03125 3.234375,-1.421875 L 3.484375,-1.421875 L 3.484375,-3.3125 L 3.234375,-3.3125 C 3.234375,-2.703125 3.140625,-2.5 2.453125,-2.5 L 1.765625,-2.5 L 1.765625,-4.203125 C 1.765625,-4.421875 1.78125,-4.484375 2.109375,-4.484375 L 3.078125,-4.484375 C 4.203125,-4.484375 4.390625,-4.109375 4.515625,-3.125 L 4.75,-3.125 L 4.546875,-4.734375 z"
             style="stroke:none" />
        </symbol>
      </g>
    </defs>
    <g
       id="textext-d05cb5fd-4"
       style="stroke:#000000;stroke-opacity:1">
      <g
         id="g10938"
         style="fill:#000000;fill-opacity:1;stroke:#000000;stroke-opacity:1">
        <use
           id="use10940"
           y="134.765"
           x="223.43201"
           xlink:href="#textext-d05cb5fd-1"
           width="2560"
           height="1920"
           style="stroke:#000000;stroke-opacity:1" />
      </g>
      <g
         id="g10942"
         style="fill:#000000;fill-opacity:1;stroke:#000000;stroke-opacity:1">
        <use
           id="use10944"
           y="136.259"
           x="227.927"
           xlink:href="#textext-d05cb5fd-3"
           width="2560"
           height="1920"
           style="stroke:#000000;stroke-opacity:1" />
      </g>
    </g>
  </g>
  <g
     style="fill:#000000;stroke:#000000;stroke-opacity:1;fill-opacity:1"
     transform="matrix(1.0019531,0,0,1.0019531,-140.77969,19.10335)"
     ns0:text="$\\lambda_{st}$"
     ns0:preamble=""
     id="g11368">
    <defs
       id="defs11370">
      <g
         id="g11372">
        <symbol
           style="overflow:visible"
           overflow="visible"
           id="textext-6d89033f-0">
          <path
             style="stroke:none"
             d=""
             id="path11375" />
        </symbol>
        <symbol
           style="overflow:visible"
           overflow="visible"
           id="textext-6d89033f-1">
          <path
             style="stroke:none"
             d="M 3.5625,-2.90625 C 3.96875,-1.859375 4.453125,-0.34375 4.609375,-0.109375 C 4.765625,0.109375 4.859375,0.109375 5.140625,0.109375 L 5.359375,0.109375 C 5.453125,0.09375 5.46875,0.046875 5.46875,0.015625 C 5.46875,-0.015625 5.4375,-0.046875 5.40625,-0.078125 C 5.3125,-0.1875 5.25,-0.34375 5.1875,-0.53125 L 3.15625,-6.203125 C 2.9375,-6.78125 2.40625,-6.921875 1.9375,-6.921875 C 1.890625,-6.921875 1.75,-6.921875 1.75,-6.8125 C 1.75,-6.734375 1.828125,-6.703125 1.84375,-6.703125 C 2.171875,-6.65625 2.25,-6.59375 2.5,-5.90625 C 2.75,-5.1875 3.296875,-3.671875 3.453125,-3.203125 L 0.703125,-0.46875 C 0.59375,-0.34375 0.53125,-0.296875 0.53125,-0.15625 C 0.53125,0.015625 0.671875,0.125 0.828125,0.125 C 0.984375,0.125 1.078125,0.015625 1.15625,-0.078125 L 3.5625,-2.90625 z"
             id="path11378" />
        </symbol>
        <symbol
           style="overflow:visible"
           overflow="visible"
           id="textext-6d89033f-2">
          <path
             style="stroke:none"
             d=""
             id="path11381" />
        </symbol>
        <symbol
           style="overflow:visible"
           overflow="visible"
           id="textext-6d89033f-3">
          <path
             style="stroke:none"
             d="M 3,-2.625 C 2.828125,-2.578125 2.703125,-2.4375 2.703125,-2.296875 C 2.703125,-2.125 2.84375,-2.0625 2.9375,-2.0625 C 3.015625,-2.0625 3.28125,-2.109375 3.28125,-2.46875 C 3.28125,-2.921875 2.78125,-3.078125 2.34375,-3.078125 C 1.265625,-3.078125 1.0625,-2.265625 1.0625,-2.0625 C 1.0625,-1.796875 1.21875,-1.625 1.3125,-1.546875 C 1.484375,-1.40625 1.609375,-1.375 2.09375,-1.296875 C 2.25,-1.265625 2.6875,-1.1875 2.6875,-0.84375 C 2.6875,-0.71875 2.609375,-0.453125 2.328125,-0.28125 C 2.046875,-0.125 1.703125,-0.125 1.625,-0.125 C 1.34375,-0.125 0.953125,-0.1875 0.78125,-0.421875 C 1.015625,-0.453125 1.171875,-0.625 1.171875,-0.8125 C 1.171875,-0.984375 1.046875,-1.078125 0.90625,-1.078125 C 0.703125,-1.078125 0.5,-0.90625 0.5,-0.609375 C 0.5,-0.1875 0.9375,0.0625 1.609375,0.0625 C 2.90625,0.0625 3.140625,-0.8125 3.140625,-1.078125 C 3.140625,-1.71875 2.4375,-1.84375 2.171875,-1.890625 C 2.109375,-1.90625 1.9375,-1.9375 1.890625,-1.953125 C 1.640625,-2 1.515625,-2.140625 1.515625,-2.296875 C 1.515625,-2.453125 1.640625,-2.640625 1.796875,-2.75 C 1.984375,-2.859375 2.21875,-2.875 2.34375,-2.875 C 2.484375,-2.875 2.84375,-2.859375 3,-2.625 z"
             id="path11384" />
        </symbol>
        <symbol
           style="overflow:visible"
           overflow="visible"
           id="textext-6d89033f-4">
          <path
             style="stroke:none"
             d="M 1.71875,-2.75 L 2.421875,-2.75 C 2.5625,-2.75 2.640625,-2.75 2.640625,-2.90625 C 2.640625,-3 2.5625,-3 2.4375,-3 L 1.78125,-3 L 2.03125,-4.03125 C 2.046875,-4.0625 2.0625,-4.109375 2.0625,-4.125 C 2.0625,-4.265625 1.953125,-4.359375 1.8125,-4.359375 C 1.640625,-4.359375 1.546875,-4.234375 1.484375,-4.0625 C 1.4375,-3.875 1.53125,-4.21875 1.21875,-3 L 0.515625,-3 C 0.390625,-3 0.296875,-3 0.296875,-2.84375 C 0.296875,-2.75 0.375,-2.75 0.5,-2.75 L 1.15625,-2.75 C 1.03125,-2.203125 0.890625,-1.65625 0.75,-1.109375 C 0.703125,-0.9375 0.640625,-0.6875 0.640625,-0.59375 C 0.640625,-0.1875 1,0.0625 1.390625,0.0625 C 2.171875,0.0625 2.609375,-0.90625 2.609375,-1 C 2.609375,-1.09375 2.515625,-1.09375 2.5,-1.09375 C 2.40625,-1.09375 2.40625,-1.078125 2.34375,-0.953125 C 2.15625,-0.515625 1.796875,-0.125 1.421875,-0.125 C 1.265625,-0.125 1.171875,-0.21875 1.171875,-0.46875 C 1.171875,-0.53125 1.203125,-0.6875 1.21875,-0.75 L 1.71875,-2.75 z"
             id="path11387" />
        </symbol>
      </g>
    </defs>
    <g
       style="fill:#000000;stroke:#000000;stroke-opacity:1;fill-opacity:1"
       id="textext-6d89033f-5">
      <g
         style="fill:#000000;fill-opacity:1;stroke:#000000;stroke-opacity:1"
         id="g11390">
        <use
           style="fill:#000000;stroke:#000000;stroke-opacity:1;fill-opacity:1"
           height="1920"
           width="2560"
           xlink:href="#textext-6d89033f-1"
           x="223.43201"
           y="134.765"
           id="use11392" />
      </g>
      <g
         style="fill:#000000;fill-opacity:1;stroke:#000000;stroke-opacity:1"
         id="g11394">
        <use
           style="fill:#000000;stroke:#000000;stroke-opacity:1;fill-opacity:1"
           height="1920"
           width="2560"
           xlink:href="#textext-6d89033f-3"
           x="229.244"
           y="136.259"
           id="use11396" />
        <use
           style="fill:#000000;stroke:#000000;stroke-opacity:1;fill-opacity:1"
           height="1920"
           width="2560"
           xlink:href="#textext-6d89033f-4"
           x="233.00427"
           y="136.259"
           id="use11398" />
      </g>
    </g>
  </g>
  <g
     id="g11857"
     ns0:preamble=""
     ns0:text="$l_{cs}$"
     transform="matrix(1.0019531,0,0,1.0019531,-129.24883,52.49125)"
     style="fill:#000000;stroke:#000000;stroke-opacity:1;fill-opacity:1">
    <defs
       id="defs11859">
      <g
         id="g11861">
        <symbol
           id="textext-19da8ac0-0"
           overflow="visible"
           style="overflow:visible">
          <path
             id="path11864"
             d=""
             style="stroke:none" />
        </symbol>
        <symbol
           id="textext-19da8ac0-1"
           overflow="visible"
           style="overflow:visible">
          <path
             id="path11867"
             d="M 2.578125,-6.8125 C 2.578125,-6.8125 2.578125,-6.921875 2.4375,-6.921875 C 2.21875,-6.921875 1.484375,-6.84375 1.21875,-6.8125 C 1.140625,-6.8125 1.03125,-6.796875 1.03125,-6.609375 C 1.03125,-6.5 1.140625,-6.5 1.28125,-6.5 C 1.765625,-6.5 1.78125,-6.40625 1.78125,-6.328125 L 1.75,-6.125 L 0.484375,-1.140625 C 0.453125,-1.03125 0.4375,-0.96875 0.4375,-0.8125 C 0.4375,-0.234375 0.875,0.109375 1.34375,0.109375 C 1.671875,0.109375 1.921875,-0.09375 2.09375,-0.453125 C 2.265625,-0.828125 2.390625,-1.40625 2.390625,-1.421875 C 2.390625,-1.53125 2.296875,-1.53125 2.265625,-1.53125 C 2.171875,-1.53125 2.15625,-1.484375 2.140625,-1.34375 C 1.96875,-0.703125 1.78125,-0.109375 1.375,-0.109375 C 1.078125,-0.109375 1.078125,-0.421875 1.078125,-0.5625 C 1.078125,-0.8125 1.09375,-0.859375 1.140625,-1.046875 L 2.578125,-6.8125 z"
             style="stroke:none" />
        </symbol>
        <symbol
           id="textext-19da8ac0-2"
           overflow="visible"
           style="overflow:visible">
          <path
             id="path11870"
             d=""
             style="stroke:none" />
        </symbol>
        <symbol
           id="textext-19da8ac0-3"
           overflow="visible"
           style="overflow:visible">
          <path
             id="path11873"
             d="M 3.046875,-2.671875 C 2.796875,-2.625 2.703125,-2.4375 2.703125,-2.28125 C 2.703125,-2.09375 2.84375,-2.015625 2.96875,-2.015625 C 3.125,-2.015625 3.359375,-2.125 3.359375,-2.46875 C 3.359375,-2.9375 2.828125,-3.078125 2.453125,-3.078125 C 1.40625,-3.078125 0.4375,-2.109375 0.4375,-1.140625 C 0.4375,-0.546875 0.84375,0.0625 1.71875,0.0625 C 2.90625,0.0625 3.453125,-0.625 3.453125,-0.71875 C 3.453125,-0.765625 3.390625,-0.84375 3.328125,-0.84375 C 3.296875,-0.84375 3.28125,-0.828125 3.21875,-0.765625 C 2.671875,-0.125 1.859375,-0.125 1.734375,-0.125 C 1.234375,-0.125 1.015625,-0.46875 1.015625,-0.90625 C 1.015625,-1.09375 1.109375,-1.859375 1.46875,-2.34375 C 1.734375,-2.6875 2.09375,-2.875 2.453125,-2.875 C 2.546875,-2.875 2.875,-2.859375 3.046875,-2.671875 z"
             style="stroke:none" />
        </symbol>
        <symbol
           id="textext-19da8ac0-4"
           overflow="visible"
           style="overflow:visible">
          <path
             id="path11876"
             d="M 3,-2.625 C 2.828125,-2.578125 2.703125,-2.4375 2.703125,-2.296875 C 2.703125,-2.125 2.84375,-2.0625 2.9375,-2.0625 C 3.015625,-2.0625 3.28125,-2.109375 3.28125,-2.46875 C 3.28125,-2.921875 2.78125,-3.078125 2.34375,-3.078125 C 1.265625,-3.078125 1.0625,-2.265625 1.0625,-2.0625 C 1.0625,-1.796875 1.21875,-1.625 1.3125,-1.546875 C 1.484375,-1.40625 1.609375,-1.375 2.09375,-1.296875 C 2.25,-1.265625 2.6875,-1.1875 2.6875,-0.84375 C 2.6875,-0.71875 2.609375,-0.453125 2.328125,-0.28125 C 2.046875,-0.125 1.703125,-0.125 1.625,-0.125 C 1.34375,-0.125 0.953125,-0.1875 0.78125,-0.421875 C 1.015625,-0.453125 1.171875,-0.625 1.171875,-0.8125 C 1.171875,-0.984375 1.046875,-1.078125 0.90625,-1.078125 C 0.703125,-1.078125 0.5,-0.90625 0.5,-0.609375 C 0.5,-0.1875 0.9375,0.0625 1.609375,0.0625 C 2.90625,0.0625 3.140625,-0.8125 3.140625,-1.078125 C 3.140625,-1.71875 2.4375,-1.84375 2.171875,-1.890625 C 2.109375,-1.90625 1.9375,-1.9375 1.890625,-1.953125 C 1.640625,-2 1.515625,-2.140625 1.515625,-2.296875 C 1.515625,-2.453125 1.640625,-2.640625 1.796875,-2.75 C 1.984375,-2.859375 2.21875,-2.875 2.34375,-2.875 C 2.484375,-2.875 2.84375,-2.859375 3,-2.625 z"
             style="stroke:none" />
        </symbol>
      </g>
    </defs>
    <g
       id="textext-19da8ac0-5"
       style="fill:#000000;stroke:#000000;stroke-opacity:1;fill-opacity:1">
      <g
         id="g11879"
         style="fill:#000000;fill-opacity:1;stroke:#000000;stroke-opacity:1">
        <use
           id="use11881"
           y="134.765"
           x="223.43201"
           xlink:href="#textext-19da8ac0-1"
           width="2560"
           height="1920"
           style="fill:#000000;stroke:#000000;stroke-opacity:1;fill-opacity:1" />
      </g>
      <g
         id="g11883"
         style="fill:#000000;fill-opacity:1;stroke:#000000;stroke-opacity:1">
        <use
           id="use11885"
           y="136.259"
           x="226.405"
           xlink:href="#textext-19da8ac0-3"
           width="2560"
           height="1920"
           style="fill:#000000;stroke:#000000;stroke-opacity:1;fill-opacity:1" />
        <use
           id="use11887"
           y="136.259"
           x="229.96512"
           xlink:href="#textext-19da8ac0-4"
           width="2560"
           height="1920"
           style="fill:#000000;stroke:#000000;stroke-opacity:1;fill-opacity:1" />
      </g>
    </g>
  </g>
  <g
     transform="matrix(1.0019531,0,0,1.0019531,-66.431491,93.10735)"
     ns0:text="$w$"
     ns0:preamble=""
     id="g12377"
     style="stroke:#000000;stroke-opacity:1">
    <defs
       id="defs12379">
      <g
         id="g12381">
        <symbol
           style="overflow:visible"
           overflow="visible"
           id="textext-2ef71535-0">
          <path
             style="stroke:none"
             d=""
             id="path12384" />
        </symbol>
        <symbol
           style="overflow:visible"
           overflow="visible"
           id="textext-2ef71535-1">
          <path
             style="stroke:none"
             d="M 4.609375,-3.375 C 4.65625,-3.59375 4.75,-3.96875 4.75,-4.03125 C 4.75,-4.203125 4.609375,-4.296875 4.46875,-4.296875 C 4.34375,-4.296875 4.171875,-4.21875 4.09375,-4.015625 C 4.0625,-3.953125 3.59375,-2.046875 3.53125,-1.78125 C 3.453125,-1.484375 3.4375,-1.3125 3.4375,-1.125 C 3.4375,-1.015625 3.4375,-1 3.453125,-0.953125 C 3.21875,-0.421875 2.921875,-0.109375 2.53125,-0.109375 C 1.734375,-0.109375 1.734375,-0.84375 1.734375,-1.015625 C 1.734375,-1.328125 1.78125,-1.71875 2.25,-2.953125 C 2.359375,-3.25 2.421875,-3.390625 2.421875,-3.59375 C 2.421875,-4.03125 2.09375,-4.40625 1.609375,-4.40625 C 0.65625,-4.40625 0.296875,-2.953125 0.296875,-2.875 C 0.296875,-2.765625 0.390625,-2.765625 0.40625,-2.765625 C 0.515625,-2.765625 0.515625,-2.796875 0.5625,-2.953125 C 0.84375,-3.875 1.21875,-4.1875 1.578125,-4.1875 C 1.671875,-4.1875 1.828125,-4.171875 1.828125,-3.859375 C 1.828125,-3.609375 1.71875,-3.328125 1.640625,-3.15625 C 1.203125,-1.984375 1.09375,-1.53125 1.09375,-1.140625 C 1.09375,-0.234375 1.75,0.109375 2.5,0.109375 C 2.671875,0.109375 3.140625,0.109375 3.53125,-0.59375 C 3.796875,0.046875 4.484375,0.109375 4.78125,0.109375 C 5.53125,0.109375 5.96875,-0.515625 6.234375,-1.109375 C 6.5625,-1.890625 6.890625,-3.234375 6.890625,-3.703125 C 6.890625,-4.25 6.625,-4.40625 6.453125,-4.40625 C 6.203125,-4.40625 5.953125,-4.140625 5.953125,-3.921875 C 5.953125,-3.796875 6.015625,-3.734375 6.09375,-3.65625 C 6.203125,-3.546875 6.453125,-3.296875 6.453125,-2.8125 C 6.453125,-2.46875 6.171875,-1.5 5.90625,-0.984375 C 5.65625,-0.453125 5.296875,-0.109375 4.8125,-0.109375 C 4.34375,-0.109375 4.078125,-0.40625 4.078125,-0.984375 C 4.078125,-1.25 4.140625,-1.5625 4.1875,-1.703125 L 4.609375,-3.375 z"
             id="path12387" />
        </symbol>
      </g>
    </defs>
    <g
       id="textext-2ef71535-2"
       style="stroke:#000000;stroke-opacity:1">
      <g
         style="fill:#000000;fill-opacity:1;stroke:#000000;stroke-opacity:1"
         id="g12390">
        <use
           height="1920"
           width="2560"
           xlink:href="#textext-2ef71535-1"
           x="223.43201"
           y="134.765"
           id="use12392"
           style="stroke:#000000;stroke-opacity:1" />
      </g>
    </g>
  </g>
  <g
     id="g12896"
     ns0:preamble=""
     ns0:text="$c$"
     transform="matrix(1.0019531,0,0,1.0019531,29.773701,93.62365)"
     style="stroke:#000000;stroke-opacity:1">
    <defs
       id="defs12898">
      <g
         id="g12900">
        <symbol
           id="textext-3b1f0426-0"
           overflow="visible"
           style="overflow:visible">
          <path
             id="path12903"
             d=""
             style="stroke:none" />
        </symbol>
        <symbol
           id="textext-3b1f0426-1"
           overflow="visible"
           style="overflow:visible">
          <path
             id="path12906"
             d="M 3.953125,-3.78125 C 3.78125,-3.78125 3.65625,-3.78125 3.515625,-3.65625 C 3.34375,-3.5 3.328125,-3.328125 3.328125,-3.265625 C 3.328125,-3.015625 3.515625,-2.90625 3.703125,-2.90625 C 3.984375,-2.90625 4.25,-3.15625 4.25,-3.546875 C 4.25,-4.03125 3.78125,-4.40625 3.078125,-4.40625 C 1.734375,-4.40625 0.40625,-2.984375 0.40625,-1.578125 C 0.40625,-0.671875 0.984375,0.109375 2.03125,0.109375 C 3.453125,0.109375 4.28125,-0.953125 4.28125,-1.0625 C 4.28125,-1.125 4.234375,-1.203125 4.171875,-1.203125 C 4.109375,-1.203125 4.09375,-1.171875 4.03125,-1.09375 C 3.25,-0.109375 2.15625,-0.109375 2.046875,-0.109375 C 1.421875,-0.109375 1.140625,-0.59375 1.140625,-1.203125 C 1.140625,-1.609375 1.34375,-2.578125 1.6875,-3.1875 C 2,-3.765625 2.546875,-4.1875 3.09375,-4.1875 C 3.421875,-4.1875 3.8125,-4.0625 3.953125,-3.78125 z"
             style="stroke:none" />
        </symbol>
      </g>
    </defs>
    <g
       id="textext-3b1f0426-2"
       style="stroke:#000000;stroke-opacity:1">
      <g
         id="g12909"
         style="fill:#000000;fill-opacity:1;stroke:#000000;stroke-opacity:1">
        <use
           id="use12911"
           y="134.765"
           x="223.43201"
           xlink:href="#textext-3b1f0426-1"
           width="2560"
           height="1920"
           style="stroke:#000000;stroke-opacity:1" />
      </g>
    </g>
  </g>
  <g
     transform="matrix(1.0019531,0,0,1.0019531,-164.1856,102.40085)"
     ns0:text="$Z$"
     ns0:preamble=""
     id="g13431">
    <defs
       id="defs13433">
      <g
         id="g13435">
        <symbol
           style="overflow:visible"
           overflow="visible"
           id="textext-44733249-0">
          <path
             style="stroke:none"
             d=""
             id="path13438" />
        </symbol>
        <symbol
           style="overflow:visible"
           overflow="visible"
           id="textext-44733249-1">
          <path
             style="stroke:none"
             d="M 7.171875,-6.5625 C 7.1875,-6.609375 7.203125,-6.65625 7.203125,-6.71875 C 7.203125,-6.8125 7.15625,-6.8125 6.953125,-6.8125 L 2.75,-6.8125 C 2.515625,-6.8125 2.5,-6.796875 2.4375,-6.609375 L 1.890625,-4.8125 C 1.875,-4.765625 1.859375,-4.6875 1.859375,-4.671875 C 1.859375,-4.671875 1.859375,-4.5625 1.984375,-4.5625 C 2.078125,-4.5625 2.09375,-4.640625 2.109375,-4.671875 C 2.5,-5.84375 3.015625,-6.5 4.5625,-6.5 L 6.1875,-6.5 L 0.625,-0.265625 C 0.625,-0.265625 0.578125,-0.125 0.578125,-0.09375 C 0.578125,0 0.640625,0 0.828125,0 L 5.15625,0 C 5.40625,0 5.40625,-0.015625 5.46875,-0.203125 L 6.1875,-2.40625 C 6.1875,-2.4375 6.21875,-2.515625 6.21875,-2.546875 C 6.21875,-2.609375 6.1875,-2.65625 6.09375,-2.65625 C 6,-2.65625 5.984375,-2.625 5.921875,-2.40625 C 5.484375,-1.0625 5,-0.34375 3.3125,-0.34375 L 1.609375,-0.34375 L 7.171875,-6.5625 z"
             id="path13441" />
        </symbol>
      </g>
    </defs>
    <g
       id="textext-44733249-2">
      <g
         style="fill:#000000;fill-opacity:1"
         id="g13444">
        <use
           height="1920"
           width="2560"
           xlink:href="#textext-44733249-1"
           x="223.43201"
           y="134.765"
           id="use13446" />
      </g>
    </g>
  </g>
  <g
     transform="matrix(1.0019531,0,0,1.0019531,71.55649,90.05405)"
     ns0:text="$X$"
     ns0:preamble=""
     id="g14569">
    <defs
       id="defs14571">
      <g
         id="g14573">
        <symbol
           style="overflow:visible"
           overflow="visible"
           id="textext-f36b8521-0">
          <path
             style="stroke:none"
             d=""
             id="path14576" />
        </symbol>
        <symbol
           style="overflow:visible"
           overflow="visible"
           id="textext-f36b8521-1">
          <path
             style="stroke:none"
             d="M 4.828125,-4.09375 L 4,-6.078125 C 3.96875,-6.15625 3.953125,-6.203125 3.953125,-6.203125 C 3.953125,-6.265625 4.109375,-6.453125 4.53125,-6.5 C 4.640625,-6.515625 4.734375,-6.515625 4.734375,-6.6875 C 4.734375,-6.8125 4.609375,-6.8125 4.578125,-6.8125 C 4.171875,-6.8125 3.75,-6.78125 3.328125,-6.78125 C 3.078125,-6.78125 2.46875,-6.8125 2.21875,-6.8125 C 2.15625,-6.8125 2.03125,-6.8125 2.03125,-6.609375 C 2.03125,-6.5 2.140625,-6.5 2.265625,-6.5 C 2.859375,-6.5 2.921875,-6.40625 3.015625,-6.1875 L 4.1875,-3.40625 L 2.078125,-1.140625 C 2.03125,-1.09375 2.015625,-1.078125 1.953125,-1.03125 C 1.46875,-0.5 1,-0.34375 0.484375,-0.3125 C 0.359375,-0.296875 0.265625,-0.296875 0.265625,-0.109375 C 0.265625,-0.09375 0.265625,0 0.40625,0 C 0.703125,0 1.03125,-0.03125 1.328125,-0.03125 C 1.703125,-0.03125 2.09375,0 2.453125,0 C 2.515625,0 2.625,0 2.625,-0.203125 C 2.625,-0.296875 2.53125,-0.3125 2.515625,-0.3125 C 2.421875,-0.3125 2.109375,-0.34375 2.109375,-0.625 C 2.109375,-0.78125 2.265625,-0.9375 2.375,-1.0625 L 3.40625,-2.140625 C 3.703125,-2.46875 4.09375,-2.875 4.296875,-3.125 L 5.296875,-0.734375 C 5.34375,-0.625 5.359375,-0.625 5.359375,-0.59375 C 5.359375,-0.515625 5.15625,-0.34375 4.78125,-0.3125 C 4.671875,-0.296875 4.578125,-0.296875 4.578125,-0.125 C 4.578125,0 4.6875,0 4.71875,0 C 5,0 5.703125,-0.03125 5.984375,-0.03125 C 6.234375,-0.03125 6.84375,0 7.09375,0 C 7.15625,0 7.28125,0 7.28125,-0.1875 C 7.28125,-0.3125 7.171875,-0.3125 7.09375,-0.3125 C 6.4375,-0.3125 6.40625,-0.34375 6.234375,-0.75 C 5.859375,-1.671875 5.1875,-3.234375 4.953125,-3.828125 C 5.625,-4.53125 6.671875,-5.71875 7,-5.984375 C 7.28125,-6.234375 7.671875,-6.46875 8.265625,-6.5 C 8.390625,-6.515625 8.484375,-6.515625 8.484375,-6.703125 C 8.484375,-6.703125 8.484375,-6.8125 8.359375,-6.8125 C 8.0625,-6.8125 7.71875,-6.78125 7.421875,-6.78125 C 7.046875,-6.78125 6.671875,-6.8125 6.3125,-6.8125 C 6.25,-6.8125 6.125,-6.8125 6.125,-6.609375 C 6.125,-6.546875 6.171875,-6.515625 6.234375,-6.5 C 6.328125,-6.484375 6.640625,-6.46875 6.640625,-6.1875 C 6.640625,-6.046875 6.53125,-5.921875 6.453125,-5.828125 L 4.828125,-4.09375 z"
             id="path14579" />
        </symbol>
      </g>
    </defs>
    <g
       id="textext-f36b8521-2">
      <g
         style="fill:#000000;fill-opacity:1"
         id="g14582">
        <use
           height="1920"
           width="2560"
           xlink:href="#textext-f36b8521-1"
           x="223.43201"
           y="134.765"
           id="use14584" />
      </g>
    </g>
  </g>
  <g
     id="g15144"
     transform="matrix(1.0019531,0,0,1.0019531,-187.76362,29.42945)"
     ns0:preamble=""
     ns0:text="$r_\\textrm{R}$"
     style="stroke:#000000;stroke-opacity:1">
    <defs
       id="defs15146">
      <g
         id="g15148">
        <symbol
           id="textext-e4980539-0"
           overflow="visible"
           style="overflow:visible">
          <path
             id="path15151"
             d=""
             style="stroke:none" />
        </symbol>
        <symbol
           id="textext-e4980539-1"
           overflow="visible"
           style="overflow:visible">
          <path
             id="path15154"
             d="M 0.875,-0.59375 C 0.84375,-0.4375 0.78125,-0.203125 0.78125,-0.15625 C 0.78125,0.015625 0.921875,0.109375 1.078125,0.109375 C 1.203125,0.109375 1.375,0.03125 1.453125,-0.171875 C 1.46875,-0.203125 1.796875,-1.5625 1.84375,-1.75 C 1.921875,-2.078125 2.109375,-2.765625 2.15625,-3.046875 C 2.203125,-3.171875 2.484375,-3.640625 2.71875,-3.859375 C 2.796875,-3.921875 3.09375,-4.1875 3.515625,-4.1875 C 3.78125,-4.1875 3.921875,-4.0625 3.9375,-4.0625 C 3.640625,-4.015625 3.421875,-3.78125 3.421875,-3.515625 C 3.421875,-3.359375 3.53125,-3.171875 3.796875,-3.171875 C 4.0625,-3.171875 4.34375,-3.40625 4.34375,-3.765625 C 4.34375,-4.109375 4.03125,-4.40625 3.515625,-4.40625 C 2.875,-4.40625 2.4375,-3.921875 2.25,-3.640625 C 2.15625,-4.09375 1.796875,-4.40625 1.328125,-4.40625 C 0.875,-4.40625 0.6875,-4.015625 0.59375,-3.84375 C 0.421875,-3.5 0.296875,-2.90625 0.296875,-2.875 C 0.296875,-2.765625 0.390625,-2.765625 0.40625,-2.765625 C 0.515625,-2.765625 0.515625,-2.78125 0.578125,-3 C 0.75,-3.703125 0.953125,-4.1875 1.3125,-4.1875 C 1.46875,-4.1875 1.609375,-4.109375 1.609375,-3.734375 C 1.609375,-3.515625 1.578125,-3.40625 1.453125,-2.890625 L 0.875,-0.59375 z"
             style="stroke:none" />
        </symbol>
        <symbol
           id="textext-e4980539-2"
           overflow="visible"
           style="overflow:visible">
          <path
             id="path15157"
             d=""
             style="stroke:none" />
        </symbol>
        <symbol
           id="textext-e4980539-3"
           overflow="visible"
           style="overflow:visible">
          <path
             id="path15160"
             d="M 2.234375,-3.515625 L 2.234375,-6.09375 C 2.234375,-6.328125 2.234375,-6.453125 2.453125,-6.484375 C 2.546875,-6.5 2.84375,-6.5 3.046875,-6.5 C 3.9375,-6.5 5.046875,-6.453125 5.046875,-5.015625 C 5.046875,-4.328125 4.8125,-3.515625 3.34375,-3.515625 L 2.234375,-3.515625 z M 4.34375,-3.390625 C 5.296875,-3.625 6.078125,-4.234375 6.078125,-5.015625 C 6.078125,-5.96875 4.9375,-6.8125 3.484375,-6.8125 L 0.34375,-6.8125 L 0.34375,-6.5 L 0.59375,-6.5 C 1.359375,-6.5 1.375,-6.390625 1.375,-6.03125 L 1.375,-0.78125 C 1.375,-0.421875 1.359375,-0.3125 0.59375,-0.3125 L 0.34375,-0.3125 L 0.34375,0 C 0.703125,-0.03125 1.421875,-0.03125 1.796875,-0.03125 C 2.1875,-0.03125 2.90625,-0.03125 3.265625,0 L 3.265625,-0.3125 L 3.015625,-0.3125 C 2.25,-0.3125 2.234375,-0.421875 2.234375,-0.78125 L 2.234375,-3.296875 L 3.375,-3.296875 C 3.53125,-3.296875 3.953125,-3.296875 4.3125,-2.953125 C 4.6875,-2.609375 4.6875,-2.296875 4.6875,-1.625 C 4.6875,-0.984375 4.6875,-0.578125 5.09375,-0.203125 C 5.5,0.15625 6.046875,0.21875 6.34375,0.21875 C 7.125,0.21875 7.296875,-0.59375 7.296875,-0.875 C 7.296875,-0.9375 7.296875,-1.046875 7.171875,-1.046875 C 7.0625,-1.046875 7.0625,-0.953125 7.046875,-0.890625 C 6.984375,-0.171875 6.640625,0 6.390625,0 C 5.90625,0 5.828125,-0.515625 5.6875,-1.4375 L 5.546875,-2.234375 C 5.375,-2.875 4.890625,-3.203125 4.34375,-3.390625 z"
             style="stroke:none" />
        </symbol>
      </g>
    </defs>
    <g
       id="textext-e4980539-4"
       style="stroke:#000000;stroke-opacity:1">
      <g
         id="g15163"
         style="fill:#000000;fill-opacity:1;stroke:#000000;stroke-opacity:1">
        <use
           id="use15165"
           y="134.765"
           x="223.43201"
           xlink:href="#textext-e4980539-1"
           width="2560"
           height="1920"
           style="stroke:#000000;stroke-opacity:1" />
      </g>
      <g
         id="g15167"
         style="fill:#000000;fill-opacity:1;stroke:#000000;stroke-opacity:1">
        <use
           id="use15169"
           y="138.14101"
           x="227.927"
           xlink:href="#textext-e4980539-3"
           width="2560"
           height="1920"
           style="stroke:#000000;stroke-opacity:1" />
      </g>
    </g>
  </g>
</svg>
