<?xml version="1.0" encoding="UTF-8" standalone="no"?>
<!-- Created with Inkscape (http://www.inkscape.org/) -->

<svg
   xmlns:ns0="http://www.iki.fi/pav/software/textext/"
   xmlns:dc="http://purl.org/dc/elements/1.1/"
   xmlns:cc="http://creativecommons.org/ns#"
   xmlns:rdf="http://www.w3.org/1999/02/22-rdf-syntax-ns#"
   xmlns:svg="http://www.w3.org/2000/svg"
   xmlns="http://www.w3.org/2000/svg"
   xmlns:xlink="http://www.w3.org/1999/xlink"
   xmlns:sodipodi="http://sodipodi.sourceforge.net/DTD/sodipodi-0.dtd"
   xmlns:inkscape="http://www.inkscape.org/namespaces/inkscape"
   width="270"
   height="270"
   id="svg3394"
   version="1.1"
   inkscape:version="0.48.2 r9819"
   sodipodi:docname="handlebar-free-body.svg"
   inkscape:export-filename="handlebar-free-body.png"
   inkscape:export-xdpi="200"
   inkscape:export-ydpi="200">
  <sodipodi:namedview
     id="base"
     pagecolor="#ffffff"
     bordercolor="#666666"
     borderopacity="1.0"
     inkscape:pageopacity="0.0"
     inkscape:pageshadow="2"
     inkscape:zoom="2.0925926"
     inkscape:cx="135"
     inkscape:cy="135"
     inkscape:document-units="px"
     inkscape:current-layer="layer1"
     showgrid="false"
     showguides="true"
     inkscape:guide-bbox="true"
     inkscape:window-width="1366"
     inkscape:window-height="744"
     inkscape:window-x="0"
     inkscape:window-y="24"
     inkscape:window-maximized="1"
     units="in" />
  <defs
     id="defs3396">
    <marker
       style="overflow:visible"
       id="Arrow1Mstart"
       refX="0.0"
       refY="0.0"
       orient="auto"
       inkscape:stockid="Arrow1Mstart">
      <path
         transform="scale(0.4) translate(10,0)"
         style="fill-rule:evenodd;stroke:#000000;stroke-width:1.0pt;marker-start:none"
         d="M 0.0,0.0 L 5.0,-5.0 L -12.5,0.0 L 5.0,5.0 L 0.0,0.0 z "
         id="path5931" />
    </marker>
    <marker
       style="overflow:visible;"
       id="Arrow1Mend"
       refX="0.0"
       refY="0.0"
       orient="auto"
       inkscape:stockid="Arrow1Mend">
      <path
         transform="scale(0.4) rotate(180) translate(10,0)"
         style="fill-rule:evenodd;stroke:#000000;stroke-width:1.0pt;marker-start:none;"
         d="M 0.0,0.0 L 5.0,-5.0 L -12.5,0.0 L 5.0,5.0 L 0.0,0.0 z "
         id="path5934" />
    </marker>
    <marker
       style="overflow:visible;"
       id="Arrow1Lend"
       refX="0.0"
       refY="0.0"
       orient="auto"
       inkscape:stockid="Arrow1Lend">
      <path
         transform="scale(0.8) rotate(180) translate(12.5,0)"
         style="fill-rule:evenodd;stroke:#000000;stroke-width:1.0pt;marker-start:none;"
         d="M 0.0,0.0 L 5.0,-5.0 L -12.5,0.0 L 5.0,5.0 L 0.0,0.0 z "
         id="path5928" />
    </marker>
    <linearGradient
       id="linearGradient5646">
      <stop
         id="stop5648"
         offset="0"
         style="stop-color:#000000;stop-opacity:1;" />
      <stop
         id="stop5650"
         offset="1"
         style="stop-color:#000000;stop-opacity:0;" />
    </linearGradient>
    <marker
       style="overflow:visible"
       id="Arrow1Mend-9"
       refX="0"
       refY="0"
       orient="auto"
       inkscape:stockid="Arrow1Mend">
      <path
         transform="matrix(-0.4,0,0,-0.4,-4,0)"
         style="fill-rule:evenodd;stroke:#000000;stroke-width:1pt;marker-start:none"
         d="M 0,0 5,-5 -12.5,0 5,5 0,0 z"
         id="path5934-2"
         inkscape:connector-curvature="0" />
    </marker>
    <marker
       style="overflow:visible"
       id="Arrow1Mend-8"
       refX="0"
       refY="0"
       orient="auto"
       inkscape:stockid="Arrow1Mend">
      <path
         transform="matrix(-0.4,0,0,-0.4,-4,0)"
         style="fill-rule:evenodd;stroke:#000000;stroke-width:1pt;marker-start:none"
         d="M 0,0 5,-5 -12.5,0 5,5 0,0 z"
         id="path5934-7"
         inkscape:connector-curvature="0" />
    </marker>
    <marker
       style="overflow:visible"
       id="Arrow1Mend-8-0"
       refX="0"
       refY="0"
       orient="auto"
       inkscape:stockid="Arrow1Mend">
      <path
         transform="matrix(-0.4,0,0,-0.4,-4,0)"
         style="fill-rule:evenodd;stroke:#000000;stroke-width:1pt;marker-start:none"
         d="M 0,0 5,-5 -12.5,0 5,5 0,0 z"
         id="path5934-7-2"
         inkscape:connector-curvature="0" />
    </marker>
  </defs>
  <metadata
     id="metadata3399">
    <rdf:RDF>
      <cc:Work
         rdf:about="">
        <dc:format>image/svg+xml</dc:format>
        <dc:type
           rdf:resource="http://purl.org/dc/dcmitype/StillImage" />
        <dc:title />
      </cc:Work>
    </rdf:RDF>
  </metadata>
  <g
     transform="translate(0,-782.35975)"
     id="layer1"
     inkscape:groupmode="layer"
     inkscape:label="Layer 1">
    <path
       sodipodi:type="arc"
       style="fill:none;stroke:#000000;stroke-width:2.29584467;stroke-linecap:round;stroke-linejoin:round;stroke-miterlimit:4;stroke-opacity:1;stroke-dasharray:none;stroke-dashoffset:0"
       id="path8026"
       sodipodi:cx="215.52213"
       sodipodi:cy="46.353981"
       sodipodi:rx="17.203539"
       sodipodi:ry="16.247787"
       d="m 232.72566,46.353981 c 0,8.973405 -7.70228,16.247787 -17.20353,16.247787 -9.50126,0 -17.20354,-7.274382 -17.20354,-16.247787 0,-8.973405 7.70228,-16.247787 17.20354,-16.247787 9.50125,0 17.20353,7.274382 17.20353,16.247787 z"
       transform="matrix(0.42329751,0,0,0.44819735,124.60188,805.71676)" />
    <path
       sodipodi:open="true"
       sodipodi:end="6.7932165"
       sodipodi:start="2.1453365"
       transform="matrix(0.99400078,0.10937301,-0.10937301,0.99400078,24.295527,751.13105)"
       d="m 87.639727,155.71295 c -18.751735,-1.8415 -24.111818,-5.64023 -11.972081,-8.48471 12.139738,-2.84448 37.182224,-3.65756 55.933964,-1.81606 17.90198,1.75804 23.72991,5.32249 13.31844,8.14575"
       sodipodi:ry="6.1354847"
       sodipodi:rx="40.447117"
       sodipodi:cy="150.56256"
       sodipodi:cx="109.62067"
       id="path5920"
       style="fill:none;stroke:#000000;stroke-width:2;stroke-linecap:round;stroke-linejoin:round;stroke-miterlimit:4;stroke-opacity:1;stroke-dasharray:none;stroke-dashoffset:0;marker-start:url(#Arrow1Mstart)"
       sodipodi:type="arc" />
    <path
       sodipodi:nodetypes="cscccccscccccccc"
       inkscape:connector-curvature="0"
       id="path3404"
       d="m 52.806053,838.21536 c -7.635902,0.0169 -12.26511,10.20427 -9.256819,13.3278 l 23.605117,24.5093 9.43979,-7.91794 -16.009441,-16.35483 61.96436,0.40192 -38.458396,148.44219 c 0,0 1.362772,4.9805 8.30709,5.5708 7.55746,0.6425 10.265356,-1.7839 10.265356,-1.7839 l 40.11417,-151.85957 54.6912,0.003 21.50158,23.90003 11.33759,-6.99433 -22.68565,-24.43492 c -5.01716,-7.08581 -16.00369,-6.40462 -16.00369,-6.40462 z"
       style="fill:#ffffff;fill-opacity:1;stroke:#000000;stroke-width:0.51858407px;stroke-linecap:butt;stroke-linejoin:miter;stroke-opacity:1" />
    <path
       inkscape:connector-curvature="0"
       id="path3410"
       d="m 130.85218,912.33775 -13.51002,50.4201"
       style="fill:none;stroke:#000000;stroke-width:1;stroke-linecap:butt;stroke-linejoin:miter;stroke-miterlimit:4;stroke-opacity:1;stroke-dasharray:none" />
    <path
       inkscape:connector-curvature="0"
       id="path3412"
       d="M 104.00047,911.12901 91.182524,958.96623"
       style="fill:none;stroke:#000000;stroke-width:1;stroke-linecap:butt;stroke-linejoin:miter;stroke-miterlimit:4;stroke-opacity:1;stroke-dasharray:none" />
    <path
       sodipodi:nodetypes="cc"
       inkscape:connector-curvature="0"
       id="path5656"
       d="m 135.06357,915.30421 -6.01502,3.9707"
       style="fill:none;stroke:#000000;stroke-width:1px;stroke-linecap:butt;stroke-linejoin:miter;stroke-opacity:1" />
    <path
       sodipodi:nodetypes="cc"
       inkscape:connector-curvature="0"
       id="path5829-26"
       d="m 102.08786,917.94602 -3.804491,-6.58957"
       style="fill:none;stroke:#000000;stroke-width:1px;stroke-linecap:butt;stroke-linejoin:miter;stroke-opacity:1" />
    <path
       sodipodi:nodetypes="cc"
       inkscape:connector-curvature="0"
       id="path5916"
       d="m 142.21023,816.45799 -4.72453,17.63219"
       style="fill:none;stroke:#000000;stroke-width:2;stroke-linecap:butt;stroke-linejoin:miter;stroke-miterlimit:4;stroke-opacity:1;stroke-dasharray:none;marker-end:url(#Arrow1Mend)" />
    <path
       inkscape:connector-curvature="0"
       id="path5918"
       d="m 82.214416,1041.1687 8.000123,-29.8568"
       style="fill:none;stroke:#000000;stroke-width:2;stroke-linecap:butt;stroke-linejoin:miter;stroke-miterlimit:4;stroke-opacity:1;stroke-dasharray:none;marker-end:url(#Arrow1Mend)" />
    <path
       sodipodi:nodetypes="cc"
       inkscape:connector-curvature="0"
       id="path5656-3"
       d="m 132.80176,923.43301 -6.01502,3.9707"
       style="fill:none;stroke:#000000;stroke-width:1px;stroke-linecap:butt;stroke-linejoin:miter;stroke-opacity:1" />
    <path
       sodipodi:nodetypes="cc"
       inkscape:connector-curvature="0"
       id="path5656-1"
       d="m 130.53057,931.83644 -6.01502,3.9707"
       style="fill:none;stroke:#000000;stroke-width:1px;stroke-linecap:butt;stroke-linejoin:miter;stroke-opacity:1" />
    <path
       sodipodi:nodetypes="cc"
       inkscape:connector-curvature="0"
       id="path5656-0"
       d="m 128.48649,940.01274 -6.01502,3.9707"
       style="fill:none;stroke:#000000;stroke-width:1px;stroke-linecap:butt;stroke-linejoin:miter;stroke-opacity:1" />
    <path
       sodipodi:nodetypes="cc"
       inkscape:connector-curvature="0"
       id="path5656-8"
       d="m 126.32885,948.30262 -6.01502,3.9707"
       style="fill:none;stroke:#000000;stroke-width:1px;stroke-linecap:butt;stroke-linejoin:miter;stroke-opacity:1" />
    <path
       sodipodi:nodetypes="cc"
       inkscape:connector-curvature="0"
       id="path5656-16"
       d="m 124.17123,956.36536 -6.01502,3.9707"
       style="fill:none;stroke:#000000;stroke-width:1px;stroke-linecap:butt;stroke-linejoin:miter;stroke-opacity:1" />
    <path
       sodipodi:nodetypes="cc"
       inkscape:connector-curvature="0"
       id="path5829-26-0"
       d="M 99.876109,926.30937 96.071623,919.7198"
       style="fill:none;stroke:#000000;stroke-width:1px;stroke-linecap:butt;stroke-linejoin:miter;stroke-opacity:1" />
    <path
       sodipodi:nodetypes="cc"
       inkscape:connector-curvature="0"
       id="path5829-26-2"
       d="M 97.694839,933.63039 93.89035,927.04082"
       style="fill:none;stroke:#000000;stroke-width:1px;stroke-linecap:butt;stroke-linejoin:miter;stroke-opacity:1" />
    <path
       sodipodi:nodetypes="cc"
       inkscape:connector-curvature="0"
       id="path5829-26-9"
       d="m 95.871973,940.49125 -3.80449,-6.58957"
       style="fill:none;stroke:#000000;stroke-width:1px;stroke-linecap:butt;stroke-linejoin:miter;stroke-opacity:1" />
    <path
       sodipodi:nodetypes="cc"
       inkscape:connector-curvature="0"
       id="path5829-26-26"
       d="m 93.929638,947.914 -3.80449,-6.58957"
       style="fill:none;stroke:#000000;stroke-width:1px;stroke-linecap:butt;stroke-linejoin:miter;stroke-opacity:1" />
    <path
       sodipodi:nodetypes="cc"
       inkscape:connector-curvature="0"
       id="path5829-26-1"
       d="m 91.969575,954.90615 -3.80449,-6.58957"
       style="fill:none;stroke:#000000;stroke-width:1px;stroke-linecap:butt;stroke-linejoin:miter;stroke-opacity:1" />
    <path
       sodipodi:nodetypes="cc"
       inkscape:connector-curvature="0"
       id="path5916-1"
       d="m 148.17327,794.36334 -8.11164,30.27304"
       style="fill:none;stroke:#000000;stroke-width:2;stroke-linecap:butt;stroke-linejoin:miter;stroke-miterlimit:4;stroke-opacity:1;stroke-dasharray:none;marker-end:url(#Arrow1Mend)" />
    <path
       sodipodi:nodetypes="cc"
       inkscape:connector-curvature="0"
       id="path5918-9"
       d="m 80.727096,1046.8366 6.951182,-25.9421"
       style="fill:none;stroke:#000000;stroke-width:2;stroke-linecap:butt;stroke-linejoin:miter;stroke-miterlimit:4;stroke-opacity:1;stroke-dasharray:none;marker-end:url(#Arrow1Mend)" />
    <g
       id="g7310"
       ns0:preamble=""
       ns0:text="$T_\\delta$"
       transform="translate(-69.663842,666.67251)">
      <defs
         id="defs7312">
        <g
           id="g7314">
          <symbol
             id="textext-d0f85837-0"
             overflow="visible"
             style="overflow:visible">
            <path
               id="path7317"
               d="m 4.25,-6.046875 c 0.078125,-0.28125 0.109375,-0.34375 0.234375,-0.375 0.09375,-0.015625 0.421875,-0.015625 0.625,-0.015625 1.015625,0 1.453125,0.03125 1.453125,0.8125 0,0.15625 -0.03125,0.546875 -0.078125,0.796875 0,0.046875 -0.03125,0.15625 -0.03125,0.1875 0,0.0625 0.03125,0.140625 0.125,0.140625 0.109375,0 0.125,-0.078125 0.15625,-0.234375 L 7,-6.46875 C 7.015625,-6.515625 7.015625,-6.609375 7.015625,-6.640625 7.015625,-6.75 6.921875,-6.75 6.75,-6.75 l -5.53125,0 c -0.234375,0 -0.25,0.015625 -0.328125,0.203125 l -0.59375,1.75 c 0,0.015625 -0.0625,0.15625 -0.0625,0.1875 0,0.046875 0.0625,0.109375 0.125,0.109375 0.09375,0 0.109375,-0.0625 0.171875,-0.21875 C 1.0625,-6.265625 1.328125,-6.4375 2.796875,-6.4375 l 0.390625,0 c 0.28125,0 0.28125,0.03125 0.28125,0.125 0,0.046875 -0.03125,0.171875 -0.046875,0.203125 L 2.09375,-0.78125 C 2,-0.421875 1.96875,-0.3125 0.90625,-0.3125 c -0.359375,0 -0.421875,0 -0.421875,0.1875 C 0.484375,0 0.59375,0 0.65625,0 c 0.265625,0 0.546875,-0.015625 0.8125,-0.015625 0.28125,0 0.578125,-0.015625 0.859375,-0.015625 0.28125,0 0.546875,0.015625 0.828125,0.015625 C 3.4375,-0.015625 3.734375,0 4.015625,0 c 0.09375,0 0.21875,0 0.21875,-0.203125 0,-0.109375 -0.078125,-0.109375 -0.34375,-0.109375 -0.234375,0 -0.375,0 -0.625,-0.015625 -0.296875,-0.03125 -0.375,-0.0625 -0.375,-0.21875 0,-0.015625 0,-0.0625 0.046875,-0.203125 z m 0,0"
               style="stroke:none"
               inkscape:connector-curvature="0" />
          </symbol>
          <symbol
             id="textext-d0f85837-1"
             overflow="visible"
             style="overflow:visible">
            <path
               id="path7320"
               d="m 2.0625,-3.03125 c -1.046875,0.265625 -1.640625,1.15625 -1.640625,1.890625 0,0.75 0.5625,1.21875 1.25,1.21875 0.84375,0 1.5,-0.984375 1.5,-2 C 3.171875,-2.59375 2.8125,-3 2.59375,-3.234375 2.34375,-3.53125 1.8125,-4.09375 1.8125,-4.421875 c 0,-0.09375 0.109375,-0.28125 0.390625,-0.28125 0.234375,0 0.4375,0.109375 0.578125,0.1875 0.0625,0.03125 0.3125,0.1875 0.421875,0.1875 C 3.375,-4.328125 3.5,-4.484375 3.5,-4.625 3.5,-4.796875 3.40625,-4.8125 3.03125,-4.890625 2.953125,-4.90625 2.625,-4.96875 2.40625,-4.96875 c -0.53125,0 -0.8125,0.296875 -0.8125,0.71875 0,0.375 0.21875,0.796875 0.46875,1.21875 z m 0.109375,0.1875 C 2.375,-2.53125 2.625,-2.125 2.625,-1.625 c 0,0.578125 -0.34375,1.515625 -0.9375,1.515625 -0.375,0 -0.75,-0.25 -0.75,-0.828125 0,-0.46875 0.265625,-1.671875 1.234375,-1.90625 z m 0,0"
               style="stroke:none"
               inkscape:connector-curvature="0" />
          </symbol>
        </g>
      </defs>
      <g
         id="textext-d0f85837-2">
        <g
           id="g7323"
           style="fill:#000000;fill-opacity:1">
          <use
             id="use7325"
             y="134.765"
             x="223.43201"
             xlink:href="#textext-d0f85837-0"
             width="270"
             height="270" />
        </g>
        <g
           id="g7327"
           style="fill:#000000;fill-opacity:1">
          <use
             id="use7329"
             y="136.259"
             x="229.254"
             xlink:href="#textext-d0f85837-1"
             width="270"
             height="270" />
        </g>
      </g>
    </g>
    <g
       transform="translate(-160.67054,904.92647)"
       ns0:text="$T_M$"
       ns0:preamble=""
       id="g7431">
      <defs
         id="defs7433">
        <g
           id="g7435">
          <symbol
             style="overflow:visible"
             overflow="visible"
             id="textext-ee23685e-0">
            <path
               inkscape:connector-curvature="0"
               style="stroke:none"
               d="m 4.25,-6.046875 c 0.078125,-0.28125 0.109375,-0.34375 0.234375,-0.375 0.09375,-0.015625 0.421875,-0.015625 0.625,-0.015625 1.015625,0 1.453125,0.03125 1.453125,0.8125 0,0.15625 -0.03125,0.546875 -0.078125,0.796875 0,0.046875 -0.03125,0.15625 -0.03125,0.1875 0,0.0625 0.03125,0.140625 0.125,0.140625 0.109375,0 0.125,-0.078125 0.15625,-0.234375 L 7,-6.46875 C 7.015625,-6.515625 7.015625,-6.609375 7.015625,-6.640625 7.015625,-6.75 6.921875,-6.75 6.75,-6.75 l -5.53125,0 c -0.234375,0 -0.25,0.015625 -0.328125,0.203125 l -0.59375,1.75 c 0,0.015625 -0.0625,0.15625 -0.0625,0.1875 0,0.046875 0.0625,0.109375 0.125,0.109375 0.09375,0 0.109375,-0.0625 0.171875,-0.21875 C 1.0625,-6.265625 1.328125,-6.4375 2.796875,-6.4375 l 0.390625,0 c 0.28125,0 0.28125,0.03125 0.28125,0.125 0,0.046875 -0.03125,0.171875 -0.046875,0.203125 L 2.09375,-0.78125 C 2,-0.421875 1.96875,-0.3125 0.90625,-0.3125 c -0.359375,0 -0.421875,0 -0.421875,0.1875 C 0.484375,0 0.59375,0 0.65625,0 c 0.265625,0 0.546875,-0.015625 0.8125,-0.015625 0.28125,0 0.578125,-0.015625 0.859375,-0.015625 0.28125,0 0.546875,0.015625 0.828125,0.015625 C 3.4375,-0.015625 3.734375,0 4.015625,0 c 0.09375,0 0.21875,0 0.21875,-0.203125 0,-0.109375 -0.078125,-0.109375 -0.34375,-0.109375 -0.234375,0 -0.375,0 -0.625,-0.015625 -0.296875,-0.03125 -0.375,-0.0625 -0.375,-0.21875 0,-0.015625 0,-0.0625 0.046875,-0.203125 z m 0,0"
               id="path7438" />
          </symbol>
          <symbol
             style="overflow:visible"
             overflow="visible"
             id="textext-ee23685e-1">
            <path
               inkscape:connector-curvature="0"
               style="stroke:none"
               d="m 7.109375,-4.1875 c 0.0625,-0.265625 0.078125,-0.328125 0.59375,-0.328125 0.15625,0 0.234375,0 0.234375,-0.140625 0,-0.109375 -0.078125,-0.109375 -0.203125,-0.109375 l -0.953125,0 c -0.203125,0 -0.203125,0.015625 -0.296875,0.140625 l -2.6875,3.984375 -0.6875,-3.9375 c -0.03125,-0.171875 -0.03125,-0.1875 -0.25,-0.1875 l -0.984375,0 c -0.140625,0 -0.234375,0 -0.234375,0.15625 0,0.09375 0.078125,0.09375 0.234375,0.09375 0.109375,0 0.140625,0 0.265625,0.015625 0.140625,0.015625 0.15625,0.03125 0.15625,0.109375 0,0 0,0.046875 -0.03125,0.140625 l -0.875,3.5 c -0.0625,0.234375 -0.171875,0.484375 -0.734375,0.5 -0.046875,0 -0.140625,0 -0.140625,0.15625 0,0 0,0.09375 0.109375,0.09375 0.203125,0 0.5,-0.03125 0.71875,-0.03125 C 1.515625,-0.03125 1.921875,0 2.078125,0 2.125,0 2.21875,0 2.21875,-0.15625 2.21875,-0.25 2.125,-0.25 2.0625,-0.25 1.625,-0.265625 1.625,-0.453125 1.625,-0.546875 c 0,-0.03125 0,-0.0625 0.03125,-0.171875 l 0.921875,-3.703125 0.75,4.234375 C 3.359375,-0.0625 3.359375,0 3.46875,0 3.5625,0 3.625,-0.078125 3.671875,-0.15625 L 6.59375,-4.5 6.609375,-4.484375 5.625,-0.546875 C 5.5625,-0.3125 5.546875,-0.25 5.015625,-0.25 c -0.125,0 -0.21875,0 -0.21875,0.15625 0,0 0,0.09375 0.109375,0.09375 0.140625,0 0.296875,-0.015625 0.4375,-0.015625 0.140625,0 0.296875,-0.015625 0.4375,-0.015625 C 5.984375,-0.03125 6.46875,0 6.671875,0 6.703125,0 6.8125,0 6.8125,-0.15625 6.8125,-0.25 6.734375,-0.25 6.59375,-0.25 c -0.015625,0 -0.140625,0 -0.265625,-0.015625 -0.15625,-0.015625 -0.15625,-0.03125 -0.15625,-0.109375 0,-0.03125 0.015625,-0.109375 0.015625,-0.140625 z m 0,0"
               id="path7441" />
          </symbol>
        </g>
      </defs>
      <g
         id="textext-ee23685e-2">
        <g
           style="fill:#000000;fill-opacity:1"
           id="g7444">
          <use
             height="270"
             width="270"
             xlink:href="#textext-ee23685e-0"
             x="223.43201"
             y="134.765"
             id="use7446" />
        </g>
        <g
           style="fill:#000000;fill-opacity:1"
           id="g7448">
          <use
             height="270"
             width="270"
             xlink:href="#textext-ee23685e-1"
             x="229.254"
             y="136.259"
             id="use7450" />
        </g>
      </g>
    </g>
    <g
       id="g7576"
       ns0:preamble=""
       ns0:text="$T_U$"
       transform="translate(-160.87203,786.12557)">
      <defs
         id="defs7578">
        <g
           id="g7580">
          <symbol
             id="textext-3c5c36be-0"
             overflow="visible"
             style="overflow:visible">
            <path
               id="path7583"
               d="m 4.25,-6.046875 c 0.078125,-0.28125 0.109375,-0.34375 0.234375,-0.375 0.09375,-0.015625 0.421875,-0.015625 0.625,-0.015625 1.015625,0 1.453125,0.03125 1.453125,0.8125 0,0.15625 -0.03125,0.546875 -0.078125,0.796875 0,0.046875 -0.03125,0.15625 -0.03125,0.1875 0,0.0625 0.03125,0.140625 0.125,0.140625 0.109375,0 0.125,-0.078125 0.15625,-0.234375 L 7,-6.46875 C 7.015625,-6.515625 7.015625,-6.609375 7.015625,-6.640625 7.015625,-6.75 6.921875,-6.75 6.75,-6.75 l -5.53125,0 c -0.234375,0 -0.25,0.015625 -0.328125,0.203125 l -0.59375,1.75 c 0,0.015625 -0.0625,0.15625 -0.0625,0.1875 0,0.046875 0.0625,0.109375 0.125,0.109375 0.09375,0 0.109375,-0.0625 0.171875,-0.21875 C 1.0625,-6.265625 1.328125,-6.4375 2.796875,-6.4375 l 0.390625,0 c 0.28125,0 0.28125,0.03125 0.28125,0.125 0,0.046875 -0.03125,0.171875 -0.046875,0.203125 L 2.09375,-0.78125 C 2,-0.421875 1.96875,-0.3125 0.90625,-0.3125 c -0.359375,0 -0.421875,0 -0.421875,0.1875 C 0.484375,0 0.59375,0 0.65625,0 c 0.265625,0 0.546875,-0.015625 0.8125,-0.015625 0.28125,0 0.578125,-0.015625 0.859375,-0.015625 0.28125,0 0.546875,0.015625 0.828125,0.015625 C 3.4375,-0.015625 3.734375,0 4.015625,0 c 0.09375,0 0.21875,0 0.21875,-0.203125 0,-0.109375 -0.078125,-0.109375 -0.34375,-0.109375 -0.234375,0 -0.375,0 -0.625,-0.015625 -0.296875,-0.03125 -0.375,-0.0625 -0.375,-0.21875 0,-0.015625 0,-0.0625 0.046875,-0.203125 z m 0,0"
               style="stroke:none"
               inkscape:connector-curvature="0" />
          </symbol>
          <symbol
             id="textext-3c5c36be-1"
             overflow="visible"
             style="overflow:visible">
            <path
               id="path7586"
               d="m 4.921875,-4 c 0.078125,-0.265625 0.1875,-0.5 0.75,-0.515625 0.03125,0 0.140625,0 0.140625,-0.140625 0,-0.046875 -0.046875,-0.109375 -0.109375,-0.109375 -0.21875,0 -0.484375,0.03125 -0.71875,0.03125 -0.234375,0 -0.53125,-0.03125 -0.734375,-0.03125 -0.03125,0 -0.140625,0 -0.140625,0.15625 0,0.09375 0.09375,0.09375 0.15625,0.09375 0.328125,0.015625 0.4375,0.125 0.4375,0.296875 0,0.03125 0,0.0625 0,0.09375 C 4.59375,-3.671875 4.078125,-1.578125 4,-1.359375 c -0.390625,0.890625 -1.21875,1.25 -1.78125,1.25 C 1.75,-0.109375 1.25,-0.34375 1.25,-1.03125 c 0,-0.171875 0.03125,-0.34375 0.0625,-0.5 L 2,-4.21875 c 0.0625,-0.234375 0.0625,-0.296875 0.609375,-0.296875 0.109375,0 0.203125,0 0.203125,-0.140625 0,-0.03125 -0.015625,-0.109375 -0.109375,-0.109375 -0.203125,0 -0.703125,0.03125 -0.90625,0.03125 -0.125,0 -0.375,0 -0.484375,0 C 1.171875,-4.75 1,-4.765625 0.875,-4.765625 c -0.046875,0 -0.15625,0 -0.15625,0.15625 0,0.09375 0.09375,0.09375 0.234375,0.09375 0,0 0.140625,0 0.265625,0.015625 0.140625,0.015625 0.15625,0.03125 0.15625,0.109375 0,0.03125 -0.078125,0.3125 -0.109375,0.453125 l -0.15625,0.625 -0.40625,1.59375 c -0.0625,0.28125 -0.0625,0.34375 -0.0625,0.484375 0,0.859375 0.71875,1.375 1.546875,1.375 0.96875,0 1.890625,-0.78125 2.125,-1.6875 z m 0,0"
               style="stroke:none"
               inkscape:connector-curvature="0" />
          </symbol>
        </g>
      </defs>
      <g
         id="textext-3c5c36be-2">
        <g
           id="g7589"
           style="fill:#000000;fill-opacity:1">
          <use
             id="use7591"
             y="134.765"
             x="223.43201"
             xlink:href="#textext-3c5c36be-0"
             width="270"
             height="270" />
        </g>
        <g
           id="g7593"
           style="fill:#000000;fill-opacity:1">
          <use
             id="use7595"
             y="136.259"
             x="229.254"
             xlink:href="#textext-3c5c36be-1"
             width="270"
             height="270" />
        </g>
      </g>
    </g>
    <g
       transform="translate(-73.584782,823.25684)"
       ns0:text="B"
       ns0:preamble=""
       id="g7745">
      <defs
         id="defs7747">
        <g
           id="g7749">
          <symbol
             style="overflow:visible"
             overflow="visible"
             id="textext-fdcc0b61-0">
            <path
               inkscape:connector-curvature="0"
               style="stroke:none"
               d="m 2.21875,-3.65625 0,-2.4375 C 2.21875,-6.4375 2.234375,-6.5 2.703125,-6.5 l 1.234375,0 c 0.96875,0 1.3125,0.84375 1.3125,1.375 0,0.640625 -0.484375,1.46875 -1.59375,1.46875 z M 4.5625,-3.5625 C 5.53125,-3.75 6.21875,-4.390625 6.21875,-5.125 6.21875,-5.984375 5.296875,-6.8125 4,-6.8125 l -3.640625,0 0,0.3125 0.234375,0 c 0.765625,0 0.796875,0.109375 0.796875,0.46875 l 0,5.25 c 0,0.359375 -0.03125,0.46875 -0.796875,0.46875 l -0.234375,0 0,0.3125 3.90625,0 c 1.328125,0 2.21875,-0.890625 2.21875,-1.828125 0,-0.859375 -0.8125,-1.609375 -1.921875,-1.734375 z m -0.609375,3.25 -1.25,0 c -0.46875,0 -0.484375,-0.0625 -0.484375,-0.390625 l 0,-2.71875 1.875,0 C 5.078125,-3.421875 5.5,-2.5 5.5,-1.828125 5.5,-1.125 4.96875,-0.3125 3.953125,-0.3125 z m 0,0"
               id="path7752" />
          </symbol>
        </g>
      </defs>
      <g
         id="textext-fdcc0b61-1">
        <g
           style="fill:#000000;fill-opacity:1"
           id="g7755">
          <use
             height="270"
             width="270"
             xlink:href="#textext-fdcc0b61-0"
             x="223.43201"
             y="134.765"
             id="use7757" />
        </g>
      </g>
    </g>
    <g
       id="g7923"
       ns0:preamble=""
       ns0:text="G"
       transform="translate(-11.890573,694.79119)">
      <defs
         id="defs7925">
        <g
           id="g7927">
          <symbol
             id="textext-9afb4ab2-0"
             overflow="visible"
             style="overflow:visible">
            <path
               id="path7930"
               d="m 5.90625,-0.625 c 0.140625,0.21875 0.53125,0.609375 0.640625,0.609375 0.09375,0 0.09375,-0.078125 0.09375,-0.21875 l 0,-1.734375 c 0,-0.390625 0.03125,-0.4375 0.6875,-0.4375 l 0,-0.3125 c -0.375,0 -0.921875,0.03125 -1.21875,0.03125 -0.390625,0 -1.25,0 -1.609375,-0.03125 l 0,0.3125 0.328125,0 C 5.71875,-2.40625 5.75,-2.296875 5.75,-1.9375 l 0,0.640625 c 0,1.125 -1.265625,1.203125 -1.546875,1.203125 -0.640625,0 -2.625,-0.34375 -2.625,-3.3125 0,-2.984375 1.96875,-3.3125 2.5625,-3.3125 1.078125,0 1.984375,0.890625 2.171875,2.359375 0.03125,0.140625 0.03125,0.171875 0.171875,0.171875 0.15625,0 0.15625,-0.03125 0.15625,-0.234375 l 0,-2.359375 c 0,-0.171875 0,-0.25 -0.109375,-0.25 -0.046875,0 -0.078125,0 -0.15625,0.125 l -0.5,0.734375 C 5.546875,-6.484375 5.015625,-7.03125 4.03125,-7.03125 c -1.859375,0 -3.46875,1.578125 -3.46875,3.625 0,2.046875 1.59375,3.625 3.484375,3.625 0.734375,0 1.53125,-0.265625 1.859375,-0.84375 z m 0,0"
               style="stroke:none"
               inkscape:connector-curvature="0" />
          </symbol>
        </g>
      </defs>
      <g
         id="textext-9afb4ab2-1">
        <g
           id="g7933"
           style="fill:#000000;fill-opacity:1">
          <use
             id="use7935"
             y="134.765"
             x="223.43201"
             xlink:href="#textext-9afb4ab2-0"
             width="270"
             height="270" />
        </g>
      </g>
    </g>
    <path
       sodipodi:type="arc"
       style="fill:none;stroke:#000000;stroke-width:2.29584455;stroke-linecap:round;stroke-linejoin:round;stroke-miterlimit:4;stroke-opacity:1;stroke-dasharray:none;stroke-dashoffset:0"
       id="path8026-5"
       sodipodi:cx="215.52213"
       sodipodi:cy="46.353981"
       sodipodi:rx="17.203539"
       sodipodi:ry="16.247787"
       d="m 232.72566,46.353981 c 0,8.973405 -7.70228,16.247787 -17.20353,16.247787 -9.50126,0 -17.20354,-7.274382 -17.20354,-16.247787 0,-8.973405 7.70228,-16.247787 17.20354,-16.247787 9.50125,0 17.20353,7.274382 17.20353,16.247787 z"
       transform="matrix(0.42329751,0,0,0.44819735,62.048781,933.85836)" />
    <path
       style="fill:none;stroke:#000000;stroke-width:1;stroke-linecap:butt;stroke-linejoin:miter;stroke-miterlimit:4;stroke-opacity:1;stroke-dasharray:4, 4;stroke-dashoffset:0"
       d="M 150.33262,786.12961 79.577698,1050.1906"
       id="path8046"
       inkscape:connector-curvature="0"
       sodipodi:nodetypes="cc" />
    <path
       style="fill:none;stroke:#000000;stroke-width:1px;stroke-linecap:butt;stroke-linejoin:miter;stroke-opacity:1"
       d="m 124.84513,945.3155 18.5177,5.73451"
       id="path8052"
       inkscape:connector-curvature="0"
       sodipodi:nodetypes="cc" />
    <path
       style="fill:none;stroke:#000000;stroke-width:1px;stroke-linecap:butt;stroke-linejoin:miter;stroke-opacity:1"
       d="m 208.82803,49.683048 -5.32207,6.589234"
       id="path8054"
       inkscape:connector-curvature="0"
       transform="translate(0,782.35975)" />
    <path
       style="fill:none;stroke:#000000;stroke-width:1px;stroke-linecap:butt;stroke-linejoin:miter;stroke-opacity:1;marker-start:url(#Arrow1Mstart);marker-end:url(#Arrow1Mend-8)"
       d="m 207.71461,245.78981 16.17035,-16.17034 21.64148,0"
       id="path8060"
       inkscape:connector-curvature="0"
       transform="translate(0,782.35975)"
       sodipodi:nodetypes="ccc" />
    <path
       style="fill:none;stroke:#000000;stroke-width:1px;stroke-linecap:butt;stroke-linejoin:miter;stroke-opacity:1;marker-end:url(#Arrow1Mend-8)"
       d="m 224.12389,229.85841 0,26.92504"
       id="path8062"
       inkscape:connector-curvature="0"
       transform="translate(0,782.35975)"
       sodipodi:nodetypes="cc" />
    <g
       transform="translate(-28.487596,892.80494)"
       ns0:text="$\\hat{n}_1$"
       ns0:preamble=""
       id="g8922">
      <defs
         id="defs8924">
        <g
           id="g8926">
          <symbol
             style="overflow:visible"
             overflow="visible"
             id="textext-aceaceae-0">
            <path
               inkscape:connector-curvature="0"
               style="stroke:none"
               d="M 2.5,-6.921875 1.15625,-5.5625 1.328125,-5.390625 2.5,-6.40625 3.640625,-5.390625 3.8125,-5.5625 z m 0,0"
               id="path8929" />
          </symbol>
          <symbol
             style="overflow:visible"
             overflow="visible"
             id="textext-aceaceae-1">
            <path
               inkscape:connector-curvature="0"
               style="stroke:none"
               d="m 0.875,-0.59375 c -0.03125,0.15625 -0.09375,0.390625 -0.09375,0.4375 0,0.171875 0.140625,0.265625 0.296875,0.265625 0.125,0 0.296875,-0.078125 0.375,-0.28125 0,-0.015625 0.125,-0.484375 0.1875,-0.734375 l 0.21875,-0.890625 C 1.90625,-2.03125 1.96875,-2.25 2.03125,-2.46875 c 0.03125,-0.171875 0.109375,-0.46875 0.125,-0.5 0.140625,-0.3125 0.671875,-1.21875 1.625,-1.21875 0.453125,0 0.53125,0.375 0.53125,0.703125 0,0.609375 -0.484375,1.890625 -0.640625,2.3125 C 3.578125,-0.9375 3.5625,-0.8125 3.5625,-0.703125 c 0,0.46875 0.359375,0.8125 0.828125,0.8125 0.9375,0 1.296875,-1.453125 1.296875,-1.53125 0,-0.109375 -0.078125,-0.109375 -0.109375,-0.109375 -0.109375,0 -0.109375,0.03125 -0.15625,0.1875 -0.203125,0.671875 -0.53125,1.234375 -1.015625,1.234375 -0.171875,0 -0.234375,-0.09375 -0.234375,-0.328125 0,-0.25 0.078125,-0.484375 0.171875,-0.703125 0.1875,-0.53125 0.609375,-1.625 0.609375,-2.203125 0,-0.65625 -0.421875,-1.0625 -1.140625,-1.0625 -0.90625,0 -1.390625,0.640625 -1.5625,0.875 -0.046875,-0.5625 -0.453125,-0.875 -0.921875,-0.875 -0.453125,0 -0.640625,0.390625 -0.734375,0.5625 C 0.421875,-3.5 0.296875,-2.90625 0.296875,-2.875 c 0,0.109375 0.09375,0.109375 0.109375,0.109375 0.109375,0 0.109375,-0.015625 0.171875,-0.234375 0.171875,-0.703125 0.375,-1.1875 0.734375,-1.1875 0.1875,0 0.296875,0.125 0.296875,0.453125 0,0.21875 -0.03125,0.328125 -0.15625,0.84375 z m 0,0"
               id="path8932" />
          </symbol>
          <symbol
             style="overflow:visible"
             overflow="visible"
             id="textext-aceaceae-2">
            <path
               inkscape:connector-curvature="0"
               style="stroke:none"
               d="m 2.328125,-4.4375 c 0,-0.1875 0,-0.1875 -0.203125,-0.1875 -0.453125,0.4375 -1.078125,0.4375 -1.359375,0.4375 l 0,0.25 c 0.15625,0 0.625,0 1,-0.1875 l 0,3.546875 c 0,0.234375 0,0.328125 -0.6875,0.328125 l -0.265625,0 0,0.25 c 0.125,0 0.984375,-0.03125 1.234375,-0.03125 0.21875,0 1.09375,0.03125 1.25,0.03125 l 0,-0.25 -0.265625,0 c -0.703125,0 -0.703125,-0.09375 -0.703125,-0.328125 z m 0,0"
               id="path8935" />
          </symbol>
        </g>
      </defs>
      <g
         id="textext-aceaceae-3">
        <g
           style="fill:#000000;fill-opacity:1"
           id="g8938">
          <use
             height="270"
             width="270"
             xlink:href="#textext-aceaceae-0"
             x="223.931"
             y="134.765"
             id="use8940" />
        </g>
        <g
           style="fill:#000000;fill-opacity:1"
           id="g8942">
          <use
             height="270"
             width="270"
             xlink:href="#textext-aceaceae-1"
             x="223.43201"
             y="134.765"
             id="use8944" />
        </g>
        <g
           style="fill:#000000;fill-opacity:1"
           id="g8946">
          <use
             height="270"
             width="270"
             xlink:href="#textext-aceaceae-2"
             x="229.412"
             y="136.259"
             id="use8948" />
        </g>
      </g>
    </g>
    <g
       id="g9176"
       ns0:preamble=""
       ns0:text="$\\hat{n}_2$"
       transform="translate(21.069447,871.92784)">
      <defs
         id="defs9178">
        <g
           id="g9180">
          <symbol
             id="textext-47588365-0"
             overflow="visible"
             style="overflow:visible">
            <path
               id="path9183"
               d="M 2.5,-6.921875 1.15625,-5.5625 1.328125,-5.390625 2.5,-6.40625 3.640625,-5.390625 3.8125,-5.5625 z m 0,0"
               style="stroke:none"
               inkscape:connector-curvature="0" />
          </symbol>
          <symbol
             id="textext-47588365-1"
             overflow="visible"
             style="overflow:visible">
            <path
               id="path9186"
               d="m 0.875,-0.59375 c -0.03125,0.15625 -0.09375,0.390625 -0.09375,0.4375 0,0.171875 0.140625,0.265625 0.296875,0.265625 0.125,0 0.296875,-0.078125 0.375,-0.28125 0,-0.015625 0.125,-0.484375 0.1875,-0.734375 l 0.21875,-0.890625 C 1.90625,-2.03125 1.96875,-2.25 2.03125,-2.46875 c 0.03125,-0.171875 0.109375,-0.46875 0.125,-0.5 0.140625,-0.3125 0.671875,-1.21875 1.625,-1.21875 0.453125,0 0.53125,0.375 0.53125,0.703125 0,0.609375 -0.484375,1.890625 -0.640625,2.3125 C 3.578125,-0.9375 3.5625,-0.8125 3.5625,-0.703125 c 0,0.46875 0.359375,0.8125 0.828125,0.8125 0.9375,0 1.296875,-1.453125 1.296875,-1.53125 0,-0.109375 -0.078125,-0.109375 -0.109375,-0.109375 -0.109375,0 -0.109375,0.03125 -0.15625,0.1875 -0.203125,0.671875 -0.53125,1.234375 -1.015625,1.234375 -0.171875,0 -0.234375,-0.09375 -0.234375,-0.328125 0,-0.25 0.078125,-0.484375 0.171875,-0.703125 0.1875,-0.53125 0.609375,-1.625 0.609375,-2.203125 0,-0.65625 -0.421875,-1.0625 -1.140625,-1.0625 -0.90625,0 -1.390625,0.640625 -1.5625,0.875 -0.046875,-0.5625 -0.453125,-0.875 -0.921875,-0.875 -0.453125,0 -0.640625,0.390625 -0.734375,0.5625 C 0.421875,-3.5 0.296875,-2.90625 0.296875,-2.875 c 0,0.109375 0.09375,0.109375 0.109375,0.109375 0.109375,0 0.109375,-0.015625 0.171875,-0.234375 0.171875,-0.703125 0.375,-1.1875 0.734375,-1.1875 0.1875,0 0.296875,0.125 0.296875,0.453125 0,0.21875 -0.03125,0.328125 -0.15625,0.84375 z m 0,0"
               style="stroke:none"
               inkscape:connector-curvature="0" />
          </symbol>
          <symbol
             id="textext-47588365-2"
             overflow="visible"
             style="overflow:visible">
            <path
               id="path9189"
               d="m 3.515625,-1.265625 -0.234375,0 c -0.015625,0.15625 -0.09375,0.5625 -0.1875,0.625 -0.046875,0.046875 -0.578125,0.046875 -0.6875,0.046875 l -1.28125,0 c 0.734375,-0.640625 0.984375,-0.84375 1.390625,-1.171875 0.515625,-0.40625 1,-0.84375 1,-1.5 0,-0.84375 -0.734375,-1.359375 -1.625,-1.359375 -0.859375,0 -1.453125,0.609375 -1.453125,1.25 0,0.34375 0.296875,0.390625 0.375,0.390625 0.15625,0 0.359375,-0.125 0.359375,-0.375 0,-0.125 -0.046875,-0.375 -0.40625,-0.375 C 0.984375,-4.21875 1.453125,-4.375 1.78125,-4.375 c 0.703125,0 1.0625,0.546875 1.0625,1.109375 0,0.609375 -0.4375,1.078125 -0.65625,1.328125 L 0.515625,-0.265625 C 0.4375,-0.203125 0.4375,-0.1875 0.4375,0 l 2.875,0 z m 0,0"
               style="stroke:none"
               inkscape:connector-curvature="0" />
          </symbol>
        </g>
      </defs>
      <g
         id="textext-47588365-3">
        <g
           id="g9192"
           style="fill:#000000;fill-opacity:1">
          <use
             id="use9194"
             y="134.765"
             x="223.931"
             xlink:href="#textext-47588365-0"
             width="270"
             height="270" />
        </g>
        <g
           id="g9196"
           style="fill:#000000;fill-opacity:1">
          <use
             id="use9198"
             y="134.765"
             x="223.43201"
             xlink:href="#textext-47588365-1"
             width="270"
             height="270" />
        </g>
        <g
           id="g9200"
           style="fill:#000000;fill-opacity:1">
          <use
             id="use9202"
             y="136.259"
             x="229.412"
             xlink:href="#textext-47588365-2"
             width="270"
             height="270" />
        </g>
      </g>
    </g>
    <g
       transform="translate(6.3692214,905.16468)"
       ns0:text="$\\hat{n}_3$"
       ns0:preamble=""
       id="g9462">
      <defs
         id="defs9464">
        <g
           id="g9466">
          <symbol
             style="overflow:visible"
             overflow="visible"
             id="textext-61a44e7e-0">
            <path
               inkscape:connector-curvature="0"
               style="stroke:none"
               d="M 2.5,-6.921875 1.15625,-5.5625 1.328125,-5.390625 2.5,-6.40625 3.640625,-5.390625 3.8125,-5.5625 z m 0,0"
               id="path9469" />
          </symbol>
          <symbol
             style="overflow:visible"
             overflow="visible"
             id="textext-61a44e7e-1">
            <path
               inkscape:connector-curvature="0"
               style="stroke:none"
               d="m 0.875,-0.59375 c -0.03125,0.15625 -0.09375,0.390625 -0.09375,0.4375 0,0.171875 0.140625,0.265625 0.296875,0.265625 0.125,0 0.296875,-0.078125 0.375,-0.28125 0,-0.015625 0.125,-0.484375 0.1875,-0.734375 l 0.21875,-0.890625 C 1.90625,-2.03125 1.96875,-2.25 2.03125,-2.46875 c 0.03125,-0.171875 0.109375,-0.46875 0.125,-0.5 0.140625,-0.3125 0.671875,-1.21875 1.625,-1.21875 0.453125,0 0.53125,0.375 0.53125,0.703125 0,0.609375 -0.484375,1.890625 -0.640625,2.3125 C 3.578125,-0.9375 3.5625,-0.8125 3.5625,-0.703125 c 0,0.46875 0.359375,0.8125 0.828125,0.8125 0.9375,0 1.296875,-1.453125 1.296875,-1.53125 0,-0.109375 -0.078125,-0.109375 -0.109375,-0.109375 -0.109375,0 -0.109375,0.03125 -0.15625,0.1875 -0.203125,0.671875 -0.53125,1.234375 -1.015625,1.234375 -0.171875,0 -0.234375,-0.09375 -0.234375,-0.328125 0,-0.25 0.078125,-0.484375 0.171875,-0.703125 0.1875,-0.53125 0.609375,-1.625 0.609375,-2.203125 0,-0.65625 -0.421875,-1.0625 -1.140625,-1.0625 -0.90625,0 -1.390625,0.640625 -1.5625,0.875 -0.046875,-0.5625 -0.453125,-0.875 -0.921875,-0.875 -0.453125,0 -0.640625,0.390625 -0.734375,0.5625 C 0.421875,-3.5 0.296875,-2.90625 0.296875,-2.875 c 0,0.109375 0.09375,0.109375 0.109375,0.109375 0.109375,0 0.109375,-0.015625 0.171875,-0.234375 0.171875,-0.703125 0.375,-1.1875 0.734375,-1.1875 0.1875,0 0.296875,0.125 0.296875,0.453125 0,0.21875 -0.03125,0.328125 -0.15625,0.84375 z m 0,0"
               id="path9472" />
          </symbol>
          <symbol
             style="overflow:visible"
             overflow="visible"
             id="textext-61a44e7e-2">
            <path
               inkscape:connector-curvature="0"
               style="stroke:none"
               d="m 1.90625,-2.328125 c 0.546875,0 0.9375,0.375 0.9375,1.125 0,0.859375 -0.515625,1.125 -0.90625,1.125 -0.28125,0 -0.90625,-0.078125 -1.1875,-0.5 0.328125,0 0.40625,-0.234375 0.40625,-0.390625 0,-0.21875 -0.171875,-0.375 -0.390625,-0.375 -0.1875,0 -0.390625,0.125 -0.390625,0.40625 0,0.65625 0.71875,1.078125 1.5625,1.078125 0.96875,0 1.640625,-0.65625 1.640625,-1.34375 0,-0.546875 -0.4375,-1.09375 -1.203125,-1.25 0.71875,-0.265625 0.984375,-0.78125 0.984375,-1.21875 0,-0.546875 -0.625,-0.953125 -1.40625,-0.953125 -0.765625,0 -1.359375,0.375 -1.359375,0.9375 0,0.234375 0.15625,0.359375 0.359375,0.359375 0.21875,0 0.359375,-0.15625 0.359375,-0.34375 0,-0.203125 -0.140625,-0.359375 -0.359375,-0.375 0.25,-0.296875 0.71875,-0.375 0.984375,-0.375 0.3125,0 0.75,0.15625 0.75,0.75 0,0.296875 -0.09375,0.625 -0.28125,0.828125 -0.21875,0.265625 -0.421875,0.28125 -0.765625,0.3125 -0.171875,0.015625 -0.1875,0.015625 -0.21875,0.015625 -0.015625,0 -0.078125,0.015625 -0.078125,0.09375 0,0.09375 0.0625,0.09375 0.1875,0.09375 z m 0,0"
               id="path9475" />
          </symbol>
        </g>
      </defs>
      <g
         id="textext-61a44e7e-3">
        <g
           style="fill:#000000;fill-opacity:1"
           id="g9478">
          <use
             height="270"
             width="270"
             xlink:href="#textext-61a44e7e-0"
             x="223.931"
             y="134.765"
             id="use9480" />
        </g>
        <g
           style="fill:#000000;fill-opacity:1"
           id="g9482">
          <use
             height="270"
             width="270"
             xlink:href="#textext-61a44e7e-1"
             x="223.43201"
             y="134.765"
             id="use9484" />
        </g>
        <g
           style="fill:#000000;fill-opacity:1"
           id="g9486">
          <use
             height="270"
             width="270"
             xlink:href="#textext-61a44e7e-2"
             x="229.412"
             y="136.259"
             id="use9488" />
        </g>
      </g>
    </g>
    <g
       id="g9780"
       ns0:preamble=""
       ns0:text="$\\hat{b}_3$, $\\hat{g}_3$"
       transform="translate(-132.55075,735.98263)">
      <defs
         id="defs9782">
        <g
           id="g9784">
          <symbol
             id="textext-1fa85283-0"
             overflow="visible"
             style="overflow:visible">
            <path
               id="path9787"
               d="M 2.5,-6.921875 1.15625,-5.5625 1.328125,-5.390625 2.5,-6.40625 3.640625,-5.390625 3.8125,-5.5625 z m 0,0"
               style="stroke:none"
               inkscape:connector-curvature="0" />
          </symbol>
          <symbol
             id="textext-1fa85283-1"
             overflow="visible"
             style="overflow:visible">
            <path
               id="path9790"
               d="m 2.03125,-0.015625 c 0,-0.625 -0.25,-1.046875 -0.640625,-1.046875 -0.359375,0 -0.53125,0.28125 -0.53125,0.53125 0,0.265625 0.171875,0.53125 0.53125,0.53125 0.15625,0 0.28125,-0.0625 0.375,-0.140625 L 1.78125,-0.15625 c 0.015625,0 0.015625,0 0.015625,0.140625 0,0.640625 -0.265625,1.25 -0.703125,1.71875 -0.0625,0.0625 -0.078125,0.078125 -0.078125,0.109375 0,0.078125 0.046875,0.109375 0.09375,0.109375 0.125,0 0.921875,-0.78125 0.921875,-1.9375 z m 0,0"
               style="stroke:none"
               inkscape:connector-curvature="0" />
          </symbol>
          <symbol
             id="textext-1fa85283-2"
             overflow="visible"
             style="overflow:visible">
            <path
               id="path9793"
               d="m 2.375,-6.8125 c 0,0 0,-0.109375 -0.125,-0.109375 -0.21875,0 -0.953125,0.078125 -1.21875,0.109375 -0.078125,0 -0.1875,0.015625 -0.1875,0.1875 0,0.125 0.09375,0.125 0.25,0.125 0.46875,0 0.484375,0.0625 0.484375,0.171875 0,0.0625 -0.078125,0.40625 -0.125,0.609375 l -0.828125,3.25 c -0.109375,0.5 -0.15625,0.671875 -0.15625,1.015625 0,0.9375 0.53125,1.5625 1.265625,1.5625 1.171875,0 2.40625,-1.484375 2.40625,-2.921875 0,-0.90625 -0.53125,-1.59375 -1.328125,-1.59375 -0.453125,0 -0.875,0.296875 -1.171875,0.59375 z M 1.453125,-3.046875 C 1.5,-3.265625 1.5,-3.28125 1.59375,-3.390625 2.078125,-4.03125 2.53125,-4.1875 2.796875,-4.1875 c 0.359375,0 0.625,0.296875 0.625,0.9375 0,0.59375 -0.328125,1.734375 -0.515625,2.109375 -0.328125,0.671875 -0.78125,1.03125 -1.171875,1.03125 -0.34375,0 -0.671875,-0.265625 -0.671875,-1 0,-0.203125 0,-0.390625 0.15625,-1.015625 z m 0,0"
               style="stroke:none"
               inkscape:connector-curvature="0" />
          </symbol>
          <symbol
             id="textext-1fa85283-3"
             overflow="visible"
             style="overflow:visible">
            <path
               id="path9796"
               d="M 4.6875,-3.765625 C 4.703125,-3.8125 4.71875,-3.875 4.71875,-3.9375 c 0,-0.171875 -0.109375,-0.265625 -0.28125,-0.265625 -0.09375,0 -0.375,0.0625 -0.40625,0.421875 -0.1875,-0.359375 -0.53125,-0.625 -0.9375,-0.625 -1.125,0 -2.359375,1.390625 -2.359375,2.828125 0,0.984375 0.59375,1.578125 1.3125,1.578125 0.59375,0 1.0625,-0.46875 1.15625,-0.578125 L 3.21875,-0.5625 C 3.015625,0.3125 2.890625,0.734375 2.890625,0.75 2.84375,0.84375 2.515625,1.828125 1.453125,1.828125 1.265625,1.828125 0.9375,1.8125 0.65625,1.71875 0.953125,1.640625 1.0625,1.375 1.0625,1.203125 c 0,-0.15625 -0.109375,-0.34375 -0.375,-0.34375 -0.21875,0 -0.53125,0.171875 -0.53125,0.578125 0,0.40625 0.359375,0.609375 1.3125,0.609375 1.25,0 1.96875,-0.78125 2.125,-1.375 z M 3.40625,-1.28125 C 3.34375,-1.015625 3.109375,-0.765625 2.890625,-0.578125 2.6875,-0.40625 2.375,-0.21875 2.078125,-0.21875 c -0.5,0 -0.640625,-0.515625 -0.640625,-0.921875 0,-0.46875 0.28125,-1.65625 0.5625,-2.15625 C 2.265625,-3.78125 2.6875,-4.1875 3.109375,-4.1875 c 0.65625,0 0.796875,0.8125 0.796875,0.859375 0,0.046875 -0.015625,0.109375 -0.03125,0.140625 z m 0,0"
               style="stroke:none"
               inkscape:connector-curvature="0" />
          </symbol>
          <symbol
             id="textext-1fa85283-4"
             overflow="visible"
             style="overflow:visible">
            <path
               id="path9799"
               d="m 1.90625,-2.328125 c 0.546875,0 0.9375,0.375 0.9375,1.125 0,0.859375 -0.515625,1.125 -0.90625,1.125 -0.28125,0 -0.90625,-0.078125 -1.1875,-0.5 0.328125,0 0.40625,-0.234375 0.40625,-0.390625 0,-0.21875 -0.171875,-0.375 -0.390625,-0.375 -0.1875,0 -0.390625,0.125 -0.390625,0.40625 0,0.65625 0.71875,1.078125 1.5625,1.078125 0.96875,0 1.640625,-0.65625 1.640625,-1.34375 0,-0.546875 -0.4375,-1.09375 -1.203125,-1.25 0.71875,-0.265625 0.984375,-0.78125 0.984375,-1.21875 0,-0.546875 -0.625,-0.953125 -1.40625,-0.953125 -0.765625,0 -1.359375,0.375 -1.359375,0.9375 0,0.234375 0.15625,0.359375 0.359375,0.359375 0.21875,0 0.359375,-0.15625 0.359375,-0.34375 0,-0.203125 -0.140625,-0.359375 -0.359375,-0.375 0.25,-0.296875 0.71875,-0.375 0.984375,-0.375 0.3125,0 0.75,0.15625 0.75,0.75 0,0.296875 -0.09375,0.625 -0.28125,0.828125 -0.21875,0.265625 -0.421875,0.28125 -0.765625,0.3125 -0.171875,0.015625 -0.1875,0.015625 -0.21875,0.015625 -0.015625,0 -0.078125,0.015625 -0.078125,0.09375 0,0.09375 0.0625,0.09375 0.1875,0.09375 z m 0,0"
               style="stroke:none"
               inkscape:connector-curvature="0" />
          </symbol>
        </g>
      </defs>
      <g
         id="textext-1fa85283-5">
        <g
           id="g9802"
           style="fill:#000000;fill-opacity:1">
          <use
             id="use9804"
             y="132.136"
             x="223.07899"
             xlink:href="#textext-1fa85283-0"
             width="270"
             height="270" />
        </g>
        <g
           id="g9806"
           style="fill:#000000;fill-opacity:1">
          <use
             id="use9808"
             y="134.765"
             x="223.43201"
             xlink:href="#textext-1fa85283-2"
             width="270"
             height="270" />
        </g>
        <g
           id="g9810"
           style="fill:#000000;fill-opacity:1">
          <use
             id="use9812"
             y="136.259"
             x="227.70799"
             xlink:href="#textext-1fa85283-4"
             width="270"
             height="270" />
        </g>
        <g
           id="g9814"
           style="fill:#000000;fill-opacity:1">
          <use
             id="use9816"
             y="134.765"
             x="232.177"
             xlink:href="#textext-1fa85283-1"
             width="270"
             height="270" />
        </g>
        <g
           id="g9818"
           style="fill:#000000;fill-opacity:1">
          <use
             id="use9820"
             y="134.765"
             x="238.61084"
             xlink:href="#textext-1fa85283-0"
             width="270"
             height="270" />
        </g>
        <g
           id="g9822"
           style="fill:#000000;fill-opacity:1">
          <use
             id="use9824"
             y="134.765"
             x="238.265"
             xlink:href="#textext-1fa85283-3"
             width="270"
             height="270" />
        </g>
        <g
           id="g9826"
           style="fill:#000000;fill-opacity:1">
          <use
             id="use9828"
             y="136.259"
             x="243.017"
             xlink:href="#textext-1fa85283-4"
             width="270"
             height="270" />
        </g>
      </g>
    </g>
    <path
       style="fill:none;stroke:#000000;stroke-width:1px;stroke-linecap:butt;stroke-linejoin:miter;stroke-opacity:1;marker-end:url(#Arrow1Mend-8)"
       d="m 130.82562,858.84166 -4.56177,17.46359"
       id="path8062-8"
       inkscape:connector-curvature="0"
       sodipodi:nodetypes="cc" />
    <path
       sodipodi:type="arc"
       style="fill:none;stroke:#000000;stroke-width:2.29584455;stroke-linecap:round;stroke-linejoin:round;stroke-miterlimit:4;stroke-opacity:1;stroke-dasharray:none;stroke-dashoffset:0"
       id="path8026-8"
       sodipodi:cx="215.52213"
       sodipodi:cy="46.353981"
       sodipodi:rx="17.203539"
       sodipodi:ry="16.247787"
       d="m 232.72566,46.353981 c 0,8.973405 -7.70228,16.247787 -17.20353,16.247787 -9.50126,0 -17.20354,-7.274382 -17.20354,-16.247787 0,-8.973405 7.70228,-16.247787 17.20354,-16.247787 9.50125,0 17.20353,7.274382 17.20353,16.247787 z"
       transform="matrix(0.42329751,0,0,0.44819735,66.719832,865.42784)" />
    <path
       sodipodi:type="arc"
       style="fill:#000000;fill-opacity:1;stroke:#000000;stroke-width:2.29584455;stroke-linecap:round;stroke-linejoin:miter;stroke-miterlimit:4;stroke-opacity:1;stroke-dasharray:none;stroke-dashoffset:0"
       id="path8026-8-3"
       sodipodi:cx="215.52213"
       sodipodi:cy="46.353981"
       sodipodi:rx="17.203539"
       sodipodi:ry="16.247787"
       d="m 232.72566,46.353981 c 0,8.915206 -7.60636,16.165254 -17.04559,16.247103 l -0.15794,-16.247103 z"
       transform="matrix(0.42329751,0,0,0.44819735,66.667342,865.36298)"
       sodipodi:start="0"
       sodipodi:end="1.5616154" />
    <path
       sodipodi:type="arc"
       style="fill:#000000;fill-opacity:1;stroke:#000000;stroke-width:2.29584455;stroke-linecap:round;stroke-linejoin:miter;stroke-miterlimit:4;stroke-opacity:1;stroke-dasharray:none;stroke-dashoffset:0"
       id="path8026-8-3-4"
       sodipodi:cx="215.52213"
       sodipodi:cy="46.353981"
       sodipodi:rx="17.203539"
       sodipodi:ry="16.247787"
       d="m 198.31859,46.367458 c -0.008,-8.973402 7.68802,-16.253816 17.18927,-16.261259 0.0316,-2.5e-5 0.0631,3.3e-5 0.0947,1.72e-4 l -0.0804,16.24761 z"
       transform="matrix(0.42329751,0,0,0.44819735,66.764772,865.52541)"
       sodipodi:start="3.1407632"
       sodipodi:end="4.7170641" />
    <path
       style="fill:none;stroke:#000000;stroke-width:1;stroke-linecap:butt;stroke-linejoin:miter;stroke-miterlimit:4;stroke-opacity:1;stroke-dasharray:2, 1;stroke-dashoffset:0"
       d="m 131.45029,857.74732 26.57684,28.50301"
       id="path10802"
       inkscape:connector-curvature="0"
       sodipodi:nodetypes="cc" />
    <path
       style="fill:none;stroke:#000000;stroke-width:1px;stroke-linecap:butt;stroke-linejoin:miter;stroke-opacity:1"
       d="m 136.34646,80.517285 -1.69803,8.015829 -5.41256,-6.259815"
       id="path10804"
       inkscape:connector-curvature="0"
       transform="translate(0,782.35975)"
       sodipodi:nodetypes="ccc" />
    <g
       transform="translate(-57.468948,742.80173)"
       ns0:text="$g_o$"
       ns0:preamble=""
       id="g10987">
      <defs
         id="defs10989">
        <g
           id="g10991">
          <symbol
             style="overflow:visible"
             overflow="visible"
             id="textext-d403814d-0">
            <path
               inkscape:connector-curvature="0"
               style="stroke:none"
               d="M 4.6875,-3.765625 C 4.703125,-3.8125 4.71875,-3.875 4.71875,-3.9375 c 0,-0.171875 -0.109375,-0.265625 -0.28125,-0.265625 -0.09375,0 -0.375,0.0625 -0.40625,0.421875 -0.1875,-0.359375 -0.53125,-0.625 -0.9375,-0.625 -1.125,0 -2.359375,1.390625 -2.359375,2.828125 0,0.984375 0.59375,1.578125 1.3125,1.578125 0.59375,0 1.0625,-0.46875 1.15625,-0.578125 L 3.21875,-0.5625 C 3.015625,0.3125 2.890625,0.734375 2.890625,0.75 2.84375,0.84375 2.515625,1.828125 1.453125,1.828125 1.265625,1.828125 0.9375,1.8125 0.65625,1.71875 0.953125,1.640625 1.0625,1.375 1.0625,1.203125 c 0,-0.15625 -0.109375,-0.34375 -0.375,-0.34375 -0.21875,0 -0.53125,0.171875 -0.53125,0.578125 0,0.40625 0.359375,0.609375 1.3125,0.609375 1.25,0 1.96875,-0.78125 2.125,-1.375 z M 3.40625,-1.28125 C 3.34375,-1.015625 3.109375,-0.765625 2.890625,-0.578125 2.6875,-0.40625 2.375,-0.21875 2.078125,-0.21875 c -0.5,0 -0.640625,-0.515625 -0.640625,-0.921875 0,-0.46875 0.28125,-1.65625 0.5625,-2.15625 C 2.265625,-3.78125 2.6875,-4.1875 3.109375,-4.1875 c 0.65625,0 0.796875,0.8125 0.796875,0.859375 0,0.046875 -0.015625,0.109375 -0.03125,0.140625 z m 0,0"
               id="path10994" />
          </symbol>
          <symbol
             style="overflow:visible"
             overflow="visible"
             id="textext-d403814d-1">
            <path
               inkscape:connector-curvature="0"
               style="stroke:none"
               d="m 3.703125,-1.859375 c 0,-0.765625 -0.578125,-1.21875 -1.265625,-1.21875 -1.03125,0 -2,0.96875 -2,1.921875 0,0.703125 0.5,1.21875 1.265625,1.21875 1,0 2,-0.90625 2,-1.921875 z m -2,1.734375 c -0.34375,0 -0.6875,-0.21875 -0.6875,-0.78125 0,-0.28125 0.125,-0.96875 0.40625,-1.359375 C 1.71875,-2.703125 2.125,-2.875 2.4375,-2.875 c 0.375,0 0.6875,0.25 0.6875,0.765625 C 3.125,-1.9375 3.046875,-1.25 2.734375,-0.765625 2.46875,-0.34375 2.0625,-0.125 1.703125,-0.125 z m 0,0"
               id="path10997" />
          </symbol>
        </g>
      </defs>
      <g
         id="textext-d403814d-2">
        <g
           style="fill:#000000;fill-opacity:1"
           id="g11000">
          <use
             height="270"
             width="270"
             xlink:href="#textext-d403814d-0"
             x="223.43201"
             y="134.765"
             id="use11002" />
        </g>
        <g
           style="fill:#000000;fill-opacity:1"
           id="g11004">
          <use
             height="270"
             width="270"
             xlink:href="#textext-d403814d-1"
             x="228.18401"
             y="136.259"
             id="use11006" />
        </g>
      </g>
    </g>
    <path
       style="fill:none;stroke:#000000;stroke-width:1;stroke-linecap:butt;stroke-linejoin:miter;stroke-miterlimit:4;stroke-opacity:1;stroke-dasharray:none;stroke-dashoffset:0;marker-start:url(#Arrow1Mstart);marker-end:none"
       d="m 118.32023,843.83337 13.00358,13.94602"
       id="path10802-1"
       inkscape:connector-curvature="0"
       sodipodi:nodetypes="cc" />
    <g
       id="g11987"
       ns0:preamble=""
       ns0:text="$\\hat{g}_1$"
       transform="translate(-116.16679,711.66038)">
      <defs
         id="defs11989">
        <g
           id="g11991">
          <symbol
             id="textext-3d69bbdb-0"
             overflow="visible"
             style="overflow:visible">
            <path
               id="path11994"
               d="M 2.5,-6.921875 1.15625,-5.5625 1.328125,-5.390625 2.5,-6.40625 3.640625,-5.390625 3.8125,-5.5625 z m 0,0"
               style="stroke:none"
               inkscape:connector-curvature="0" />
          </symbol>
          <symbol
             id="textext-3d69bbdb-1"
             overflow="visible"
             style="overflow:visible">
            <path
               id="path11997"
               d="M 4.6875,-3.765625 C 4.703125,-3.8125 4.71875,-3.875 4.71875,-3.9375 c 0,-0.171875 -0.109375,-0.265625 -0.28125,-0.265625 -0.09375,0 -0.375,0.0625 -0.40625,0.421875 -0.1875,-0.359375 -0.53125,-0.625 -0.9375,-0.625 -1.125,0 -2.359375,1.390625 -2.359375,2.828125 0,0.984375 0.59375,1.578125 1.3125,1.578125 0.59375,0 1.0625,-0.46875 1.15625,-0.578125 L 3.21875,-0.5625 C 3.015625,0.3125 2.890625,0.734375 2.890625,0.75 2.84375,0.84375 2.515625,1.828125 1.453125,1.828125 1.265625,1.828125 0.9375,1.8125 0.65625,1.71875 0.953125,1.640625 1.0625,1.375 1.0625,1.203125 c 0,-0.15625 -0.109375,-0.34375 -0.375,-0.34375 -0.21875,0 -0.53125,0.171875 -0.53125,0.578125 0,0.40625 0.359375,0.609375 1.3125,0.609375 1.25,0 1.96875,-0.78125 2.125,-1.375 z M 3.40625,-1.28125 C 3.34375,-1.015625 3.109375,-0.765625 2.890625,-0.578125 2.6875,-0.40625 2.375,-0.21875 2.078125,-0.21875 c -0.5,0 -0.640625,-0.515625 -0.640625,-0.921875 0,-0.46875 0.28125,-1.65625 0.5625,-2.15625 C 2.265625,-3.78125 2.6875,-4.1875 3.109375,-4.1875 c 0.65625,0 0.796875,0.8125 0.796875,0.859375 0,0.046875 -0.015625,0.109375 -0.03125,0.140625 z m 0,0"
               style="stroke:none"
               inkscape:connector-curvature="0" />
          </symbol>
          <symbol
             id="textext-3d69bbdb-2"
             overflow="visible"
             style="overflow:visible">
            <path
               id="path12000"
               d="m 2.328125,-4.4375 c 0,-0.1875 0,-0.1875 -0.203125,-0.1875 -0.453125,0.4375 -1.078125,0.4375 -1.359375,0.4375 l 0,0.25 c 0.15625,0 0.625,0 1,-0.1875 l 0,3.546875 c 0,0.234375 0,0.328125 -0.6875,0.328125 l -0.265625,0 0,0.25 c 0.125,0 0.984375,-0.03125 1.234375,-0.03125 0.21875,0 1.09375,0.03125 1.25,0.03125 l 0,-0.25 -0.265625,0 c -0.703125,0 -0.703125,-0.09375 -0.703125,-0.328125 z m 0,0"
               style="stroke:none"
               inkscape:connector-curvature="0" />
          </symbol>
        </g>
      </defs>
      <g
         id="textext-3d69bbdb-3">
        <g
           id="g12003"
           style="fill:#000000;fill-opacity:1">
          <use
             id="use12005"
             y="134.765"
             x="223.77299"
             xlink:href="#textext-3d69bbdb-0"
             width="270"
             height="270" />
        </g>
        <g
           id="g12007"
           style="fill:#000000;fill-opacity:1">
          <use
             id="use12009"
             y="134.765"
             x="223.43201"
             xlink:href="#textext-3d69bbdb-1"
             width="270"
             height="270" />
        </g>
        <g
           id="g12011"
           style="fill:#000000;fill-opacity:1">
          <use
             id="use12013"
             y="136.259"
             x="228.18401"
             xlink:href="#textext-3d69bbdb-2"
             width="270"
             height="270" />
        </g>
      </g>
    </g>
    <g
       transform="translate(-78.001742,733.73447)"
       ns0:text="d"
       ns0:preamble=""
       id="g12433">
      <defs
         id="defs12435">
        <g
           id="g12437">
          <symbol
             style="overflow:visible"
             overflow="visible"
             id="textext-2760f714-0">
            <path
               inkscape:connector-curvature="0"
               style="stroke:none"
               d="m 3.78125,-0.546875 0,0.65625 L 5.25,0 l 0,-0.3125 c -0.6875,0 -0.78125,-0.0625 -0.78125,-0.5625 l 0,-6.046875 -1.421875,0.109375 0,0.3125 c 0.6875,0 0.765625,0.0625 0.765625,0.5625 l 0,2.15625 c -0.28125,-0.359375 -0.71875,-0.625 -1.25,-0.625 -1.171875,0 -2.21875,0.984375 -2.21875,2.265625 0,1.265625 0.96875,2.25 2.109375,2.25 0.640625,0 1.078125,-0.34375 1.328125,-0.65625 z m 0,-2.671875 0,2.046875 c 0,0.171875 0,0.1875 -0.109375,0.359375 C 3.375,-0.328125 2.9375,-0.109375 2.5,-0.109375 2.046875,-0.109375 1.6875,-0.375 1.453125,-0.75 1.203125,-1.15625 1.171875,-1.71875 1.171875,-2.140625 1.171875,-2.5 1.1875,-3.09375 1.46875,-3.546875 1.6875,-3.859375 2.0625,-4.1875 2.609375,-4.1875 c 0.34375,0 0.765625,0.15625 1.0625,0.59375 0.109375,0.171875 0.109375,0.1875 0.109375,0.375 z m 0,0"
               id="path12440" />
          </symbol>
        </g>
      </defs>
      <g
         id="textext-2760f714-1">
        <g
           style="fill:#000000;fill-opacity:1"
           id="g12443">
          <use
             height="270"
             width="270"
             xlink:href="#textext-2760f714-0"
             x="223.43201"
             y="134.765"
             id="use12445" />
        </g>
      </g>
    </g>
    <path
       transform="matrix(0.17453695,0,0,0.15109168,95.531207,827.46414)"
       d="m 217.91151,199.0354 c 0,8.84144 -6.20462,16.00885 -13.85841,16.00885 -7.65379,0 -13.85841,-7.16741 -13.85841,-16.00885 0,-8.84144 6.20462,-16.00885 13.85841,-16.00885 7.65379,0 13.85841,7.16741 13.85841,16.00885 z"
       sodipodi:ry="16.00885"
       sodipodi:rx="13.858407"
       sodipodi:cy="199.0354"
       sodipodi:cx="204.0531"
       id="path12663"
       style="fill:#000000;fill-opacity:1;fill-rule:nonzero;stroke:#000000;stroke-width:1;stroke-linecap:round;stroke-linejoin:miter;stroke-miterlimit:4;stroke-opacity:1;stroke-dasharray:none;stroke-dashoffset:0"
       sodipodi:type="arc" />
    <g
       id="g12884"
       ns0:preamble=""
       ns0:text="s"
       transform="translate(-88.751962,721.43658)">
      <defs
         id="defs12886">
        <g
           id="g12888">
          <symbol
             id="textext-cf553ca3-0"
             overflow="visible"
             style="overflow:visible">
            <path
               id="path12891"
               d="m 2.078125,-1.9375 c 0.21875,0.046875 1.03125,0.203125 1.03125,0.921875 0,0.5 -0.34375,0.90625 -1.125,0.90625 -0.84375,0 -1.203125,-0.5625 -1.390625,-1.421875 C 0.5625,-1.65625 0.5625,-1.6875 0.453125,-1.6875 c -0.125,0 -0.125,0.0625 -0.125,0.234375 l 0,1.328125 c 0,0.171875 0,0.234375 0.109375,0.234375 0.046875,0 0.0625,-0.015625 0.25,-0.203125 0.015625,-0.015625 0.015625,-0.03125 0.203125,-0.21875 0.4375,0.40625 0.890625,0.421875 1.09375,0.421875 1.140625,0 1.609375,-0.671875 1.609375,-1.390625 0,-0.515625 -0.296875,-0.828125 -0.421875,-0.9375 C 2.84375,-2.546875 2.453125,-2.625 2.03125,-2.703125 1.46875,-2.8125 0.8125,-2.9375 0.8125,-3.515625 c 0,-0.359375 0.25,-0.765625 1.109375,-0.765625 1.09375,0 1.15625,0.90625 1.171875,1.203125 0,0.09375 0.09375,0.09375 0.109375,0.09375 0.140625,0 0.140625,-0.046875 0.140625,-0.234375 l 0,-1.015625 c 0,-0.15625 0,-0.234375 -0.109375,-0.234375 -0.046875,0 -0.078125,0 -0.203125,0.125 -0.03125,0.03125 -0.125,0.125 -0.171875,0.15625 -0.375,-0.28125 -0.78125,-0.28125 -0.9375,-0.28125 -1.21875,0 -1.59375,0.671875 -1.59375,1.234375 0,0.34375 0.15625,0.625 0.421875,0.84375 0.328125,0.25 0.609375,0.3125 1.328125,0.453125 z m 0,0"
               style="stroke:none"
               inkscape:connector-curvature="0" />
          </symbol>
        </g>
      </defs>
      <g
         id="textext-cf553ca3-1">
        <g
           id="g12894"
           style="fill:#000000;fill-opacity:1">
          <use
             id="use12896"
             y="134.765"
             x="223.43201"
             xlink:href="#textext-cf553ca3-0"
             width="270"
             height="270" />
        </g>
      </g>
    </g>
    <path
       transform="matrix(0.17453695,0,0,0.15109168,4.7751162,960.01733)"
       d="m 217.91151,199.0354 c 0,8.84144 -6.20462,16.00885 -13.85841,16.00885 -7.65379,0 -13.85841,-7.16741 -13.85841,-16.00885 0,-8.84144 6.20462,-16.00885 13.85841,-16.00885 7.65379,0 13.85841,7.16741 13.85841,16.00885 z"
       sodipodi:ry="16.00885"
       sodipodi:rx="13.858407"
       sodipodi:cy="199.0354"
       sodipodi:cx="204.0531"
       id="path12663-4"
       style="fill:#000000;fill-opacity:1;fill-rule:nonzero;stroke:#000000;stroke-width:1;stroke-linecap:round;stroke-linejoin:miter;stroke-miterlimit:4;stroke-opacity:1;stroke-dasharray:none;stroke-dashoffset:0"
       sodipodi:type="arc" />
    <path
       sodipodi:nodetypes="cc"
       style="fill:none;stroke:#000000;stroke-width:1;stroke-linecap:butt;stroke-linejoin:miter;stroke-miterlimit:4;stroke-opacity:1;stroke-dasharray:2, 1;stroke-dashoffset:0"
       d="M 41.336294,989.75798 100.11504,973.74915"
       id="path13141"
       inkscape:connector-curvature="0" />
    <g
       transform="translate(-192.18461,853.26116)"
       ns0:text="v"
       ns0:preamble=""
       id="g13372">
      <defs
         id="defs13374">
        <g
           id="g13376">
          <symbol
             style="overflow:visible"
             overflow="visible"
             id="textext-0f03db27-0">
            <path
               inkscape:connector-curvature="0"
               style="stroke:none"
               d="M 4.140625,-3.3125 C 4.234375,-3.546875 4.40625,-3.984375 5.0625,-3.984375 l 0,-0.3125 c -0.234375,0.015625 -0.515625,0.03125 -0.75,0.03125 -0.234375,0 -0.6875,-0.015625 -0.859375,-0.03125 l 0,0.3125 c 0.359375,0 0.46875,0.234375 0.46875,0.421875 0,0.09375 -0.015625,0.140625 -0.046875,0.25 L 2.84375,-0.78125 1.734375,-3.5625 c -0.0625,-0.125 -0.0625,-0.140625 -0.0625,-0.171875 0,-0.25 0.390625,-0.25 0.578125,-0.25 l 0,-0.3125 c -0.3125,0.015625 -0.859375,0.03125 -1.09375,0.03125 -0.265625,0 -0.671875,-0.015625 -0.96875,-0.03125 l 0,0.3125 c 0.625,0 0.671875,0.0625 0.796875,0.359375 l 1.4375,3.546875 C 2.484375,0.0625 2.5,0.109375 2.625,0.109375 c 0.140625,0 0.171875,-0.09375 0.21875,-0.1875 z m 0,0"
               id="path13379" />
          </symbol>
        </g>
      </defs>
      <g
         id="textext-0f03db27-1">
        <g
           style="fill:#000000;fill-opacity:1"
           id="g13382">
          <use
             height="270"
             width="270"
             xlink:href="#textext-0f03db27-0"
             x="223.43201"
             y="134.765"
             id="use13384" />
        </g>
      </g>
    </g>
    <g
       id="g13858"
       ns0:preamble=""
       ns0:text="$d_{s1}$"
       transform="translate(-128.14921,759.11956)">
      <defs
         id="defs13860">
        <g
           id="g13862">
          <symbol
             style="overflow:visible"
             id="textext-a41cc135-0"
             overflow="visible">
            <path
               inkscape:connector-curvature="0"
               id="path13865"
               d="m 5.140625,-6.8125 c 0,0 0,-0.109375 -0.125,-0.109375 -0.15625,0 -1.09375,0.09375 -1.265625,0.109375 -0.078125,0.015625 -0.140625,0.0625 -0.140625,0.1875 0,0.125 0.09375,0.125 0.234375,0.125 0.484375,0 0.5,0.0625 0.5,0.171875 L 4.3125,-6.125 3.71875,-3.765625 C 3.53125,-4.140625 3.25,-4.40625 2.796875,-4.40625 c -1.15625,0 -2.390625,1.46875 -2.390625,2.921875 0,0.9375 0.546875,1.59375 1.3125,1.59375 0.203125,0 0.703125,-0.046875 1.296875,-0.75 0.078125,0.421875 0.4375,0.75 0.90625,0.75 0.359375,0 0.578125,-0.234375 0.75,-0.546875 0.15625,-0.359375 0.296875,-0.96875 0.296875,-0.984375 0,-0.109375 -0.09375,-0.109375 -0.125,-0.109375 -0.09375,0 -0.109375,0.046875 -0.140625,0.1875 -0.171875,0.640625 -0.34375,1.234375 -0.75,1.234375 -0.28125,0 -0.296875,-0.265625 -0.296875,-0.453125 0,-0.25 0.015625,-0.3125 0.046875,-0.484375 z m -2.0625,5.625 C 3.015625,-1 3.015625,-0.984375 2.875,-0.8125 2.4375,-0.265625 2.03125,-0.109375 1.75,-0.109375 c -0.5,0 -0.640625,-0.546875 -0.640625,-0.9375 0,-0.5 0.3125,-1.71875 0.546875,-2.1875 0.3125,-0.578125 0.75,-0.953125 1.15625,-0.953125 0.640625,0 0.78125,0.8125 0.78125,0.875 0,0.0625 -0.015625,0.125 -0.03125,0.171875 z m 0,0"
               style="stroke:none" />
          </symbol>
          <symbol
             style="overflow:visible"
             id="textext-a41cc135-1"
             overflow="visible">
            <path
               inkscape:connector-curvature="0"
               id="path13868"
               d="m 3,-2.625 c -0.171875,0.046875 -0.296875,0.1875 -0.296875,0.328125 0,0.171875 0.140625,0.234375 0.234375,0.234375 0.078125,0 0.34375,-0.046875 0.34375,-0.40625 0,-0.453125 -0.5,-0.609375 -0.9375,-0.609375 -1.078125,0 -1.28125,0.8125 -1.28125,1.015625 0,0.265625 0.15625,0.4375 0.25,0.515625 0.171875,0.140625 0.296875,0.171875 0.78125,0.25 0.15625,0.03125 0.59375,0.109375 0.59375,0.453125 0,0.125 -0.078125,0.390625 -0.359375,0.5625 C 2.046875,-0.125 1.703125,-0.125 1.625,-0.125 1.34375,-0.125 0.953125,-0.1875 0.78125,-0.421875 1.015625,-0.453125 1.171875,-0.625 1.171875,-0.8125 c 0,-0.171875 -0.125,-0.265625 -0.265625,-0.265625 -0.203125,0 -0.40625,0.171875 -0.40625,0.46875 0,0.421875 0.4375,0.671875 1.109375,0.671875 1.296875,0 1.53125,-0.875 1.53125,-1.140625 0,-0.640625 -0.703125,-0.765625 -0.96875,-0.8125 -0.0625,-0.015625 -0.234375,-0.046875 -0.28125,-0.0625 -0.25,-0.046875 -0.375,-0.1875 -0.375,-0.34375 0,-0.15625 0.125,-0.34375 0.28125,-0.453125 0.1875,-0.109375 0.421875,-0.125 0.546875,-0.125 0.140625,0 0.5,0.015625 0.65625,0.25 z m 0,0"
               style="stroke:none" />
          </symbol>
          <symbol
             style="overflow:visible"
             id="textext-a41cc135-2"
             overflow="visible">
            <path
               inkscape:connector-curvature="0"
               id="path13871"
               d="m 2.328125,-4.4375 c 0,-0.1875 0,-0.1875 -0.203125,-0.1875 -0.453125,0.4375 -1.078125,0.4375 -1.359375,0.4375 l 0,0.25 c 0.15625,0 0.625,0 1,-0.1875 l 0,3.546875 c 0,0.234375 0,0.328125 -0.6875,0.328125 l -0.265625,0 0,0.25 c 0.125,0 0.984375,-0.03125 1.234375,-0.03125 0.21875,0 1.09375,0.03125 1.25,0.03125 l 0,-0.25 -0.265625,0 c -0.703125,0 -0.703125,-0.09375 -0.703125,-0.328125 z m 0,0"
               style="stroke:none" />
          </symbol>
        </g>
      </defs>
      <g
         id="textext-a41cc135-3">
        <g
           id="g13874"
           style="fill:#000000;fill-opacity:1">
          <use
             height="270"
             width="270"
             id="use13876"
             y="134.765"
             x="223.43201"
             xlink:href="#textext-a41cc135-0" />
        </g>
        <g
           id="g13878"
           style="fill:#000000;fill-opacity:1">
          <use
             height="270"
             width="270"
             id="use13880"
             y="136.259"
             x="228.618"
             xlink:href="#textext-a41cc135-1" />
        </g>
        <g
           id="g13882"
           style="fill:#000000;fill-opacity:1">
          <use
             height="270"
             width="270"
             id="use13884"
             y="136.259"
             x="232.37801"
             xlink:href="#textext-a41cc135-2" />
        </g>
      </g>
    </g>
    <g
       transform="translate(-158.90223,858.45981)"
       ns0:text="$d_{s3}$"
       ns0:preamble=""
       id="g14390">
      <defs
         id="defs14392">
        <g
           id="g14394">
          <symbol
             style="overflow:visible"
             overflow="visible"
             id="textext-fa6df3be-0">
            <path
               inkscape:connector-curvature="0"
               style="stroke:none"
               d="m 5.140625,-6.8125 c 0,0 0,-0.109375 -0.125,-0.109375 -0.15625,0 -1.09375,0.09375 -1.265625,0.109375 -0.078125,0.015625 -0.140625,0.0625 -0.140625,0.1875 0,0.125 0.09375,0.125 0.234375,0.125 0.484375,0 0.5,0.0625 0.5,0.171875 L 4.3125,-6.125 3.71875,-3.765625 C 3.53125,-4.140625 3.25,-4.40625 2.796875,-4.40625 c -1.15625,0 -2.390625,1.46875 -2.390625,2.921875 0,0.9375 0.546875,1.59375 1.3125,1.59375 0.203125,0 0.703125,-0.046875 1.296875,-0.75 0.078125,0.421875 0.4375,0.75 0.90625,0.75 0.359375,0 0.578125,-0.234375 0.75,-0.546875 0.15625,-0.359375 0.296875,-0.96875 0.296875,-0.984375 0,-0.109375 -0.09375,-0.109375 -0.125,-0.109375 -0.09375,0 -0.109375,0.046875 -0.140625,0.1875 -0.171875,0.640625 -0.34375,1.234375 -0.75,1.234375 -0.28125,0 -0.296875,-0.265625 -0.296875,-0.453125 0,-0.25 0.015625,-0.3125 0.046875,-0.484375 z m -2.0625,5.625 C 3.015625,-1 3.015625,-0.984375 2.875,-0.8125 2.4375,-0.265625 2.03125,-0.109375 1.75,-0.109375 c -0.5,0 -0.640625,-0.546875 -0.640625,-0.9375 0,-0.5 0.3125,-1.71875 0.546875,-2.1875 0.3125,-0.578125 0.75,-0.953125 1.15625,-0.953125 0.640625,0 0.78125,0.8125 0.78125,0.875 0,0.0625 -0.015625,0.125 -0.03125,0.171875 z m 0,0"
               id="path14397" />
          </symbol>
          <symbol
             style="overflow:visible"
             overflow="visible"
             id="textext-fa6df3be-1">
            <path
               inkscape:connector-curvature="0"
               style="stroke:none"
               d="m 3,-2.625 c -0.171875,0.046875 -0.296875,0.1875 -0.296875,0.328125 0,0.171875 0.140625,0.234375 0.234375,0.234375 0.078125,0 0.34375,-0.046875 0.34375,-0.40625 0,-0.453125 -0.5,-0.609375 -0.9375,-0.609375 -1.078125,0 -1.28125,0.8125 -1.28125,1.015625 0,0.265625 0.15625,0.4375 0.25,0.515625 0.171875,0.140625 0.296875,0.171875 0.78125,0.25 0.15625,0.03125 0.59375,0.109375 0.59375,0.453125 0,0.125 -0.078125,0.390625 -0.359375,0.5625 C 2.046875,-0.125 1.703125,-0.125 1.625,-0.125 1.34375,-0.125 0.953125,-0.1875 0.78125,-0.421875 1.015625,-0.453125 1.171875,-0.625 1.171875,-0.8125 c 0,-0.171875 -0.125,-0.265625 -0.265625,-0.265625 -0.203125,0 -0.40625,0.171875 -0.40625,0.46875 0,0.421875 0.4375,0.671875 1.109375,0.671875 1.296875,0 1.53125,-0.875 1.53125,-1.140625 0,-0.640625 -0.703125,-0.765625 -0.96875,-0.8125 -0.0625,-0.015625 -0.234375,-0.046875 -0.28125,-0.0625 -0.25,-0.046875 -0.375,-0.1875 -0.375,-0.34375 0,-0.15625 0.125,-0.34375 0.28125,-0.453125 0.1875,-0.109375 0.421875,-0.125 0.546875,-0.125 0.140625,0 0.5,0.015625 0.65625,0.25 z m 0,0"
               id="path14400" />
          </symbol>
          <symbol
             style="overflow:visible"
             overflow="visible"
             id="textext-fa6df3be-2">
            <path
               inkscape:connector-curvature="0"
               style="stroke:none"
               d="m 1.90625,-2.328125 c 0.546875,0 0.9375,0.375 0.9375,1.125 0,0.859375 -0.515625,1.125 -0.90625,1.125 -0.28125,0 -0.90625,-0.078125 -1.1875,-0.5 0.328125,0 0.40625,-0.234375 0.40625,-0.390625 0,-0.21875 -0.171875,-0.375 -0.390625,-0.375 -0.1875,0 -0.390625,0.125 -0.390625,0.40625 0,0.65625 0.71875,1.078125 1.5625,1.078125 0.96875,0 1.640625,-0.65625 1.640625,-1.34375 0,-0.546875 -0.4375,-1.09375 -1.203125,-1.25 0.71875,-0.265625 0.984375,-0.78125 0.984375,-1.21875 0,-0.546875 -0.625,-0.953125 -1.40625,-0.953125 -0.765625,0 -1.359375,0.375 -1.359375,0.9375 0,0.234375 0.15625,0.359375 0.359375,0.359375 0.21875,0 0.359375,-0.15625 0.359375,-0.34375 0,-0.203125 -0.140625,-0.359375 -0.359375,-0.375 0.25,-0.296875 0.71875,-0.375 0.984375,-0.375 0.3125,0 0.75,0.15625 0.75,0.75 0,0.296875 -0.09375,0.625 -0.28125,0.828125 -0.21875,0.265625 -0.421875,0.28125 -0.765625,0.3125 -0.171875,0.015625 -0.1875,0.015625 -0.21875,0.015625 -0.015625,0 -0.078125,0.015625 -0.078125,0.09375 0,0.09375 0.0625,0.09375 0.1875,0.09375 z m 0,0"
               id="path14403" />
          </symbol>
        </g>
      </defs>
      <g
         id="textext-fa6df3be-3">
        <g
           style="fill:#000000;fill-opacity:1"
           id="g14406">
          <use
             height="270"
             width="270"
             xlink:href="#textext-fa6df3be-0"
             x="223.43201"
             y="134.765"
             id="use14408" />
        </g>
        <g
           style="fill:#000000;fill-opacity:1"
           id="g14410">
          <use
             height="270"
             width="270"
             xlink:href="#textext-fa6df3be-1"
             x="228.618"
             y="136.259"
             id="use14412" />
        </g>
        <g
           style="fill:#000000;fill-opacity:1"
           id="g14414">
          <use
             height="270"
             width="270"
             xlink:href="#textext-fa6df3be-2"
             x="232.37801"
             y="136.259"
             id="use14416" />
        </g>
      </g>
    </g>
    <path
       inkscape:connector-curvature="0"
       id="path14685"
       d="m 101.87969,184.50891 -6.758184,1.8585 -1.013728,6.08237"
       style="fill:none;stroke:#000000;stroke-width:1px;stroke-linecap:butt;stroke-linejoin:miter;stroke-opacity:1"
       transform="translate(0,782.35975)" />
    <path
       sodipodi:nodetypes="cc"
       style="fill:none;stroke:#000000;stroke-width:1;stroke-linecap:butt;stroke-linejoin:miter;stroke-miterlimit:4;stroke-opacity:1;stroke-dasharray:none;stroke-dashoffset:0;marker-end:url(#Arrow1Mend-8-0)"
       d="m 100.34198,973.67064 22.80662,-6.21155"
       id="path13141-8"
       inkscape:connector-curvature="0" />
    <g
       id="g15360"
       ns0:preamble=""
       ns0:text="$\\hat{b}_1$"
       transform="translate(-100.74507,845.89027)">
      <defs
         id="defs15362">
        <g
           id="g15364">
          <symbol
             id="textext-d109429d-0"
             overflow="visible"
             style="overflow:visible">
            <path
               id="path15367"
               d="M 2.5,-6.921875 1.15625,-5.5625 1.328125,-5.390625 2.5,-6.40625 3.640625,-5.390625 3.8125,-5.5625 z m 0,0"
               style="stroke:none"
               inkscape:connector-curvature="0" />
          </symbol>
          <symbol
             id="textext-d109429d-1"
             overflow="visible"
             style="overflow:visible">
            <path
               id="path15370"
               d="m 2.375,-6.8125 c 0,0 0,-0.109375 -0.125,-0.109375 -0.21875,0 -0.953125,0.078125 -1.21875,0.109375 -0.078125,0 -0.1875,0.015625 -0.1875,0.1875 0,0.125 0.09375,0.125 0.25,0.125 0.46875,0 0.484375,0.0625 0.484375,0.171875 0,0.0625 -0.078125,0.40625 -0.125,0.609375 l -0.828125,3.25 c -0.109375,0.5 -0.15625,0.671875 -0.15625,1.015625 0,0.9375 0.53125,1.5625 1.265625,1.5625 1.171875,0 2.40625,-1.484375 2.40625,-2.921875 0,-0.90625 -0.53125,-1.59375 -1.328125,-1.59375 -0.453125,0 -0.875,0.296875 -1.171875,0.59375 z M 1.453125,-3.046875 C 1.5,-3.265625 1.5,-3.28125 1.59375,-3.390625 2.078125,-4.03125 2.53125,-4.1875 2.796875,-4.1875 c 0.359375,0 0.625,0.296875 0.625,0.9375 0,0.59375 -0.328125,1.734375 -0.515625,2.109375 -0.328125,0.671875 -0.78125,1.03125 -1.171875,1.03125 -0.34375,0 -0.671875,-0.265625 -0.671875,-1 0,-0.203125 0,-0.390625 0.15625,-1.015625 z m 0,0"
               style="stroke:none"
               inkscape:connector-curvature="0" />
          </symbol>
          <symbol
             id="textext-d109429d-2"
             overflow="visible"
             style="overflow:visible">
            <path
               id="path15373"
               d="m 2.328125,-4.4375 c 0,-0.1875 0,-0.1875 -0.203125,-0.1875 -0.453125,0.4375 -1.078125,0.4375 -1.359375,0.4375 l 0,0.25 c 0.15625,0 0.625,0 1,-0.1875 l 0,3.546875 c 0,0.234375 0,0.328125 -0.6875,0.328125 l -0.265625,0 0,0.25 c 0.125,0 0.984375,-0.03125 1.234375,-0.03125 0.21875,0 1.09375,0.03125 1.25,0.03125 l 0,-0.25 -0.265625,0 c -0.703125,0 -0.703125,-0.09375 -0.703125,-0.328125 z m 0,0"
               style="stroke:none"
               inkscape:connector-curvature="0" />
          </symbol>
        </g>
      </defs>
      <g
         id="textext-d109429d-3">
        <g
           id="g15376"
           style="fill:#000000;fill-opacity:1">
          <use
             id="use15378"
             y="132.136"
             x="223.07899"
             xlink:href="#textext-d109429d-0"
             width="270"
             height="270" />
        </g>
        <g
           id="g15380"
           style="fill:#000000;fill-opacity:1">
          <use
             id="use15382"
             y="134.765"
             x="223.43201"
             xlink:href="#textext-d109429d-1"
             width="270"
             height="270" />
        </g>
        <g
           id="g15384"
           style="fill:#000000;fill-opacity:1">
          <use
             id="use15386"
             y="136.259"
             x="227.70799"
             xlink:href="#textext-d109429d-2"
             width="270"
             height="270" />
        </g>
      </g>
    </g>
  </g>
</svg>
